M48
; DRILL file {KiCad (5.1.12)-1} date 07/24/22 17:57:52
; FORMAT={-:-/ absolute / metric / decimal}
; #@! TF.CreationDate,2022-07-24T17:57:52+02:00
; #@! TF.GenerationSoftware,Kicad,Pcbnew,(5.1.12)-1
; #@! TF.FileFunction,NonPlated,1,2,NPTH
FMAT,2
METRIC
T1C0.600
T2C0.762
T3C0.800
T4C0.900
T5C1.000
T6C1.100
T7C1.200
%
G90
G05
T1
X72.36Y-71.294
X73.66Y-66.294
X82.52Y-71.294
X83.82Y-66.294
T2
X118.745Y-69.215
X118.745Y-71.755
X118.745Y-74.295
X118.745Y-76.835
X118.745Y-79.375
X118.745Y-81.915
X118.745Y-84.455
X118.745Y-86.995
X118.745Y-89.535
X121.285Y-69.215
X121.285Y-71.755
X121.285Y-74.295
X121.285Y-76.835
X121.285Y-79.375
X121.285Y-81.915
X121.285Y-84.455
X121.285Y-86.995
X121.285Y-89.535
T3
X63.54Y-68.453
X63.54Y-73.025
X63.54Y-86.995
X63.54Y-92.075
X66.04Y-68.453
X66.04Y-73.025
X66.04Y-86.995
X66.04Y-92.075
X69.215Y-87.63
X69.215Y-90.13
X72.39Y-74.93
X72.39Y-77.47
X72.39Y-80.01
X72.39Y-82.55
X72.39Y-85.09
X72.39Y-87.63
X72.39Y-90.17
X72.39Y-93.98
X80.01Y-74.93
X80.01Y-77.47
X80.01Y-80.01
X80.01Y-82.55
X80.01Y-85.09
X80.01Y-87.63
X80.01Y-90.17
X84.201Y-114.935
X84.201Y-117.435
X84.963Y-75.565
X84.963Y-88.265
X85.09Y-93.98
X87.122Y-109.855
X87.122Y-117.475
X89.662Y-109.855
X89.662Y-117.475
X90.765Y-80.685
X90.765Y-83.185
X90.765Y-88.065
X90.765Y-90.565
X91.44Y-93.599
X91.44Y-99.695
X92.202Y-109.855
X92.202Y-117.475
X93.345Y-68.58
X93.345Y-78.105
X94.615Y-83.185
X94.615Y-88.065
X94.742Y-109.855
X94.742Y-117.475
X95.25Y-97.536
X96.52Y-65.786
X96.52Y-78.486
X98.552Y-86.614
X98.552Y-89.114
X99.695Y-112.141
X101.219Y-87.63
X105.41Y-95.123
X107.315Y-100.965
X107.315Y-108.585
X107.95Y-97.536
X109.855Y-100.965
X109.855Y-108.585
X111.76Y-87.63
X112.395Y-95.123
X112.395Y-100.965
X112.395Y-108.585
X112.395Y-112.141
X114.935Y-100.965
X114.935Y-108.585
T4
X121.285Y-95.885
X121.285Y-98.425
T5
X70.485Y-99.695
X70.485Y-102.235
X70.485Y-107.315
X70.485Y-112.395
X73.66Y-58.42
X76.2Y-58.42
X78.74Y-58.42
X92.202Y-120.904
X92.202Y-123.444
X92.202Y-125.984
X94.742Y-120.904
X94.742Y-123.444
X94.742Y-125.984
X97.79Y-58.42
X100.33Y-58.42
X102.87Y-58.42
X102.87Y-90.17
X102.87Y-92.71
X105.41Y-90.17
X105.41Y-92.71
X107.95Y-90.17
X107.95Y-92.71
T6
X66.04Y-77.216
X66.04Y-79.756
X66.04Y-82.296
T7
X66.04Y-62.357
X78.74Y-62.357
X90.17Y-62.357
X102.87Y-62.357
T0
M30
