M48
; DRILL file {KiCad (5.1.5)-3} date 4/4/2020 11:24:57 AM
; FORMAT={-:-/ absolute / metric / decimal}
; #@! TF.CreationDate,2020-04-04T11:24:57+02:00
; #@! TF.GenerationSoftware,Kicad,Pcbnew,(5.1.5)-3
FMAT,2
METRIC
T1C0.600
T2C0.762
T3C0.800
T4C0.900
T5C1.000
T6C1.100
T7C1.200
%
G90
G05
T1
X82.52Y-71.675
X83.82Y-66.675
X72.36Y-71.675
X73.66Y-66.675
T2
X118.745Y-69.215
X118.745Y-71.755
X118.745Y-74.295
X118.745Y-76.835
X118.745Y-79.375
X118.745Y-81.915
X118.745Y-84.455
X118.745Y-86.995
X118.745Y-89.535
X121.285Y-69.215
X121.285Y-71.755
X121.285Y-74.295
X121.285Y-76.835
X121.285Y-79.375
X121.285Y-81.915
X121.285Y-84.455
X121.285Y-86.995
X121.285Y-89.535
T3
X97.155Y-97.155
X109.855Y-97.155
X107.315Y-100.965
X107.315Y-108.585
X109.855Y-100.965
X109.855Y-108.585
X112.395Y-100.965
X112.395Y-108.585
X114.935Y-100.965
X114.935Y-108.585
X93.345Y-78.105
X90.17Y-88.075
X92.67Y-88.075
X63.54Y-92.075
X66.04Y-92.075
X63.54Y-68.58
X66.04Y-68.58
X96.52Y-66.04
X96.52Y-78.74
X90.17Y-83.185
X92.67Y-83.185
X63.54Y-72.898
X66.04Y-72.898
X96.52Y-83.185
X96.52Y-88.065
X92.71Y-100.965
X84.455Y-75.565
X84.455Y-88.265
X69.215Y-87.63
X69.215Y-90.13
X71.755Y-93.98
X84.455Y-93.98
X90.21Y-93.345
X92.71Y-93.345
X83.185Y-112.395
X83.185Y-120.015
X85.725Y-112.395
X85.725Y-120.015
X88.265Y-112.395
X88.265Y-120.015
X90.805Y-112.395
X90.805Y-120.015
X93.345Y-68.58
X63.54Y-86.995
X66.04Y-86.995
X114.935Y-92.71
X99.695Y-112.395
X112.395Y-112.395
X80.01Y-114.935
X80.01Y-117.435
X72.39Y-74.93
X72.39Y-77.47
X72.39Y-80.01
X72.39Y-82.55
X72.39Y-85.09
X72.39Y-87.63
X72.39Y-90.17
X80.01Y-74.93
X80.01Y-77.47
X80.01Y-80.01
X80.01Y-82.55
X80.01Y-85.09
X80.01Y-87.63
X80.01Y-90.17
X109.855Y-92.71
X92.71Y-95.885
T4
X121.285Y-95.885
X121.285Y-98.425
T5
X101.6Y-90.17
X101.6Y-92.71
X104.14Y-90.17
X104.14Y-92.71
X106.68Y-90.17
X106.68Y-92.71
X99.06Y-121.285
X99.06Y-123.825
X99.06Y-126.365
X70.485Y-99.695
X70.485Y-102.235
X70.485Y-107.315
X70.485Y-112.395
X95.25Y-121.285
X95.25Y-123.825
X95.25Y-126.365
X97.79Y-58.42
X100.33Y-58.42
X102.87Y-58.42
X73.66Y-58.42
X76.2Y-58.42
X78.74Y-58.42
T6
X66.04Y-77.216
X66.04Y-79.756
X66.04Y-82.296
T7
X90.17Y-62.865
X102.87Y-62.865
X66.04Y-62.865
X78.74Y-62.865
T0
M30
