G04 #@! TF.GenerationSoftware,KiCad,Pcbnew,(5.1.5)-3*
G04 #@! TF.CreationDate,2020-04-04T11:24:52+02:00*
G04 #@! TF.ProjectId,DMX2SGM,444d5832-5347-44d2-9e6b-696361645f70,0.2*
G04 #@! TF.SameCoordinates,Original*
G04 #@! TF.FileFunction,Profile,NP*
%FSLAX46Y46*%
G04 Gerber Fmt 4.6, Leading zero omitted, Abs format (unit mm)*
G04 Created by KiCad (PCBNEW (5.1.5)-3) date 2020-04-04 11:24:52*
%MOMM*%
%LPD*%
G04 APERTURE LIST*
%ADD10C,0.050000*%
G04 APERTURE END LIST*
D10*
X126470000Y-49640000D02*
X126470000Y-52190000D01*
X60020000Y-52190000D02*
X60020000Y-49640000D01*
X126470000Y-49640000D02*
X60020000Y-49640000D01*
X60020000Y-140490000D02*
X126470000Y-140490000D01*
X60020000Y-55690000D02*
X60020000Y-134440000D01*
X60020000Y-140490000D02*
X60020000Y-137940000D01*
X126470000Y-137940000D02*
X126470000Y-140490000D01*
X126470000Y-134440000D02*
X126470000Y-55690000D01*
X63120000Y-55690000D02*
X60020000Y-55690000D01*
X63120000Y-52190000D02*
X60020000Y-52190000D01*
X63120000Y-134440000D02*
X60020000Y-134440000D01*
X63120000Y-137940000D02*
X60020000Y-137940000D01*
X123220000Y-137940000D02*
X126470000Y-137940000D01*
X123220000Y-134440000D02*
X126470000Y-134440000D01*
X123220000Y-55690000D02*
X126470000Y-55690000D01*
X123220000Y-52190000D02*
X126470000Y-52190000D01*
X123220000Y-55690000D02*
G75*
G02X123220000Y-52190000I0J1750000D01*
G01*
X123220000Y-137940000D02*
G75*
G02X123220000Y-134440000I0J1750000D01*
G01*
X63120000Y-134440000D02*
G75*
G02X63120000Y-137940000I0J-1750000D01*
G01*
X63120000Y-52190000D02*
G75*
G02X63120000Y-55690000I0J-1750000D01*
G01*
M02*
