G04 #@! TF.GenerationSoftware,KiCad,Pcbnew,(5.1.8)-1*
G04 #@! TF.CreationDate,2021-03-28T22:01:21+02:00*
G04 #@! TF.ProjectId,DMX2SGM,444d5832-5347-44d2-9e6b-696361645f70,0.2*
G04 #@! TF.SameCoordinates,Original*
G04 #@! TF.FileFunction,Legend,Top*
G04 #@! TF.FilePolarity,Positive*
%FSLAX46Y46*%
G04 Gerber Fmt 4.6, Leading zero omitted, Abs format (unit mm)*
G04 Created by KiCad (PCBNEW (5.1.8)-1) date 2021-03-28 22:01:21*
%MOMM*%
%LPD*%
G01*
G04 APERTURE LIST*
%ADD10C,0.240000*%
%ADD11C,0.300000*%
%ADD12C,0.150000*%
%ADD13C,0.120000*%
%ADD14C,0.500000*%
%ADD15C,0.250000*%
G04 APERTURE END LIST*
D10*
X101854000Y-87630000D02*
X111125000Y-87630000D01*
D11*
X68914285Y-52879523D02*
X69200000Y-52974761D01*
X69676190Y-52974761D01*
X69866666Y-52879523D01*
X69961904Y-52784285D01*
X70057142Y-52593809D01*
X70057142Y-52403333D01*
X69961904Y-52212857D01*
X69866666Y-52117619D01*
X69676190Y-52022380D01*
X69295238Y-51927142D01*
X69104761Y-51831904D01*
X69009523Y-51736666D01*
X68914285Y-51546190D01*
X68914285Y-51355714D01*
X69009523Y-51165238D01*
X69104761Y-51070000D01*
X69295238Y-50974761D01*
X69771428Y-50974761D01*
X70057142Y-51070000D01*
X71961904Y-51070000D02*
X71771428Y-50974761D01*
X71485714Y-50974761D01*
X71200000Y-51070000D01*
X71009523Y-51260476D01*
X70914285Y-51450952D01*
X70819047Y-51831904D01*
X70819047Y-52117619D01*
X70914285Y-52498571D01*
X71009523Y-52689047D01*
X71200000Y-52879523D01*
X71485714Y-52974761D01*
X71676190Y-52974761D01*
X71961904Y-52879523D01*
X72057142Y-52784285D01*
X72057142Y-52117619D01*
X71676190Y-52117619D01*
X72914285Y-52974761D02*
X72914285Y-50974761D01*
X73580952Y-52403333D01*
X74247619Y-50974761D01*
X74247619Y-52974761D01*
X75104761Y-51165238D02*
X75200000Y-51070000D01*
X75390476Y-50974761D01*
X75866666Y-50974761D01*
X76057142Y-51070000D01*
X76152380Y-51165238D01*
X76247619Y-51355714D01*
X76247619Y-51546190D01*
X76152380Y-51831904D01*
X75009523Y-52974761D01*
X76247619Y-52974761D01*
X79009523Y-50974761D02*
X79390476Y-50974761D01*
X79580952Y-51070000D01*
X79771428Y-51260476D01*
X79866666Y-51641428D01*
X79866666Y-52308095D01*
X79771428Y-52689047D01*
X79580952Y-52879523D01*
X79390476Y-52974761D01*
X79009523Y-52974761D01*
X78819047Y-52879523D01*
X78628571Y-52689047D01*
X78533333Y-52308095D01*
X78533333Y-51641428D01*
X78628571Y-51260476D01*
X78819047Y-51070000D01*
X79009523Y-50974761D01*
X80723809Y-50974761D02*
X80723809Y-52593809D01*
X80819047Y-52784285D01*
X80914285Y-52879523D01*
X81104761Y-52974761D01*
X81485714Y-52974761D01*
X81676190Y-52879523D01*
X81771428Y-52784285D01*
X81866666Y-52593809D01*
X81866666Y-50974761D01*
X82533333Y-50974761D02*
X83676190Y-50974761D01*
X83104761Y-52974761D02*
X83104761Y-50974761D01*
D10*
X91440000Y-94361000D02*
X91440000Y-99060000D01*
X106045000Y-95123000D02*
X111633000Y-95123000D01*
X93345000Y-69215000D02*
X93345000Y-77470000D01*
D12*
X68915595Y-125992380D02*
X68915595Y-124992380D01*
X68915595Y-125468571D02*
X69487023Y-125468571D01*
X69487023Y-125992380D02*
X69487023Y-124992380D01*
X69867976Y-124992380D02*
X70106071Y-125992380D01*
X70296547Y-125278095D01*
X70487023Y-125992380D01*
X70725119Y-124992380D01*
X72439404Y-125992380D02*
X72106071Y-125516190D01*
X71867976Y-125992380D02*
X71867976Y-124992380D01*
X72248928Y-124992380D01*
X72344166Y-125040000D01*
X72391785Y-125087619D01*
X72439404Y-125182857D01*
X72439404Y-125325714D01*
X72391785Y-125420952D01*
X72344166Y-125468571D01*
X72248928Y-125516190D01*
X71867976Y-125516190D01*
X72867976Y-125468571D02*
X73201309Y-125468571D01*
X73344166Y-125992380D02*
X72867976Y-125992380D01*
X72867976Y-124992380D01*
X73344166Y-124992380D01*
X73629880Y-124992380D02*
X73963214Y-125992380D01*
X74296547Y-124992380D01*
X74629880Y-125897142D02*
X74677500Y-125944761D01*
X74629880Y-125992380D01*
X74582261Y-125944761D01*
X74629880Y-125897142D01*
X74629880Y-125992380D01*
X74629880Y-125373333D02*
X74677500Y-125420952D01*
X74629880Y-125468571D01*
X74582261Y-125420952D01*
X74629880Y-125373333D01*
X74629880Y-125468571D01*
X75010833Y-124992380D02*
X75629880Y-124992380D01*
X75296547Y-125373333D01*
X75439404Y-125373333D01*
X75534642Y-125420952D01*
X75582261Y-125468571D01*
X75629880Y-125563809D01*
X75629880Y-125801904D01*
X75582261Y-125897142D01*
X75534642Y-125944761D01*
X75439404Y-125992380D01*
X75153690Y-125992380D01*
X75058452Y-125944761D01*
X75010833Y-125897142D01*
X76058452Y-125897142D02*
X76106071Y-125944761D01*
X76058452Y-125992380D01*
X76010833Y-125944761D01*
X76058452Y-125897142D01*
X76058452Y-125992380D01*
X76296547Y-126087619D02*
X77058452Y-126087619D01*
X68867976Y-127594761D02*
X69010833Y-127642380D01*
X69248928Y-127642380D01*
X69344166Y-127594761D01*
X69391785Y-127547142D01*
X69439404Y-127451904D01*
X69439404Y-127356666D01*
X69391785Y-127261428D01*
X69344166Y-127213809D01*
X69248928Y-127166190D01*
X69058452Y-127118571D01*
X68963214Y-127070952D01*
X68915595Y-127023333D01*
X68867976Y-126928095D01*
X68867976Y-126832857D01*
X68915595Y-126737619D01*
X68963214Y-126690000D01*
X69058452Y-126642380D01*
X69296547Y-126642380D01*
X69439404Y-126690000D01*
X69772738Y-126642380D02*
X70010833Y-127642380D01*
X70201309Y-126928095D01*
X70391785Y-127642380D01*
X70629880Y-126642380D01*
X72344166Y-127642380D02*
X72010833Y-127166190D01*
X71772738Y-127642380D02*
X71772738Y-126642380D01*
X72153690Y-126642380D01*
X72248928Y-126690000D01*
X72296547Y-126737619D01*
X72344166Y-126832857D01*
X72344166Y-126975714D01*
X72296547Y-127070952D01*
X72248928Y-127118571D01*
X72153690Y-127166190D01*
X71772738Y-127166190D01*
X72772738Y-127118571D02*
X73106071Y-127118571D01*
X73248928Y-127642380D02*
X72772738Y-127642380D01*
X72772738Y-126642380D01*
X73248928Y-126642380D01*
X73534642Y-126642380D02*
X73867976Y-127642380D01*
X74201309Y-126642380D01*
X74534642Y-127547142D02*
X74582261Y-127594761D01*
X74534642Y-127642380D01*
X74487023Y-127594761D01*
X74534642Y-127547142D01*
X74534642Y-127642380D01*
X74534642Y-127023333D02*
X74582261Y-127070952D01*
X74534642Y-127118571D01*
X74487023Y-127070952D01*
X74534642Y-127023333D01*
X74534642Y-127118571D01*
X74772738Y-127737619D02*
X75534642Y-127737619D01*
X75534642Y-127737619D02*
X76296547Y-127737619D01*
X76296547Y-127737619D02*
X77058452Y-127737619D01*
X77058452Y-127737619D02*
X77820357Y-127737619D01*
X108585000Y-74271142D02*
X108632619Y-74318761D01*
X108585000Y-74366380D01*
X108537380Y-74318761D01*
X108585000Y-74271142D01*
X108585000Y-74366380D01*
D13*
X101600000Y-86487000D02*
X101600000Y-73406000D01*
X109220000Y-86487000D02*
X101600000Y-86487000D01*
X109220000Y-73406000D02*
X109220000Y-86487000D01*
X101600000Y-73406000D02*
X109220000Y-73406000D01*
D12*
X114331904Y-68762619D02*
X114379523Y-68715000D01*
X114474761Y-68667380D01*
X114712857Y-68667380D01*
X114808095Y-68715000D01*
X114855714Y-68762619D01*
X114903333Y-68857857D01*
X114903333Y-68953095D01*
X114855714Y-69095952D01*
X114284285Y-69667380D01*
X114903333Y-69667380D01*
X115808095Y-68667380D02*
X115331904Y-68667380D01*
X115284285Y-69143571D01*
X115331904Y-69095952D01*
X115427142Y-69048333D01*
X115665238Y-69048333D01*
X115760476Y-69095952D01*
X115808095Y-69143571D01*
X115855714Y-69238809D01*
X115855714Y-69476904D01*
X115808095Y-69572142D01*
X115760476Y-69619761D01*
X115665238Y-69667380D01*
X115427142Y-69667380D01*
X115331904Y-69619761D01*
X115284285Y-69572142D01*
X116712857Y-68667380D02*
X116522380Y-68667380D01*
X116427142Y-68715000D01*
X116379523Y-68762619D01*
X116284285Y-68905476D01*
X116236666Y-69095952D01*
X116236666Y-69476904D01*
X116284285Y-69572142D01*
X116331904Y-69619761D01*
X116427142Y-69667380D01*
X116617619Y-69667380D01*
X116712857Y-69619761D01*
X116760476Y-69572142D01*
X116808095Y-69476904D01*
X116808095Y-69238809D01*
X116760476Y-69143571D01*
X116712857Y-69095952D01*
X116617619Y-69048333D01*
X116427142Y-69048333D01*
X116331904Y-69095952D01*
X116284285Y-69143571D01*
X116236666Y-69238809D01*
X114903333Y-72207380D02*
X114331904Y-72207380D01*
X114617619Y-72207380D02*
X114617619Y-71207380D01*
X114522380Y-71350238D01*
X114427142Y-71445476D01*
X114331904Y-71493095D01*
X115284285Y-71302619D02*
X115331904Y-71255000D01*
X115427142Y-71207380D01*
X115665238Y-71207380D01*
X115760476Y-71255000D01*
X115808095Y-71302619D01*
X115855714Y-71397857D01*
X115855714Y-71493095D01*
X115808095Y-71635952D01*
X115236666Y-72207380D01*
X115855714Y-72207380D01*
X116427142Y-71635952D02*
X116331904Y-71588333D01*
X116284285Y-71540714D01*
X116236666Y-71445476D01*
X116236666Y-71397857D01*
X116284285Y-71302619D01*
X116331904Y-71255000D01*
X116427142Y-71207380D01*
X116617619Y-71207380D01*
X116712857Y-71255000D01*
X116760476Y-71302619D01*
X116808095Y-71397857D01*
X116808095Y-71445476D01*
X116760476Y-71540714D01*
X116712857Y-71588333D01*
X116617619Y-71635952D01*
X116427142Y-71635952D01*
X116331904Y-71683571D01*
X116284285Y-71731190D01*
X116236666Y-71826428D01*
X116236666Y-72016904D01*
X116284285Y-72112142D01*
X116331904Y-72159761D01*
X116427142Y-72207380D01*
X116617619Y-72207380D01*
X116712857Y-72159761D01*
X116760476Y-72112142D01*
X116808095Y-72016904D01*
X116808095Y-71826428D01*
X116760476Y-71731190D01*
X116712857Y-71683571D01*
X116617619Y-71635952D01*
X115284285Y-73747380D02*
X115093809Y-73747380D01*
X114998571Y-73795000D01*
X114950952Y-73842619D01*
X114855714Y-73985476D01*
X114808095Y-74175952D01*
X114808095Y-74556904D01*
X114855714Y-74652142D01*
X114903333Y-74699761D01*
X114998571Y-74747380D01*
X115189047Y-74747380D01*
X115284285Y-74699761D01*
X115331904Y-74652142D01*
X115379523Y-74556904D01*
X115379523Y-74318809D01*
X115331904Y-74223571D01*
X115284285Y-74175952D01*
X115189047Y-74128333D01*
X114998571Y-74128333D01*
X114903333Y-74175952D01*
X114855714Y-74223571D01*
X114808095Y-74318809D01*
X116236666Y-74080714D02*
X116236666Y-74747380D01*
X115998571Y-73699761D02*
X115760476Y-74414047D01*
X116379523Y-74414047D01*
X114760476Y-76287380D02*
X115379523Y-76287380D01*
X115046190Y-76668333D01*
X115189047Y-76668333D01*
X115284285Y-76715952D01*
X115331904Y-76763571D01*
X115379523Y-76858809D01*
X115379523Y-77096904D01*
X115331904Y-77192142D01*
X115284285Y-77239761D01*
X115189047Y-77287380D01*
X114903333Y-77287380D01*
X114808095Y-77239761D01*
X114760476Y-77192142D01*
X115760476Y-76382619D02*
X115808095Y-76335000D01*
X115903333Y-76287380D01*
X116141428Y-76287380D01*
X116236666Y-76335000D01*
X116284285Y-76382619D01*
X116331904Y-76477857D01*
X116331904Y-76573095D01*
X116284285Y-76715952D01*
X115712857Y-77287380D01*
X116331904Y-77287380D01*
X115379523Y-79827380D02*
X114808095Y-79827380D01*
X115093809Y-79827380D02*
X115093809Y-78827380D01*
X114998571Y-78970238D01*
X114903333Y-79065476D01*
X114808095Y-79113095D01*
X116236666Y-78827380D02*
X116046190Y-78827380D01*
X115950952Y-78875000D01*
X115903333Y-78922619D01*
X115808095Y-79065476D01*
X115760476Y-79255952D01*
X115760476Y-79636904D01*
X115808095Y-79732142D01*
X115855714Y-79779761D01*
X115950952Y-79827380D01*
X116141428Y-79827380D01*
X116236666Y-79779761D01*
X116284285Y-79732142D01*
X116331904Y-79636904D01*
X116331904Y-79398809D01*
X116284285Y-79303571D01*
X116236666Y-79255952D01*
X116141428Y-79208333D01*
X115950952Y-79208333D01*
X115855714Y-79255952D01*
X115808095Y-79303571D01*
X115760476Y-79398809D01*
X115474761Y-81795952D02*
X115379523Y-81748333D01*
X115331904Y-81700714D01*
X115284285Y-81605476D01*
X115284285Y-81557857D01*
X115331904Y-81462619D01*
X115379523Y-81415000D01*
X115474761Y-81367380D01*
X115665238Y-81367380D01*
X115760476Y-81415000D01*
X115808095Y-81462619D01*
X115855714Y-81557857D01*
X115855714Y-81605476D01*
X115808095Y-81700714D01*
X115760476Y-81748333D01*
X115665238Y-81795952D01*
X115474761Y-81795952D01*
X115379523Y-81843571D01*
X115331904Y-81891190D01*
X115284285Y-81986428D01*
X115284285Y-82176904D01*
X115331904Y-82272142D01*
X115379523Y-82319761D01*
X115474761Y-82367380D01*
X115665238Y-82367380D01*
X115760476Y-82319761D01*
X115808095Y-82272142D01*
X115855714Y-82176904D01*
X115855714Y-81986428D01*
X115808095Y-81891190D01*
X115760476Y-81843571D01*
X115665238Y-81795952D01*
X115760476Y-84240714D02*
X115760476Y-84907380D01*
X115522380Y-83859761D02*
X115284285Y-84574047D01*
X115903333Y-84574047D01*
X115284285Y-86542619D02*
X115331904Y-86495000D01*
X115427142Y-86447380D01*
X115665238Y-86447380D01*
X115760476Y-86495000D01*
X115808095Y-86542619D01*
X115855714Y-86637857D01*
X115855714Y-86733095D01*
X115808095Y-86875952D01*
X115236666Y-87447380D01*
X115855714Y-87447380D01*
X115855714Y-89987380D02*
X115284285Y-89987380D01*
X115570000Y-89987380D02*
X115570000Y-88987380D01*
X115474761Y-89130238D01*
X115379523Y-89225476D01*
X115284285Y-89273095D01*
D14*
X69210000Y-136612142D02*
X69210000Y-133612142D01*
X69924285Y-133612142D01*
X70352857Y-133755000D01*
X70638571Y-134040714D01*
X70781428Y-134326428D01*
X70924285Y-134897857D01*
X70924285Y-135326428D01*
X70781428Y-135897857D01*
X70638571Y-136183571D01*
X70352857Y-136469285D01*
X69924285Y-136612142D01*
X69210000Y-136612142D01*
X72210000Y-136612142D02*
X72210000Y-133612142D01*
X73210000Y-135755000D01*
X74210000Y-133612142D01*
X74210000Y-136612142D01*
X75352857Y-133612142D02*
X77352857Y-136612142D01*
X77352857Y-133612142D02*
X75352857Y-136612142D01*
X79924285Y-133612142D02*
X78495714Y-133612142D01*
X78352857Y-135040714D01*
X78495714Y-134897857D01*
X78781428Y-134755000D01*
X79495714Y-134755000D01*
X79781428Y-134897857D01*
X79924285Y-135040714D01*
X80067142Y-135326428D01*
X80067142Y-136040714D01*
X79924285Y-136326428D01*
X79781428Y-136469285D01*
X79495714Y-136612142D01*
X78781428Y-136612142D01*
X78495714Y-136469285D01*
X78352857Y-136326428D01*
X82924285Y-136612142D02*
X81210000Y-136612142D01*
X82067142Y-136612142D02*
X82067142Y-133612142D01*
X81781428Y-134040714D01*
X81495714Y-134326428D01*
X81210000Y-134469285D01*
X84067142Y-133897857D02*
X84210000Y-133755000D01*
X84495714Y-133612142D01*
X85210000Y-133612142D01*
X85495714Y-133755000D01*
X85638571Y-133897857D01*
X85781428Y-134183571D01*
X85781428Y-134469285D01*
X85638571Y-134897857D01*
X83924285Y-136612142D01*
X85781428Y-136612142D01*
X87067142Y-135469285D02*
X89352857Y-135469285D01*
X90781428Y-134612142D02*
X93067142Y-135469285D01*
X90781428Y-136326428D01*
X94352857Y-133897857D02*
X94495714Y-133755000D01*
X94781428Y-133612142D01*
X95495714Y-133612142D01*
X95781428Y-133755000D01*
X95924285Y-133897857D01*
X96067142Y-134183571D01*
X96067142Y-134469285D01*
X95924285Y-134897857D01*
X94210000Y-136612142D01*
X96067142Y-136612142D01*
X97067142Y-136612142D02*
X98638571Y-134612142D01*
X97067142Y-134612142D02*
X98638571Y-136612142D01*
X99638571Y-136469285D02*
X100067142Y-136612142D01*
X100781428Y-136612142D01*
X101067142Y-136469285D01*
X101210000Y-136326428D01*
X101352857Y-136040714D01*
X101352857Y-135755000D01*
X101210000Y-135469285D01*
X101067142Y-135326428D01*
X100781428Y-135183571D01*
X100210000Y-135040714D01*
X99924285Y-134897857D01*
X99781428Y-134755000D01*
X99638571Y-134469285D01*
X99638571Y-134183571D01*
X99781428Y-133897857D01*
X99924285Y-133755000D01*
X100210000Y-133612142D01*
X100924285Y-133612142D01*
X101352857Y-133755000D01*
X104210000Y-133755000D02*
X103924285Y-133612142D01*
X103495714Y-133612142D01*
X103067142Y-133755000D01*
X102781428Y-134040714D01*
X102638571Y-134326428D01*
X102495714Y-134897857D01*
X102495714Y-135326428D01*
X102638571Y-135897857D01*
X102781428Y-136183571D01*
X103067142Y-136469285D01*
X103495714Y-136612142D01*
X103781428Y-136612142D01*
X104210000Y-136469285D01*
X104352857Y-136326428D01*
X104352857Y-135326428D01*
X103781428Y-135326428D01*
X105638571Y-136612142D02*
X105638571Y-133612142D01*
X106638571Y-135755000D01*
X107638571Y-133612142D01*
X107638571Y-136612142D01*
X108924285Y-133897857D02*
X109067142Y-133755000D01*
X109352857Y-133612142D01*
X110067142Y-133612142D01*
X110352857Y-133755000D01*
X110495714Y-133897857D01*
X110638571Y-134183571D01*
X110638571Y-134469285D01*
X110495714Y-134897857D01*
X108781428Y-136612142D01*
X110638571Y-136612142D01*
X113352857Y-133612142D02*
X111924285Y-133612142D01*
X111781428Y-135040714D01*
X111924285Y-134897857D01*
X112210000Y-134755000D01*
X112924285Y-134755000D01*
X113210000Y-134897857D01*
X113352857Y-135040714D01*
X113495714Y-135326428D01*
X113495714Y-136040714D01*
X113352857Y-136326428D01*
X113210000Y-136469285D01*
X112924285Y-136612142D01*
X112210000Y-136612142D01*
X111924285Y-136469285D01*
X111781428Y-136326428D01*
X116067142Y-133612142D02*
X115495714Y-133612142D01*
X115210000Y-133755000D01*
X115067142Y-133897857D01*
X114781428Y-134326428D01*
X114638571Y-134897857D01*
X114638571Y-136040714D01*
X114781428Y-136326428D01*
X114924285Y-136469285D01*
X115210000Y-136612142D01*
X115781428Y-136612142D01*
X116067142Y-136469285D01*
X116210000Y-136326428D01*
X116352857Y-136040714D01*
X116352857Y-135326428D01*
X116210000Y-135040714D01*
X116067142Y-134897857D01*
X115781428Y-134755000D01*
X115210000Y-134755000D01*
X114924285Y-134897857D01*
X114781428Y-135040714D01*
X114638571Y-135326428D01*
D11*
X93044285Y-52879523D02*
X93330000Y-52974761D01*
X93806190Y-52974761D01*
X93996666Y-52879523D01*
X94091904Y-52784285D01*
X94187142Y-52593809D01*
X94187142Y-52403333D01*
X94091904Y-52212857D01*
X93996666Y-52117619D01*
X93806190Y-52022380D01*
X93425238Y-51927142D01*
X93234761Y-51831904D01*
X93139523Y-51736666D01*
X93044285Y-51546190D01*
X93044285Y-51355714D01*
X93139523Y-51165238D01*
X93234761Y-51070000D01*
X93425238Y-50974761D01*
X93901428Y-50974761D01*
X94187142Y-51070000D01*
X96091904Y-51070000D02*
X95901428Y-50974761D01*
X95615714Y-50974761D01*
X95330000Y-51070000D01*
X95139523Y-51260476D01*
X95044285Y-51450952D01*
X94949047Y-51831904D01*
X94949047Y-52117619D01*
X95044285Y-52498571D01*
X95139523Y-52689047D01*
X95330000Y-52879523D01*
X95615714Y-52974761D01*
X95806190Y-52974761D01*
X96091904Y-52879523D01*
X96187142Y-52784285D01*
X96187142Y-52117619D01*
X95806190Y-52117619D01*
X97044285Y-52974761D02*
X97044285Y-50974761D01*
X97710952Y-52403333D01*
X98377619Y-50974761D01*
X98377619Y-52974761D01*
X100377619Y-52974761D02*
X99234761Y-52974761D01*
X99806190Y-52974761D02*
X99806190Y-50974761D01*
X99615714Y-51260476D01*
X99425238Y-51450952D01*
X99234761Y-51546190D01*
X103139523Y-50974761D02*
X103520476Y-50974761D01*
X103710952Y-51070000D01*
X103901428Y-51260476D01*
X103996666Y-51641428D01*
X103996666Y-52308095D01*
X103901428Y-52689047D01*
X103710952Y-52879523D01*
X103520476Y-52974761D01*
X103139523Y-52974761D01*
X102949047Y-52879523D01*
X102758571Y-52689047D01*
X102663333Y-52308095D01*
X102663333Y-51641428D01*
X102758571Y-51260476D01*
X102949047Y-51070000D01*
X103139523Y-50974761D01*
X104853809Y-50974761D02*
X104853809Y-52593809D01*
X104949047Y-52784285D01*
X105044285Y-52879523D01*
X105234761Y-52974761D01*
X105615714Y-52974761D01*
X105806190Y-52879523D01*
X105901428Y-52784285D01*
X105996666Y-52593809D01*
X105996666Y-50974761D01*
X106663333Y-50974761D02*
X107806190Y-50974761D01*
X107234761Y-52974761D02*
X107234761Y-50974761D01*
D13*
X125730000Y-104775000D02*
X124460000Y-104775000D01*
X123190000Y-104775000D02*
X121920000Y-104775000D01*
X120650000Y-104775000D02*
X119380000Y-104775000D01*
X118110000Y-104775000D02*
X116840000Y-104775000D01*
X115570000Y-104775000D02*
X114300000Y-104775000D01*
X113030000Y-104775000D02*
X111760000Y-104775000D01*
X110490000Y-104775000D02*
X109220000Y-104775000D01*
X107950000Y-104775000D02*
X106680000Y-104775000D01*
X105410000Y-104775000D02*
X104140000Y-104775000D01*
X102870000Y-104775000D02*
X101600000Y-104775000D01*
X100330000Y-104775000D02*
X99060000Y-104775000D01*
X97790000Y-104775000D02*
X96520000Y-104775000D01*
X95250000Y-104775000D02*
X93980000Y-104775000D01*
X92710000Y-104775000D02*
X91440000Y-104775000D01*
X90170000Y-104775000D02*
X88900000Y-104775000D01*
X87630000Y-104775000D02*
X86360000Y-104775000D01*
X85090000Y-104775000D02*
X83820000Y-104775000D01*
X82550000Y-104775000D02*
X81280000Y-104775000D01*
X80010000Y-104775000D02*
X78740000Y-104775000D01*
X77470000Y-104775000D02*
X76200000Y-104775000D01*
X74930000Y-104775000D02*
X73660000Y-104775000D01*
X72390000Y-104775000D02*
X71120000Y-104775000D01*
X69850000Y-104775000D02*
X68580000Y-104775000D01*
X67310000Y-104775000D02*
X66040000Y-104775000D01*
X64770000Y-104775000D02*
X63500000Y-104775000D01*
X62230000Y-104775000D02*
X60960000Y-104775000D01*
D15*
X76652857Y-54435000D02*
X76510000Y-54363571D01*
X76295714Y-54363571D01*
X76081428Y-54435000D01*
X75938571Y-54577857D01*
X75867142Y-54720714D01*
X75795714Y-55006428D01*
X75795714Y-55220714D01*
X75867142Y-55506428D01*
X75938571Y-55649285D01*
X76081428Y-55792142D01*
X76295714Y-55863571D01*
X76438571Y-55863571D01*
X76652857Y-55792142D01*
X76724285Y-55720714D01*
X76724285Y-55220714D01*
X76438571Y-55220714D01*
X73577142Y-54363571D02*
X73862857Y-54363571D01*
X74005714Y-54435000D01*
X74148571Y-54577857D01*
X74220000Y-54863571D01*
X74220000Y-55363571D01*
X74148571Y-55649285D01*
X74005714Y-55792142D01*
X73862857Y-55863571D01*
X73577142Y-55863571D01*
X73434285Y-55792142D01*
X73291428Y-55649285D01*
X73220000Y-55363571D01*
X73220000Y-54863571D01*
X73291428Y-54577857D01*
X73434285Y-54435000D01*
X73577142Y-54363571D01*
X78800000Y-55863571D02*
X78800000Y-54363571D01*
X102870000Y-55923571D02*
X102870000Y-54423571D01*
X97647142Y-54423571D02*
X97932857Y-54423571D01*
X98075714Y-54495000D01*
X98218571Y-54637857D01*
X98290000Y-54923571D01*
X98290000Y-55423571D01*
X98218571Y-55709285D01*
X98075714Y-55852142D01*
X97932857Y-55923571D01*
X97647142Y-55923571D01*
X97504285Y-55852142D01*
X97361428Y-55709285D01*
X97290000Y-55423571D01*
X97290000Y-54923571D01*
X97361428Y-54637857D01*
X97504285Y-54495000D01*
X97647142Y-54423571D01*
X100722857Y-54495000D02*
X100580000Y-54423571D01*
X100365714Y-54423571D01*
X100151428Y-54495000D01*
X100008571Y-54637857D01*
X99937142Y-54780714D01*
X99865714Y-55066428D01*
X99865714Y-55280714D01*
X99937142Y-55566428D01*
X100008571Y-55709285D01*
X100151428Y-55852142D01*
X100365714Y-55923571D01*
X100508571Y-55923571D01*
X100722857Y-55852142D01*
X100794285Y-55780714D01*
X100794285Y-55280714D01*
X100508571Y-55280714D01*
X101992857Y-120535000D02*
X101850000Y-120463571D01*
X101635714Y-120463571D01*
X101421428Y-120535000D01*
X101278571Y-120677857D01*
X101207142Y-120820714D01*
X101135714Y-121106428D01*
X101135714Y-121320714D01*
X101207142Y-121606428D01*
X101278571Y-121749285D01*
X101421428Y-121892142D01*
X101635714Y-121963571D01*
X101778571Y-121963571D01*
X101992857Y-121892142D01*
X102064285Y-121820714D01*
X102064285Y-121320714D01*
X101778571Y-121320714D01*
X101247142Y-123932142D02*
X102390000Y-123932142D01*
X104675714Y-125075000D02*
X104604285Y-125003571D01*
X104461428Y-124789285D01*
X104390000Y-124646428D01*
X104318571Y-124432142D01*
X104247142Y-124075000D01*
X104247142Y-123789285D01*
X104318571Y-123432142D01*
X104390000Y-123217857D01*
X104461428Y-123075000D01*
X104604285Y-122860714D01*
X104675714Y-122789285D01*
X105747142Y-123717857D02*
X105961428Y-123789285D01*
X106032857Y-123860714D01*
X106104285Y-124003571D01*
X106104285Y-124217857D01*
X106032857Y-124360714D01*
X105961428Y-124432142D01*
X105818571Y-124503571D01*
X105247142Y-124503571D01*
X105247142Y-123003571D01*
X105747142Y-123003571D01*
X105890000Y-123075000D01*
X105961428Y-123146428D01*
X106032857Y-123289285D01*
X106032857Y-123432142D01*
X105961428Y-123575000D01*
X105890000Y-123646428D01*
X105747142Y-123717857D01*
X105247142Y-123717857D01*
X106604285Y-125075000D02*
X106675714Y-125003571D01*
X106818571Y-124789285D01*
X106890000Y-124646428D01*
X106961428Y-124432142D01*
X107032857Y-124075000D01*
X107032857Y-123789285D01*
X106961428Y-123432142D01*
X106890000Y-123217857D01*
X106818571Y-123075000D01*
X106675714Y-122860714D01*
X106604285Y-122789285D01*
X101354285Y-126472142D02*
X102497142Y-126472142D01*
X101925714Y-127043571D02*
X101925714Y-125900714D01*
X104782857Y-127615000D02*
X104711428Y-127543571D01*
X104568571Y-127329285D01*
X104497142Y-127186428D01*
X104425714Y-126972142D01*
X104354285Y-126615000D01*
X104354285Y-126329285D01*
X104425714Y-125972142D01*
X104497142Y-125757857D01*
X104568571Y-125615000D01*
X104711428Y-125400714D01*
X104782857Y-125329285D01*
X105282857Y-126615000D02*
X105997142Y-126615000D01*
X105140000Y-127043571D02*
X105640000Y-125543571D01*
X106140000Y-127043571D01*
X106497142Y-127615000D02*
X106568571Y-127543571D01*
X106711428Y-127329285D01*
X106782857Y-127186428D01*
X106854285Y-126972142D01*
X106925714Y-126615000D01*
X106925714Y-126329285D01*
X106854285Y-125972142D01*
X106782857Y-125757857D01*
X106711428Y-125615000D01*
X106568571Y-125400714D01*
X106497142Y-125329285D01*
D11*
X92250238Y-131079761D02*
X92250238Y-129079761D01*
X92726428Y-129079761D01*
X93012142Y-129175000D01*
X93202619Y-129365476D01*
X93297857Y-129555952D01*
X93393095Y-129936904D01*
X93393095Y-130222619D01*
X93297857Y-130603571D01*
X93202619Y-130794047D01*
X93012142Y-130984523D01*
X92726428Y-131079761D01*
X92250238Y-131079761D01*
X94250238Y-131079761D02*
X94250238Y-129079761D01*
X94916904Y-130508333D01*
X95583571Y-129079761D01*
X95583571Y-131079761D01*
X96345476Y-129079761D02*
X97678809Y-131079761D01*
X97678809Y-129079761D02*
X96345476Y-131079761D01*
X99964523Y-131079761D02*
X99964523Y-129079761D01*
X100916904Y-131079761D02*
X100916904Y-129079761D01*
X102059761Y-131079761D01*
X102059761Y-129079761D01*
D13*
X83243000Y-86535000D02*
X86683000Y-86535000D01*
X86683000Y-86535000D02*
X86683000Y-77295000D01*
X86683000Y-77295000D02*
X83243000Y-77295000D01*
X83243000Y-77295000D02*
X83243000Y-86535000D01*
X84963000Y-87225000D02*
X84963000Y-86535000D01*
X84963000Y-76605000D02*
X84963000Y-77295000D01*
X92600000Y-60691000D02*
X92600000Y-64531000D01*
X92600000Y-64531000D02*
X100440000Y-64531000D01*
X100440000Y-64531000D02*
X100440000Y-60691000D01*
X100440000Y-60691000D02*
X92600000Y-60691000D01*
X91610000Y-62611000D02*
X92600000Y-62611000D01*
X101430000Y-62611000D02*
X100440000Y-62611000D01*
X93860000Y-60691000D02*
X93860000Y-64531000D01*
X93980000Y-60691000D02*
X93980000Y-64531000D01*
X93740000Y-60691000D02*
X93740000Y-64531000D01*
X97140000Y-82425000D02*
X97140000Y-88825000D01*
X92090000Y-82425000D02*
X92090000Y-88825000D01*
X92090000Y-88825000D02*
G75*
G03*
X97140000Y-88825000I2525000J0D01*
G01*
X92090000Y-82425000D02*
G75*
G02*
X97140000Y-82425000I2525000J0D01*
G01*
X77200000Y-91500000D02*
X78450000Y-91500000D01*
X78450000Y-91500000D02*
X78450000Y-73600000D01*
X78450000Y-73600000D02*
X73950000Y-73600000D01*
X73950000Y-73600000D02*
X73950000Y-91500000D01*
X73950000Y-91500000D02*
X75200000Y-91500000D01*
X81450000Y-91560000D02*
X81450000Y-73540000D01*
X81450000Y-73540000D02*
X70950000Y-73540000D01*
X70950000Y-73540000D02*
X70950000Y-91560000D01*
X70950000Y-91560000D02*
X81450000Y-91560000D01*
X75200000Y-91500000D02*
G75*
G02*
X77200000Y-91500000I1000000J0D01*
G01*
X69310000Y-74636000D02*
X69310000Y-84876000D01*
X64669000Y-74636000D02*
X64669000Y-84876000D01*
X69310000Y-74636000D02*
X64669000Y-74636000D01*
X69310000Y-84876000D02*
X64669000Y-84876000D01*
X67800000Y-74636000D02*
X67800000Y-84876000D01*
X69310000Y-77906000D02*
X67800000Y-77906000D01*
X69310000Y-81607000D02*
X67800000Y-81607000D01*
X66410000Y-88115000D02*
X63170000Y-88115000D01*
X66410000Y-85875000D02*
X63170000Y-85875000D01*
X66410000Y-88115000D02*
X66410000Y-88050000D01*
X66410000Y-85940000D02*
X66410000Y-85875000D01*
X63170000Y-88115000D02*
X63170000Y-88050000D01*
X63170000Y-85940000D02*
X63170000Y-85875000D01*
X68295000Y-89509000D02*
X68295000Y-88251000D01*
X70135000Y-89509000D02*
X70135000Y-88251000D01*
X68060000Y-92075000D02*
G75*
G03*
X68060000Y-92075000I-3270000J0D01*
G01*
X64790000Y-95305000D02*
X64790000Y-88845000D01*
X64750000Y-95305000D02*
X64750000Y-88845000D01*
X64710000Y-95305000D02*
X64710000Y-88845000D01*
X64670000Y-95303000D02*
X64670000Y-88847000D01*
X64630000Y-95302000D02*
X64630000Y-88848000D01*
X64590000Y-95299000D02*
X64590000Y-88851000D01*
X64550000Y-95297000D02*
X64550000Y-93115000D01*
X64550000Y-91035000D02*
X64550000Y-88853000D01*
X64510000Y-95293000D02*
X64510000Y-93115000D01*
X64510000Y-91035000D02*
X64510000Y-88857000D01*
X64470000Y-95290000D02*
X64470000Y-93115000D01*
X64470000Y-91035000D02*
X64470000Y-88860000D01*
X64430000Y-95286000D02*
X64430000Y-93115000D01*
X64430000Y-91035000D02*
X64430000Y-88864000D01*
X64390000Y-95281000D02*
X64390000Y-93115000D01*
X64390000Y-91035000D02*
X64390000Y-88869000D01*
X64350000Y-95276000D02*
X64350000Y-93115000D01*
X64350000Y-91035000D02*
X64350000Y-88874000D01*
X64310000Y-95270000D02*
X64310000Y-93115000D01*
X64310000Y-91035000D02*
X64310000Y-88880000D01*
X64270000Y-95264000D02*
X64270000Y-93115000D01*
X64270000Y-91035000D02*
X64270000Y-88886000D01*
X64230000Y-95257000D02*
X64230000Y-93115000D01*
X64230000Y-91035000D02*
X64230000Y-88893000D01*
X64190000Y-95250000D02*
X64190000Y-93115000D01*
X64190000Y-91035000D02*
X64190000Y-88900000D01*
X64150000Y-95242000D02*
X64150000Y-93115000D01*
X64150000Y-91035000D02*
X64150000Y-88908000D01*
X64110000Y-95234000D02*
X64110000Y-93115000D01*
X64110000Y-91035000D02*
X64110000Y-88916000D01*
X64069000Y-95225000D02*
X64069000Y-93115000D01*
X64069000Y-91035000D02*
X64069000Y-88925000D01*
X64029000Y-95216000D02*
X64029000Y-93115000D01*
X64029000Y-91035000D02*
X64029000Y-88934000D01*
X63989000Y-95206000D02*
X63989000Y-93115000D01*
X63989000Y-91035000D02*
X63989000Y-88944000D01*
X63949000Y-95196000D02*
X63949000Y-93115000D01*
X63949000Y-91035000D02*
X63949000Y-88954000D01*
X63909000Y-95185000D02*
X63909000Y-93115000D01*
X63909000Y-91035000D02*
X63909000Y-88965000D01*
X63869000Y-95173000D02*
X63869000Y-93115000D01*
X63869000Y-91035000D02*
X63869000Y-88977000D01*
X63829000Y-95161000D02*
X63829000Y-93115000D01*
X63829000Y-91035000D02*
X63829000Y-88989000D01*
X63789000Y-95149000D02*
X63789000Y-93115000D01*
X63789000Y-91035000D02*
X63789000Y-89001000D01*
X63749000Y-95136000D02*
X63749000Y-93115000D01*
X63749000Y-91035000D02*
X63749000Y-89014000D01*
X63709000Y-95122000D02*
X63709000Y-93115000D01*
X63709000Y-91035000D02*
X63709000Y-89028000D01*
X63669000Y-95108000D02*
X63669000Y-93115000D01*
X63669000Y-91035000D02*
X63669000Y-89042000D01*
X63629000Y-95093000D02*
X63629000Y-93115000D01*
X63629000Y-91035000D02*
X63629000Y-89057000D01*
X63589000Y-95077000D02*
X63589000Y-93115000D01*
X63589000Y-91035000D02*
X63589000Y-89073000D01*
X63549000Y-95061000D02*
X63549000Y-93115000D01*
X63549000Y-91035000D02*
X63549000Y-89089000D01*
X63509000Y-95045000D02*
X63509000Y-93115000D01*
X63509000Y-91035000D02*
X63509000Y-89105000D01*
X63469000Y-95027000D02*
X63469000Y-93115000D01*
X63469000Y-91035000D02*
X63469000Y-89123000D01*
X63429000Y-95009000D02*
X63429000Y-93115000D01*
X63429000Y-91035000D02*
X63429000Y-89141000D01*
X63389000Y-94991000D02*
X63389000Y-93115000D01*
X63389000Y-91035000D02*
X63389000Y-89159000D01*
X63349000Y-94971000D02*
X63349000Y-93115000D01*
X63349000Y-91035000D02*
X63349000Y-89179000D01*
X63309000Y-94951000D02*
X63309000Y-93115000D01*
X63309000Y-91035000D02*
X63309000Y-89199000D01*
X63269000Y-94931000D02*
X63269000Y-93115000D01*
X63269000Y-91035000D02*
X63269000Y-89219000D01*
X63229000Y-94909000D02*
X63229000Y-93115000D01*
X63229000Y-91035000D02*
X63229000Y-89241000D01*
X63189000Y-94887000D02*
X63189000Y-93115000D01*
X63189000Y-91035000D02*
X63189000Y-89263000D01*
X63149000Y-94865000D02*
X63149000Y-93115000D01*
X63149000Y-91035000D02*
X63149000Y-89285000D01*
X63109000Y-94841000D02*
X63109000Y-93115000D01*
X63109000Y-91035000D02*
X63109000Y-89309000D01*
X63069000Y-94817000D02*
X63069000Y-93115000D01*
X63069000Y-91035000D02*
X63069000Y-89333000D01*
X63029000Y-94791000D02*
X63029000Y-93115000D01*
X63029000Y-91035000D02*
X63029000Y-89359000D01*
X62989000Y-94765000D02*
X62989000Y-93115000D01*
X62989000Y-91035000D02*
X62989000Y-89385000D01*
X62949000Y-94739000D02*
X62949000Y-93115000D01*
X62949000Y-91035000D02*
X62949000Y-89411000D01*
X62909000Y-94711000D02*
X62909000Y-93115000D01*
X62909000Y-91035000D02*
X62909000Y-89439000D01*
X62869000Y-94682000D02*
X62869000Y-93115000D01*
X62869000Y-91035000D02*
X62869000Y-89468000D01*
X62829000Y-94653000D02*
X62829000Y-93115000D01*
X62829000Y-91035000D02*
X62829000Y-89497000D01*
X62789000Y-94623000D02*
X62789000Y-93115000D01*
X62789000Y-91035000D02*
X62789000Y-89527000D01*
X62749000Y-94591000D02*
X62749000Y-93115000D01*
X62749000Y-91035000D02*
X62749000Y-89559000D01*
X62709000Y-94559000D02*
X62709000Y-93115000D01*
X62709000Y-91035000D02*
X62709000Y-89591000D01*
X62669000Y-94525000D02*
X62669000Y-93115000D01*
X62669000Y-91035000D02*
X62669000Y-89625000D01*
X62629000Y-94491000D02*
X62629000Y-93115000D01*
X62629000Y-91035000D02*
X62629000Y-89659000D01*
X62589000Y-94455000D02*
X62589000Y-93115000D01*
X62589000Y-91035000D02*
X62589000Y-89695000D01*
X62549000Y-94418000D02*
X62549000Y-93115000D01*
X62549000Y-91035000D02*
X62549000Y-89732000D01*
X62509000Y-94380000D02*
X62509000Y-93115000D01*
X62509000Y-91035000D02*
X62509000Y-89770000D01*
X62469000Y-94340000D02*
X62469000Y-89810000D01*
X62429000Y-94299000D02*
X62429000Y-89851000D01*
X62389000Y-94257000D02*
X62389000Y-89893000D01*
X62349000Y-94212000D02*
X62349000Y-89938000D01*
X62309000Y-94167000D02*
X62309000Y-89983000D01*
X62269000Y-94119000D02*
X62269000Y-90031000D01*
X62229000Y-94070000D02*
X62229000Y-90080000D01*
X62189000Y-94019000D02*
X62189000Y-90131000D01*
X62149000Y-93965000D02*
X62149000Y-90185000D01*
X62109000Y-93909000D02*
X62109000Y-90241000D01*
X62069000Y-93851000D02*
X62069000Y-90299000D01*
X62029000Y-93789000D02*
X62029000Y-90361000D01*
X61989000Y-93725000D02*
X61989000Y-90425000D01*
X61949000Y-93656000D02*
X61949000Y-90494000D01*
X61909000Y-93584000D02*
X61909000Y-90566000D01*
X61869000Y-93507000D02*
X61869000Y-90643000D01*
X61829000Y-93425000D02*
X61829000Y-90725000D01*
X61789000Y-93337000D02*
X61789000Y-90813000D01*
X61749000Y-93240000D02*
X61749000Y-90910000D01*
X61709000Y-93134000D02*
X61709000Y-91016000D01*
X61669000Y-93015000D02*
X61669000Y-91135000D01*
X61629000Y-92877000D02*
X61629000Y-91273000D01*
X61589000Y-92708000D02*
X61589000Y-91442000D01*
X61549000Y-92477000D02*
X61549000Y-91673000D01*
X68290241Y-93914000D02*
X67660241Y-93914000D01*
X67975241Y-94229000D02*
X67975241Y-93599000D01*
X65419000Y-73945000D02*
X64161000Y-73945000D01*
X65419000Y-72105000D02*
X64161000Y-72105000D01*
X68060000Y-68453000D02*
G75*
G03*
X68060000Y-68453000I-3270000J0D01*
G01*
X64790000Y-71683000D02*
X64790000Y-65223000D01*
X64750000Y-71683000D02*
X64750000Y-65223000D01*
X64710000Y-71683000D02*
X64710000Y-65223000D01*
X64670000Y-71681000D02*
X64670000Y-65225000D01*
X64630000Y-71680000D02*
X64630000Y-65226000D01*
X64590000Y-71677000D02*
X64590000Y-65229000D01*
X64550000Y-71675000D02*
X64550000Y-69493000D01*
X64550000Y-67413000D02*
X64550000Y-65231000D01*
X64510000Y-71671000D02*
X64510000Y-69493000D01*
X64510000Y-67413000D02*
X64510000Y-65235000D01*
X64470000Y-71668000D02*
X64470000Y-69493000D01*
X64470000Y-67413000D02*
X64470000Y-65238000D01*
X64430000Y-71664000D02*
X64430000Y-69493000D01*
X64430000Y-67413000D02*
X64430000Y-65242000D01*
X64390000Y-71659000D02*
X64390000Y-69493000D01*
X64390000Y-67413000D02*
X64390000Y-65247000D01*
X64350000Y-71654000D02*
X64350000Y-69493000D01*
X64350000Y-67413000D02*
X64350000Y-65252000D01*
X64310000Y-71648000D02*
X64310000Y-69493000D01*
X64310000Y-67413000D02*
X64310000Y-65258000D01*
X64270000Y-71642000D02*
X64270000Y-69493000D01*
X64270000Y-67413000D02*
X64270000Y-65264000D01*
X64230000Y-71635000D02*
X64230000Y-69493000D01*
X64230000Y-67413000D02*
X64230000Y-65271000D01*
X64190000Y-71628000D02*
X64190000Y-69493000D01*
X64190000Y-67413000D02*
X64190000Y-65278000D01*
X64150000Y-71620000D02*
X64150000Y-69493000D01*
X64150000Y-67413000D02*
X64150000Y-65286000D01*
X64110000Y-71612000D02*
X64110000Y-69493000D01*
X64110000Y-67413000D02*
X64110000Y-65294000D01*
X64069000Y-71603000D02*
X64069000Y-69493000D01*
X64069000Y-67413000D02*
X64069000Y-65303000D01*
X64029000Y-71594000D02*
X64029000Y-69493000D01*
X64029000Y-67413000D02*
X64029000Y-65312000D01*
X63989000Y-71584000D02*
X63989000Y-69493000D01*
X63989000Y-67413000D02*
X63989000Y-65322000D01*
X63949000Y-71574000D02*
X63949000Y-69493000D01*
X63949000Y-67413000D02*
X63949000Y-65332000D01*
X63909000Y-71563000D02*
X63909000Y-69493000D01*
X63909000Y-67413000D02*
X63909000Y-65343000D01*
X63869000Y-71551000D02*
X63869000Y-69493000D01*
X63869000Y-67413000D02*
X63869000Y-65355000D01*
X63829000Y-71539000D02*
X63829000Y-69493000D01*
X63829000Y-67413000D02*
X63829000Y-65367000D01*
X63789000Y-71527000D02*
X63789000Y-69493000D01*
X63789000Y-67413000D02*
X63789000Y-65379000D01*
X63749000Y-71514000D02*
X63749000Y-69493000D01*
X63749000Y-67413000D02*
X63749000Y-65392000D01*
X63709000Y-71500000D02*
X63709000Y-69493000D01*
X63709000Y-67413000D02*
X63709000Y-65406000D01*
X63669000Y-71486000D02*
X63669000Y-69493000D01*
X63669000Y-67413000D02*
X63669000Y-65420000D01*
X63629000Y-71471000D02*
X63629000Y-69493000D01*
X63629000Y-67413000D02*
X63629000Y-65435000D01*
X63589000Y-71455000D02*
X63589000Y-69493000D01*
X63589000Y-67413000D02*
X63589000Y-65451000D01*
X63549000Y-71439000D02*
X63549000Y-69493000D01*
X63549000Y-67413000D02*
X63549000Y-65467000D01*
X63509000Y-71423000D02*
X63509000Y-69493000D01*
X63509000Y-67413000D02*
X63509000Y-65483000D01*
X63469000Y-71405000D02*
X63469000Y-69493000D01*
X63469000Y-67413000D02*
X63469000Y-65501000D01*
X63429000Y-71387000D02*
X63429000Y-69493000D01*
X63429000Y-67413000D02*
X63429000Y-65519000D01*
X63389000Y-71369000D02*
X63389000Y-69493000D01*
X63389000Y-67413000D02*
X63389000Y-65537000D01*
X63349000Y-71349000D02*
X63349000Y-69493000D01*
X63349000Y-67413000D02*
X63349000Y-65557000D01*
X63309000Y-71329000D02*
X63309000Y-69493000D01*
X63309000Y-67413000D02*
X63309000Y-65577000D01*
X63269000Y-71309000D02*
X63269000Y-69493000D01*
X63269000Y-67413000D02*
X63269000Y-65597000D01*
X63229000Y-71287000D02*
X63229000Y-69493000D01*
X63229000Y-67413000D02*
X63229000Y-65619000D01*
X63189000Y-71265000D02*
X63189000Y-69493000D01*
X63189000Y-67413000D02*
X63189000Y-65641000D01*
X63149000Y-71243000D02*
X63149000Y-69493000D01*
X63149000Y-67413000D02*
X63149000Y-65663000D01*
X63109000Y-71219000D02*
X63109000Y-69493000D01*
X63109000Y-67413000D02*
X63109000Y-65687000D01*
X63069000Y-71195000D02*
X63069000Y-69493000D01*
X63069000Y-67413000D02*
X63069000Y-65711000D01*
X63029000Y-71169000D02*
X63029000Y-69493000D01*
X63029000Y-67413000D02*
X63029000Y-65737000D01*
X62989000Y-71143000D02*
X62989000Y-69493000D01*
X62989000Y-67413000D02*
X62989000Y-65763000D01*
X62949000Y-71117000D02*
X62949000Y-69493000D01*
X62949000Y-67413000D02*
X62949000Y-65789000D01*
X62909000Y-71089000D02*
X62909000Y-69493000D01*
X62909000Y-67413000D02*
X62909000Y-65817000D01*
X62869000Y-71060000D02*
X62869000Y-69493000D01*
X62869000Y-67413000D02*
X62869000Y-65846000D01*
X62829000Y-71031000D02*
X62829000Y-69493000D01*
X62829000Y-67413000D02*
X62829000Y-65875000D01*
X62789000Y-71001000D02*
X62789000Y-69493000D01*
X62789000Y-67413000D02*
X62789000Y-65905000D01*
X62749000Y-70969000D02*
X62749000Y-69493000D01*
X62749000Y-67413000D02*
X62749000Y-65937000D01*
X62709000Y-70937000D02*
X62709000Y-69493000D01*
X62709000Y-67413000D02*
X62709000Y-65969000D01*
X62669000Y-70903000D02*
X62669000Y-69493000D01*
X62669000Y-67413000D02*
X62669000Y-66003000D01*
X62629000Y-70869000D02*
X62629000Y-69493000D01*
X62629000Y-67413000D02*
X62629000Y-66037000D01*
X62589000Y-70833000D02*
X62589000Y-69493000D01*
X62589000Y-67413000D02*
X62589000Y-66073000D01*
X62549000Y-70796000D02*
X62549000Y-69493000D01*
X62549000Y-67413000D02*
X62549000Y-66110000D01*
X62509000Y-70758000D02*
X62509000Y-69493000D01*
X62509000Y-67413000D02*
X62509000Y-66148000D01*
X62469000Y-70718000D02*
X62469000Y-66188000D01*
X62429000Y-70677000D02*
X62429000Y-66229000D01*
X62389000Y-70635000D02*
X62389000Y-66271000D01*
X62349000Y-70590000D02*
X62349000Y-66316000D01*
X62309000Y-70545000D02*
X62309000Y-66361000D01*
X62269000Y-70497000D02*
X62269000Y-66409000D01*
X62229000Y-70448000D02*
X62229000Y-66458000D01*
X62189000Y-70397000D02*
X62189000Y-66509000D01*
X62149000Y-70343000D02*
X62149000Y-66563000D01*
X62109000Y-70287000D02*
X62109000Y-66619000D01*
X62069000Y-70229000D02*
X62069000Y-66677000D01*
X62029000Y-70167000D02*
X62029000Y-66739000D01*
X61989000Y-70103000D02*
X61989000Y-66803000D01*
X61949000Y-70034000D02*
X61949000Y-66872000D01*
X61909000Y-69962000D02*
X61909000Y-66944000D01*
X61869000Y-69885000D02*
X61869000Y-67021000D01*
X61829000Y-69803000D02*
X61829000Y-67103000D01*
X61789000Y-69715000D02*
X61789000Y-67191000D01*
X61749000Y-69618000D02*
X61749000Y-67288000D01*
X61709000Y-69512000D02*
X61709000Y-67394000D01*
X61669000Y-69393000D02*
X61669000Y-67513000D01*
X61629000Y-69255000D02*
X61629000Y-67651000D01*
X61589000Y-69086000D02*
X61589000Y-67820000D01*
X61549000Y-68855000D02*
X61549000Y-68051000D01*
X68290241Y-70292000D02*
X67660241Y-70292000D01*
X67975241Y-70607000D02*
X67975241Y-69977000D01*
X105985000Y-105775000D02*
X105985000Y-107025000D01*
X105985000Y-107025000D02*
X116265000Y-107025000D01*
X116265000Y-107025000D02*
X116265000Y-102525000D01*
X116265000Y-102525000D02*
X105985000Y-102525000D01*
X105985000Y-102525000D02*
X105985000Y-103775000D01*
X105925000Y-110025000D02*
X116325000Y-110025000D01*
X116325000Y-110025000D02*
X116325000Y-99525000D01*
X116325000Y-99525000D02*
X105925000Y-99525000D01*
X105925000Y-99525000D02*
X105925000Y-110025000D01*
X105985000Y-103775000D02*
G75*
G02*
X105985000Y-105775000I0J-1000000D01*
G01*
X92135000Y-115205000D02*
X92135000Y-113955000D01*
X92135000Y-113955000D02*
X81855000Y-113955000D01*
X81855000Y-113955000D02*
X81855000Y-118455000D01*
X81855000Y-118455000D02*
X92135000Y-118455000D01*
X92135000Y-118455000D02*
X92135000Y-117205000D01*
X92195000Y-110955000D02*
X81795000Y-110955000D01*
X81795000Y-110955000D02*
X81795000Y-121455000D01*
X81795000Y-121455000D02*
X92195000Y-121455000D01*
X92195000Y-121455000D02*
X92195000Y-110955000D01*
X92135000Y-117205000D02*
G75*
G02*
X92135000Y-115205000I0J1000000D01*
G01*
D12*
X71310000Y-65294000D02*
X71310000Y-72294000D01*
X74710000Y-65294000D02*
X74710000Y-72294000D01*
X74710000Y-72294000D02*
X71310000Y-72294000D01*
X74710000Y-65294000D02*
X71310000Y-65294000D01*
X81470000Y-65294000D02*
X81470000Y-72294000D01*
X84870000Y-65294000D02*
X84870000Y-72294000D01*
X84870000Y-72294000D02*
X81470000Y-72294000D01*
X84870000Y-65294000D02*
X81470000Y-65294000D01*
D13*
X74120000Y-92260000D02*
X74120000Y-95700000D01*
X74120000Y-95700000D02*
X83360000Y-95700000D01*
X83360000Y-95700000D02*
X83360000Y-92260000D01*
X83360000Y-92260000D02*
X74120000Y-92260000D01*
X73430000Y-93980000D02*
X74120000Y-93980000D01*
X84050000Y-93980000D02*
X83360000Y-93980000D01*
X110665000Y-114115000D02*
X110665000Y-110675000D01*
X110665000Y-110675000D02*
X101425000Y-110675000D01*
X101425000Y-110675000D02*
X101425000Y-114115000D01*
X101425000Y-114115000D02*
X110665000Y-114115000D01*
X111355000Y-112395000D02*
X110665000Y-112395000D01*
X100735000Y-112395000D02*
X101425000Y-112395000D01*
X98240000Y-67516000D02*
X94800000Y-67516000D01*
X94800000Y-67516000D02*
X94800000Y-76756000D01*
X94800000Y-76756000D02*
X98240000Y-76756000D01*
X98240000Y-76756000D02*
X98240000Y-67516000D01*
X96520000Y-66826000D02*
X96520000Y-67516000D01*
X96520000Y-77446000D02*
X96520000Y-76756000D01*
X96345000Y-95816000D02*
X96345000Y-99256000D01*
X96345000Y-99256000D02*
X105585000Y-99256000D01*
X105585000Y-99256000D02*
X105585000Y-95816000D01*
X105585000Y-95816000D02*
X96345000Y-95816000D01*
X95655000Y-97536000D02*
X96345000Y-97536000D01*
X106275000Y-97536000D02*
X105585000Y-97536000D01*
X80070000Y-59750000D02*
X80070000Y-57090000D01*
X74930000Y-59750000D02*
X80070000Y-59750000D01*
X74930000Y-57090000D02*
X80070000Y-57090000D01*
X74930000Y-59750000D02*
X74930000Y-57090000D01*
X73660000Y-59750000D02*
X72330000Y-59750000D01*
X72330000Y-59750000D02*
X72330000Y-58420000D01*
X104200000Y-59750000D02*
X104200000Y-57090000D01*
X99060000Y-59750000D02*
X104200000Y-59750000D01*
X99060000Y-57090000D02*
X104200000Y-57090000D01*
X99060000Y-59750000D02*
X99060000Y-57090000D01*
X97790000Y-59750000D02*
X96460000Y-59750000D01*
X96460000Y-59750000D02*
X96460000Y-58420000D01*
X97730000Y-127695000D02*
X100390000Y-127695000D01*
X97730000Y-122555000D02*
X97730000Y-127695000D01*
X100390000Y-122555000D02*
X100390000Y-127695000D01*
X97730000Y-122555000D02*
X100390000Y-122555000D01*
X97730000Y-121285000D02*
X97730000Y-119955000D01*
X97730000Y-119955000D02*
X99060000Y-119955000D01*
X93920000Y-127695000D02*
X96580000Y-127695000D01*
X93920000Y-122555000D02*
X93920000Y-127695000D01*
X96580000Y-122555000D02*
X96580000Y-127695000D01*
X93920000Y-122555000D02*
X96580000Y-122555000D01*
X93920000Y-121285000D02*
X93920000Y-119955000D01*
X93920000Y-119955000D02*
X95250000Y-119955000D01*
X101540000Y-88840000D02*
X101540000Y-94040000D01*
X106680000Y-88840000D02*
X101540000Y-88840000D01*
X109280000Y-94040000D02*
X101540000Y-94040000D01*
X106680000Y-88840000D02*
X106680000Y-91440000D01*
X106680000Y-91440000D02*
X109280000Y-91440000D01*
X109280000Y-91440000D02*
X109280000Y-94040000D01*
X107950000Y-88840000D02*
X109280000Y-88840000D01*
X109280000Y-88840000D02*
X109280000Y-90170000D01*
X68470000Y-60691000D02*
X68470000Y-64531000D01*
X68470000Y-64531000D02*
X76310000Y-64531000D01*
X76310000Y-64531000D02*
X76310000Y-60691000D01*
X76310000Y-60691000D02*
X68470000Y-60691000D01*
X67480000Y-62611000D02*
X68470000Y-62611000D01*
X77300000Y-62611000D02*
X76310000Y-62611000D01*
X69730000Y-60691000D02*
X69730000Y-64531000D01*
X69850000Y-60691000D02*
X69850000Y-64531000D01*
X69610000Y-60691000D02*
X69610000Y-64531000D01*
X123785000Y-97155000D02*
G75*
G03*
X123785000Y-97155000I-2500000J0D01*
G01*
X122830000Y-94595000D02*
X119740000Y-94595000D01*
X121285462Y-100145000D02*
G75*
G02*
X119740170Y-94595000I-462J2990000D01*
G01*
X121284538Y-100145000D02*
G75*
G03*
X122829830Y-94595000I462J2990000D01*
G01*
X89845000Y-82564000D02*
X89845000Y-81306000D01*
X91685000Y-82564000D02*
X91685000Y-81306000D01*
X80930000Y-115556000D02*
X80930000Y-116814000D01*
X79090000Y-115556000D02*
X79090000Y-116814000D01*
X89845000Y-89944000D02*
X89845000Y-88686000D01*
X91685000Y-89944000D02*
X91685000Y-88686000D01*
X99726000Y-88251000D02*
X99726000Y-89509000D01*
X97886000Y-88251000D02*
X97886000Y-89509000D01*
X119507000Y-87376000D02*
X120523000Y-87376000D01*
X120523000Y-86614000D02*
X119507000Y-86614000D01*
X120523000Y-89154000D02*
X119507000Y-89154000D01*
X119507000Y-89916000D02*
X120523000Y-89916000D01*
X120523000Y-84074000D02*
X119507000Y-84074000D01*
X119507000Y-84836000D02*
X120523000Y-84836000D01*
X120523000Y-81534000D02*
X119507000Y-81534000D01*
X119507000Y-82296000D02*
X120523000Y-82296000D01*
X120523000Y-78994000D02*
X119507000Y-78994000D01*
X119507000Y-79756000D02*
X120523000Y-79756000D01*
X120523000Y-76454000D02*
X119507000Y-76454000D01*
X119507000Y-77216000D02*
X120523000Y-77216000D01*
X120523000Y-73914000D02*
X119507000Y-73914000D01*
X119507000Y-74676000D02*
X120523000Y-74676000D01*
X120523000Y-71374000D02*
X119507000Y-71374000D01*
X119507000Y-72136000D02*
X120523000Y-72136000D01*
X120523000Y-68834000D02*
X119507000Y-68834000D01*
X119507000Y-69596000D02*
X120523000Y-69596000D01*
X128600200Y-66954400D02*
X128600200Y-91846400D01*
X121869200Y-66954400D02*
X121869200Y-67716400D01*
X121869200Y-67716400D02*
X122631200Y-67716400D01*
X122631200Y-91084400D02*
X121869200Y-91084400D01*
X121869200Y-91846400D02*
X121869200Y-91084400D01*
X122631200Y-91084400D02*
X122631200Y-67716400D01*
X122047000Y-69596000D02*
X122631200Y-69596000D01*
X122631200Y-68834000D02*
X122047000Y-68834000D01*
X122631200Y-71374000D02*
X122047000Y-71374000D01*
X122047000Y-72136000D02*
X122631200Y-72136000D01*
X122631200Y-73914000D02*
X122047000Y-73914000D01*
X122047000Y-74676000D02*
X122631200Y-74676000D01*
X122631200Y-76454000D02*
X122047000Y-76454000D01*
X122047000Y-77216000D02*
X122631200Y-77216000D01*
X122631200Y-78994000D02*
X122047000Y-78994000D01*
X122047000Y-79756000D02*
X122631200Y-79756000D01*
X122631200Y-81534000D02*
X122047000Y-81534000D01*
X122047000Y-82296000D02*
X122631200Y-82296000D01*
X122631200Y-84074000D02*
X122047000Y-84074000D01*
X122047000Y-84836000D02*
X122631200Y-84836000D01*
X122631200Y-86614000D02*
X122047000Y-86614000D01*
X122047000Y-87376000D02*
X122631200Y-87376000D01*
X122631200Y-89154000D02*
X122047000Y-89154000D01*
X122047000Y-89916000D02*
X122631200Y-89916000D01*
X123393200Y-67716400D02*
X123393200Y-66954400D01*
X122631200Y-67716400D02*
X123393200Y-67716400D01*
X123393200Y-91846400D02*
X123393200Y-91084400D01*
X122631200Y-91084400D02*
X123393200Y-91084400D01*
X129413000Y-68453000D02*
X129413000Y-70002400D01*
X129413000Y-70002400D02*
X128600200Y-70002400D01*
X129413000Y-68453000D02*
X128600200Y-68453000D01*
X129413000Y-70993000D02*
X128600200Y-70993000D01*
X129413000Y-72542400D02*
X128600200Y-72542400D01*
X129413000Y-70993000D02*
X129413000Y-72542400D01*
X129413000Y-73533000D02*
X128600200Y-73533000D01*
X129413000Y-75082400D02*
X128600200Y-75082400D01*
X129413000Y-73533000D02*
X129413000Y-75082400D01*
X129413000Y-76073000D02*
X128600200Y-76073000D01*
X129413000Y-77622400D02*
X128600200Y-77622400D01*
X129413000Y-76073000D02*
X129413000Y-77622400D01*
X129413000Y-78613000D02*
X128600200Y-78613000D01*
X129413000Y-80162400D02*
X128600200Y-80162400D01*
X129413000Y-78613000D02*
X129413000Y-80162400D01*
X129413000Y-81153000D02*
X128600200Y-81153000D01*
X129413000Y-82702400D02*
X128600200Y-82702400D01*
X129413000Y-81153000D02*
X129413000Y-82702400D01*
X129413000Y-83693000D02*
X128600200Y-83693000D01*
X129413000Y-85242400D02*
X128600200Y-85242400D01*
X129413000Y-83693000D02*
X129413000Y-85242400D01*
X129413000Y-86233000D02*
X128600200Y-86233000D01*
X129413000Y-87782400D02*
X128600200Y-87782400D01*
X129413000Y-86233000D02*
X129413000Y-87782400D01*
X129413000Y-88773000D02*
X128600200Y-88773000D01*
X129413000Y-90322400D02*
X128600200Y-90322400D01*
X129413000Y-88773000D02*
X129413000Y-90322400D01*
X121869200Y-91846400D02*
X128600200Y-91846400D01*
X128600200Y-66954400D02*
X121869200Y-66954400D01*
D11*
X65405000Y-97155000D02*
X73025000Y-97155000D01*
X65405000Y-117475000D02*
X65405000Y-97155000D01*
X73025000Y-117475000D02*
X65405000Y-117475000D01*
X73025000Y-97155000D02*
X73025000Y-117475000D01*
D12*
X87717333Y-78811380D02*
X87384000Y-78335190D01*
X87145904Y-78811380D02*
X87145904Y-77811380D01*
X87526857Y-77811380D01*
X87622095Y-77859000D01*
X87669714Y-77906619D01*
X87717333Y-78001857D01*
X87717333Y-78144714D01*
X87669714Y-78239952D01*
X87622095Y-78287571D01*
X87526857Y-78335190D01*
X87145904Y-78335190D01*
X88574476Y-78144714D02*
X88574476Y-78811380D01*
X88336380Y-77763761D02*
X88098285Y-78478047D01*
X88717333Y-78478047D01*
X92606904Y-60269380D02*
X92606904Y-59269380D01*
X92845000Y-59269380D01*
X92987857Y-59317000D01*
X93083095Y-59412238D01*
X93130714Y-59507476D01*
X93178333Y-59697952D01*
X93178333Y-59840809D01*
X93130714Y-60031285D01*
X93083095Y-60126523D01*
X92987857Y-60221761D01*
X92845000Y-60269380D01*
X92606904Y-60269380D01*
X93559285Y-59364619D02*
X93606904Y-59317000D01*
X93702142Y-59269380D01*
X93940238Y-59269380D01*
X94035476Y-59317000D01*
X94083095Y-59364619D01*
X94130714Y-59459857D01*
X94130714Y-59555095D01*
X94083095Y-59697952D01*
X93511666Y-60269380D01*
X94130714Y-60269380D01*
X89908095Y-60863380D02*
X89908095Y-59863380D01*
X90479523Y-60863380D02*
X90050952Y-60291952D01*
X90479523Y-59863380D02*
X89908095Y-60434809D01*
X90328809Y-85601190D02*
X90328809Y-86077380D01*
X89995476Y-85077380D02*
X90328809Y-85601190D01*
X90662142Y-85077380D01*
X91519285Y-86077380D02*
X90947857Y-86077380D01*
X91233571Y-86077380D02*
X91233571Y-85077380D01*
X91138333Y-85220238D01*
X91043095Y-85315476D01*
X90947857Y-85363095D01*
X77343095Y-71842380D02*
X77343095Y-72651904D01*
X77390714Y-72747142D01*
X77438333Y-72794761D01*
X77533571Y-72842380D01*
X77724047Y-72842380D01*
X77819285Y-72794761D01*
X77866904Y-72747142D01*
X77914523Y-72651904D01*
X77914523Y-71842380D01*
X78866904Y-71842380D02*
X78390714Y-71842380D01*
X78343095Y-72318571D01*
X78390714Y-72270952D01*
X78485952Y-72223333D01*
X78724047Y-72223333D01*
X78819285Y-72270952D01*
X78866904Y-72318571D01*
X78914523Y-72413809D01*
X78914523Y-72651904D01*
X78866904Y-72747142D01*
X78819285Y-72794761D01*
X78724047Y-72842380D01*
X78485952Y-72842380D01*
X78390714Y-72794761D01*
X78343095Y-72747142D01*
X62103095Y-79208380D02*
X62103095Y-80017904D01*
X62150714Y-80113142D01*
X62198333Y-80160761D01*
X62293571Y-80208380D01*
X62484047Y-80208380D01*
X62579285Y-80160761D01*
X62626904Y-80113142D01*
X62674523Y-80017904D01*
X62674523Y-79208380D01*
X63579285Y-79208380D02*
X63388809Y-79208380D01*
X63293571Y-79256000D01*
X63245952Y-79303619D01*
X63150714Y-79446476D01*
X63103095Y-79636952D01*
X63103095Y-80017904D01*
X63150714Y-80113142D01*
X63198333Y-80160761D01*
X63293571Y-80208380D01*
X63484047Y-80208380D01*
X63579285Y-80160761D01*
X63626904Y-80113142D01*
X63674523Y-80017904D01*
X63674523Y-79779809D01*
X63626904Y-79684571D01*
X63579285Y-79636952D01*
X63484047Y-79589333D01*
X63293571Y-79589333D01*
X63198333Y-79636952D01*
X63150714Y-79684571D01*
X63103095Y-79779809D01*
X62698333Y-84812142D02*
X62650714Y-84859761D01*
X62507857Y-84907380D01*
X62412619Y-84907380D01*
X62269761Y-84859761D01*
X62174523Y-84764523D01*
X62126904Y-84669285D01*
X62079285Y-84478809D01*
X62079285Y-84335952D01*
X62126904Y-84145476D01*
X62174523Y-84050238D01*
X62269761Y-83955000D01*
X62412619Y-83907380D01*
X62507857Y-83907380D01*
X62650714Y-83955000D01*
X62698333Y-84002619D01*
X63031666Y-83907380D02*
X63698333Y-83907380D01*
X63269761Y-84907380D01*
X69048333Y-92559142D02*
X69000714Y-92606761D01*
X68857857Y-92654380D01*
X68762619Y-92654380D01*
X68619761Y-92606761D01*
X68524523Y-92511523D01*
X68476904Y-92416285D01*
X68429285Y-92225809D01*
X68429285Y-92082952D01*
X68476904Y-91892476D01*
X68524523Y-91797238D01*
X68619761Y-91702000D01*
X68762619Y-91654380D01*
X68857857Y-91654380D01*
X69000714Y-91702000D01*
X69048333Y-91749619D01*
X69524523Y-92654380D02*
X69715000Y-92654380D01*
X69810238Y-92606761D01*
X69857857Y-92559142D01*
X69953095Y-92416285D01*
X70000714Y-92225809D01*
X70000714Y-91844857D01*
X69953095Y-91749619D01*
X69905476Y-91702000D01*
X69810238Y-91654380D01*
X69619761Y-91654380D01*
X69524523Y-91702000D01*
X69476904Y-91749619D01*
X69429285Y-91844857D01*
X69429285Y-92082952D01*
X69476904Y-92178190D01*
X69524523Y-92225809D01*
X69619761Y-92273428D01*
X69810238Y-92273428D01*
X69905476Y-92225809D01*
X69953095Y-92178190D01*
X70000714Y-92082952D01*
X62063333Y-96832142D02*
X62015714Y-96879761D01*
X61872857Y-96927380D01*
X61777619Y-96927380D01*
X61634761Y-96879761D01*
X61539523Y-96784523D01*
X61491904Y-96689285D01*
X61444285Y-96498809D01*
X61444285Y-96355952D01*
X61491904Y-96165476D01*
X61539523Y-96070238D01*
X61634761Y-95975000D01*
X61777619Y-95927380D01*
X61872857Y-95927380D01*
X62015714Y-95975000D01*
X62063333Y-96022619D01*
X62634761Y-96355952D02*
X62539523Y-96308333D01*
X62491904Y-96260714D01*
X62444285Y-96165476D01*
X62444285Y-96117857D01*
X62491904Y-96022619D01*
X62539523Y-95975000D01*
X62634761Y-95927380D01*
X62825238Y-95927380D01*
X62920476Y-95975000D01*
X62968095Y-96022619D01*
X63015714Y-96117857D01*
X63015714Y-96165476D01*
X62968095Y-96260714D01*
X62920476Y-96308333D01*
X62825238Y-96355952D01*
X62634761Y-96355952D01*
X62539523Y-96403571D01*
X62491904Y-96451190D01*
X62444285Y-96546428D01*
X62444285Y-96736904D01*
X62491904Y-96832142D01*
X62539523Y-96879761D01*
X62634761Y-96927380D01*
X62825238Y-96927380D01*
X62920476Y-96879761D01*
X62968095Y-96832142D01*
X63015714Y-96736904D01*
X63015714Y-96546428D01*
X62968095Y-96451190D01*
X62920476Y-96403571D01*
X62825238Y-96355952D01*
X62698333Y-76049142D02*
X62650714Y-76096761D01*
X62507857Y-76144380D01*
X62412619Y-76144380D01*
X62269761Y-76096761D01*
X62174523Y-76001523D01*
X62126904Y-75906285D01*
X62079285Y-75715809D01*
X62079285Y-75572952D01*
X62126904Y-75382476D01*
X62174523Y-75287238D01*
X62269761Y-75192000D01*
X62412619Y-75144380D01*
X62507857Y-75144380D01*
X62650714Y-75192000D01*
X62698333Y-75239619D01*
X63555476Y-75144380D02*
X63365000Y-75144380D01*
X63269761Y-75192000D01*
X63222142Y-75239619D01*
X63126904Y-75382476D01*
X63079285Y-75572952D01*
X63079285Y-75953904D01*
X63126904Y-76049142D01*
X63174523Y-76096761D01*
X63269761Y-76144380D01*
X63460238Y-76144380D01*
X63555476Y-76096761D01*
X63603095Y-76049142D01*
X63650714Y-75953904D01*
X63650714Y-75715809D01*
X63603095Y-75620571D01*
X63555476Y-75572952D01*
X63460238Y-75525333D01*
X63269761Y-75525333D01*
X63174523Y-75572952D01*
X63126904Y-75620571D01*
X63079285Y-75715809D01*
X62063333Y-64365142D02*
X62015714Y-64412761D01*
X61872857Y-64460380D01*
X61777619Y-64460380D01*
X61634761Y-64412761D01*
X61539523Y-64317523D01*
X61491904Y-64222285D01*
X61444285Y-64031809D01*
X61444285Y-63888952D01*
X61491904Y-63698476D01*
X61539523Y-63603238D01*
X61634761Y-63508000D01*
X61777619Y-63460380D01*
X61872857Y-63460380D01*
X62015714Y-63508000D01*
X62063333Y-63555619D01*
X62968095Y-63460380D02*
X62491904Y-63460380D01*
X62444285Y-63936571D01*
X62491904Y-63888952D01*
X62587142Y-63841333D01*
X62825238Y-63841333D01*
X62920476Y-63888952D01*
X62968095Y-63936571D01*
X63015714Y-64031809D01*
X63015714Y-64269904D01*
X62968095Y-64365142D01*
X62920476Y-64412761D01*
X62825238Y-64460380D01*
X62587142Y-64460380D01*
X62491904Y-64412761D01*
X62444285Y-64365142D01*
X103378095Y-108037380D02*
X103378095Y-108846904D01*
X103425714Y-108942142D01*
X103473333Y-108989761D01*
X103568571Y-109037380D01*
X103759047Y-109037380D01*
X103854285Y-108989761D01*
X103901904Y-108942142D01*
X103949523Y-108846904D01*
X103949523Y-108037380D01*
X104330476Y-108037380D02*
X104949523Y-108037380D01*
X104616190Y-108418333D01*
X104759047Y-108418333D01*
X104854285Y-108465952D01*
X104901904Y-108513571D01*
X104949523Y-108608809D01*
X104949523Y-108846904D01*
X104901904Y-108942142D01*
X104854285Y-108989761D01*
X104759047Y-109037380D01*
X104473333Y-109037380D01*
X104378095Y-108989761D01*
X104330476Y-108942142D01*
X92837095Y-115657380D02*
X92837095Y-116466904D01*
X92884714Y-116562142D01*
X92932333Y-116609761D01*
X93027571Y-116657380D01*
X93218047Y-116657380D01*
X93313285Y-116609761D01*
X93360904Y-116562142D01*
X93408523Y-116466904D01*
X93408523Y-115657380D01*
X93837095Y-115752619D02*
X93884714Y-115705000D01*
X93979952Y-115657380D01*
X94218047Y-115657380D01*
X94313285Y-115705000D01*
X94360904Y-115752619D01*
X94408523Y-115847857D01*
X94408523Y-115943095D01*
X94360904Y-116085952D01*
X93789476Y-116657380D01*
X94408523Y-116657380D01*
X74914285Y-68286380D02*
X75485714Y-68286380D01*
X75200000Y-69286380D02*
X75200000Y-68286380D01*
X75819047Y-69286380D02*
X75819047Y-68286380D01*
X75819047Y-68762571D02*
X76390476Y-68762571D01*
X76390476Y-69286380D02*
X76390476Y-68286380D01*
X76819047Y-68381619D02*
X76866666Y-68334000D01*
X76961904Y-68286380D01*
X77200000Y-68286380D01*
X77295238Y-68334000D01*
X77342857Y-68381619D01*
X77390476Y-68476857D01*
X77390476Y-68572095D01*
X77342857Y-68714952D01*
X76771428Y-69286380D01*
X77390476Y-69286380D01*
X85074285Y-68246380D02*
X85645714Y-68246380D01*
X85360000Y-69246380D02*
X85360000Y-68246380D01*
X85979047Y-69246380D02*
X85979047Y-68246380D01*
X85979047Y-68722571D02*
X86550476Y-68722571D01*
X86550476Y-69246380D02*
X86550476Y-68246380D01*
X87550476Y-69246380D02*
X86979047Y-69246380D01*
X87264761Y-69246380D02*
X87264761Y-68246380D01*
X87169523Y-68389238D01*
X87074285Y-68484476D01*
X86979047Y-68532095D01*
X78573333Y-97607380D02*
X78240000Y-97131190D01*
X78001904Y-97607380D02*
X78001904Y-96607380D01*
X78382857Y-96607380D01*
X78478095Y-96655000D01*
X78525714Y-96702619D01*
X78573333Y-96797857D01*
X78573333Y-96940714D01*
X78525714Y-97035952D01*
X78478095Y-97083571D01*
X78382857Y-97131190D01*
X78001904Y-97131190D01*
X79478095Y-96607380D02*
X79001904Y-96607380D01*
X78954285Y-97083571D01*
X79001904Y-97035952D01*
X79097142Y-96988333D01*
X79335238Y-96988333D01*
X79430476Y-97035952D01*
X79478095Y-97083571D01*
X79525714Y-97178809D01*
X79525714Y-97416904D01*
X79478095Y-97512142D01*
X79430476Y-97559761D01*
X79335238Y-97607380D01*
X79097142Y-97607380D01*
X79001904Y-97559761D01*
X78954285Y-97512142D01*
X105878333Y-115567380D02*
X105545000Y-115091190D01*
X105306904Y-115567380D02*
X105306904Y-114567380D01*
X105687857Y-114567380D01*
X105783095Y-114615000D01*
X105830714Y-114662619D01*
X105878333Y-114757857D01*
X105878333Y-114900714D01*
X105830714Y-114995952D01*
X105783095Y-115043571D01*
X105687857Y-115091190D01*
X105306904Y-115091190D01*
X106211666Y-114567380D02*
X106830714Y-114567380D01*
X106497380Y-114948333D01*
X106640238Y-114948333D01*
X106735476Y-114995952D01*
X106783095Y-115043571D01*
X106830714Y-115138809D01*
X106830714Y-115376904D01*
X106783095Y-115472142D01*
X106735476Y-115519761D01*
X106640238Y-115567380D01*
X106354523Y-115567380D01*
X106259285Y-115519761D01*
X106211666Y-115472142D01*
X99528333Y-72588380D02*
X99195000Y-72112190D01*
X98956904Y-72588380D02*
X98956904Y-71588380D01*
X99337857Y-71588380D01*
X99433095Y-71636000D01*
X99480714Y-71683619D01*
X99528333Y-71778857D01*
X99528333Y-71921714D01*
X99480714Y-72016952D01*
X99433095Y-72064571D01*
X99337857Y-72112190D01*
X98956904Y-72112190D01*
X99909285Y-71683619D02*
X99956904Y-71636000D01*
X100052142Y-71588380D01*
X100290238Y-71588380D01*
X100385476Y-71636000D01*
X100433095Y-71683619D01*
X100480714Y-71778857D01*
X100480714Y-71874095D01*
X100433095Y-72016952D01*
X99861666Y-72588380D01*
X100480714Y-72588380D01*
X100798333Y-101163380D02*
X100465000Y-100687190D01*
X100226904Y-101163380D02*
X100226904Y-100163380D01*
X100607857Y-100163380D01*
X100703095Y-100211000D01*
X100750714Y-100258619D01*
X100798333Y-100353857D01*
X100798333Y-100496714D01*
X100750714Y-100591952D01*
X100703095Y-100639571D01*
X100607857Y-100687190D01*
X100226904Y-100687190D01*
X101750714Y-101163380D02*
X101179285Y-101163380D01*
X101465000Y-101163380D02*
X101465000Y-100163380D01*
X101369761Y-100306238D01*
X101274523Y-100401476D01*
X101179285Y-100449095D01*
X80946666Y-57872380D02*
X80946666Y-58586666D01*
X80899047Y-58729523D01*
X80803809Y-58824761D01*
X80660952Y-58872380D01*
X80565714Y-58872380D01*
X81899047Y-57872380D02*
X81422857Y-57872380D01*
X81375238Y-58348571D01*
X81422857Y-58300952D01*
X81518095Y-58253333D01*
X81756190Y-58253333D01*
X81851428Y-58300952D01*
X81899047Y-58348571D01*
X81946666Y-58443809D01*
X81946666Y-58681904D01*
X81899047Y-58777142D01*
X81851428Y-58824761D01*
X81756190Y-58872380D01*
X81518095Y-58872380D01*
X81422857Y-58824761D01*
X81375238Y-58777142D01*
X105076666Y-57872380D02*
X105076666Y-58586666D01*
X105029047Y-58729523D01*
X104933809Y-58824761D01*
X104790952Y-58872380D01*
X104695714Y-58872380D01*
X105981428Y-58205714D02*
X105981428Y-58872380D01*
X105743333Y-57824761D02*
X105505238Y-58539047D01*
X106124285Y-58539047D01*
X98726666Y-118407380D02*
X98726666Y-119121666D01*
X98679047Y-119264523D01*
X98583809Y-119359761D01*
X98440952Y-119407380D01*
X98345714Y-119407380D01*
X99107619Y-118407380D02*
X99726666Y-118407380D01*
X99393333Y-118788333D01*
X99536190Y-118788333D01*
X99631428Y-118835952D01*
X99679047Y-118883571D01*
X99726666Y-118978809D01*
X99726666Y-119216904D01*
X99679047Y-119312142D01*
X99631428Y-119359761D01*
X99536190Y-119407380D01*
X99250476Y-119407380D01*
X99155238Y-119359761D01*
X99107619Y-119312142D01*
X94916666Y-118407380D02*
X94916666Y-119121666D01*
X94869047Y-119264523D01*
X94773809Y-119359761D01*
X94630952Y-119407380D01*
X94535714Y-119407380D01*
X95345238Y-118502619D02*
X95392857Y-118455000D01*
X95488095Y-118407380D01*
X95726190Y-118407380D01*
X95821428Y-118455000D01*
X95869047Y-118502619D01*
X95916666Y-118597857D01*
X95916666Y-118693095D01*
X95869047Y-118835952D01*
X95297619Y-119407380D01*
X95916666Y-119407380D01*
X109946666Y-89622380D02*
X109946666Y-90336666D01*
X109899047Y-90479523D01*
X109803809Y-90574761D01*
X109660952Y-90622380D01*
X109565714Y-90622380D01*
X110946666Y-90622380D02*
X110375238Y-90622380D01*
X110660952Y-90622380D02*
X110660952Y-89622380D01*
X110565714Y-89765238D01*
X110470476Y-89860476D01*
X110375238Y-89908095D01*
X67841904Y-60143380D02*
X67841904Y-59143380D01*
X68080000Y-59143380D01*
X68222857Y-59191000D01*
X68318095Y-59286238D01*
X68365714Y-59381476D01*
X68413333Y-59571952D01*
X68413333Y-59714809D01*
X68365714Y-59905285D01*
X68318095Y-60000523D01*
X68222857Y-60095761D01*
X68080000Y-60143380D01*
X67841904Y-60143380D01*
X68746666Y-59143380D02*
X69365714Y-59143380D01*
X69032380Y-59524333D01*
X69175238Y-59524333D01*
X69270476Y-59571952D01*
X69318095Y-59619571D01*
X69365714Y-59714809D01*
X69365714Y-59952904D01*
X69318095Y-60048142D01*
X69270476Y-60095761D01*
X69175238Y-60143380D01*
X68889523Y-60143380D01*
X68794285Y-60095761D01*
X68746666Y-60048142D01*
X65778095Y-60863380D02*
X65778095Y-59863380D01*
X66349523Y-60863380D02*
X65920952Y-60291952D01*
X66349523Y-59863380D02*
X65778095Y-60434809D01*
X120546904Y-93797380D02*
X120546904Y-92797380D01*
X120785000Y-92797380D01*
X120927857Y-92845000D01*
X121023095Y-92940238D01*
X121070714Y-93035476D01*
X121118333Y-93225952D01*
X121118333Y-93368809D01*
X121070714Y-93559285D01*
X121023095Y-93654523D01*
X120927857Y-93749761D01*
X120785000Y-93797380D01*
X120546904Y-93797380D01*
X122070714Y-93797380D02*
X121499285Y-93797380D01*
X121785000Y-93797380D02*
X121785000Y-92797380D01*
X121689761Y-92940238D01*
X121594523Y-93035476D01*
X121499285Y-93083095D01*
X88479333Y-82399142D02*
X88431714Y-82446761D01*
X88288857Y-82494380D01*
X88193619Y-82494380D01*
X88050761Y-82446761D01*
X87955523Y-82351523D01*
X87907904Y-82256285D01*
X87860285Y-82065809D01*
X87860285Y-81922952D01*
X87907904Y-81732476D01*
X87955523Y-81637238D01*
X88050761Y-81542000D01*
X88193619Y-81494380D01*
X88288857Y-81494380D01*
X88431714Y-81542000D01*
X88479333Y-81589619D01*
X89336476Y-81827714D02*
X89336476Y-82494380D01*
X89098380Y-81446761D02*
X88860285Y-82161047D01*
X89479333Y-82161047D01*
X77557333Y-116562142D02*
X77509714Y-116609761D01*
X77366857Y-116657380D01*
X77271619Y-116657380D01*
X77128761Y-116609761D01*
X77033523Y-116514523D01*
X76985904Y-116419285D01*
X76938285Y-116228809D01*
X76938285Y-116085952D01*
X76985904Y-115895476D01*
X77033523Y-115800238D01*
X77128761Y-115705000D01*
X77271619Y-115657380D01*
X77366857Y-115657380D01*
X77509714Y-115705000D01*
X77557333Y-115752619D01*
X77890666Y-115657380D02*
X78509714Y-115657380D01*
X78176380Y-116038333D01*
X78319238Y-116038333D01*
X78414476Y-116085952D01*
X78462095Y-116133571D01*
X78509714Y-116228809D01*
X78509714Y-116466904D01*
X78462095Y-116562142D01*
X78414476Y-116609761D01*
X78319238Y-116657380D01*
X78033523Y-116657380D01*
X77938285Y-116609761D01*
X77890666Y-116562142D01*
X88479333Y-89765142D02*
X88431714Y-89812761D01*
X88288857Y-89860380D01*
X88193619Y-89860380D01*
X88050761Y-89812761D01*
X87955523Y-89717523D01*
X87907904Y-89622285D01*
X87860285Y-89431809D01*
X87860285Y-89288952D01*
X87907904Y-89098476D01*
X87955523Y-89003238D01*
X88050761Y-88908000D01*
X88193619Y-88860380D01*
X88288857Y-88860380D01*
X88431714Y-88908000D01*
X88479333Y-88955619D01*
X88860285Y-88955619D02*
X88907904Y-88908000D01*
X89003142Y-88860380D01*
X89241238Y-88860380D01*
X89336476Y-88908000D01*
X89384095Y-88955619D01*
X89431714Y-89050857D01*
X89431714Y-89146095D01*
X89384095Y-89288952D01*
X88812666Y-89860380D01*
X89431714Y-89860380D01*
X98639333Y-92432142D02*
X98591714Y-92479761D01*
X98448857Y-92527380D01*
X98353619Y-92527380D01*
X98210761Y-92479761D01*
X98115523Y-92384523D01*
X98067904Y-92289285D01*
X98020285Y-92098809D01*
X98020285Y-91955952D01*
X98067904Y-91765476D01*
X98115523Y-91670238D01*
X98210761Y-91575000D01*
X98353619Y-91527380D01*
X98448857Y-91527380D01*
X98591714Y-91575000D01*
X98639333Y-91622619D01*
X99591714Y-92527380D02*
X99020285Y-92527380D01*
X99306000Y-92527380D02*
X99306000Y-91527380D01*
X99210761Y-91670238D01*
X99115523Y-91765476D01*
X99020285Y-91813095D01*
X122491666Y-65809761D02*
X122634523Y-65857380D01*
X122872619Y-65857380D01*
X122967857Y-65809761D01*
X123015476Y-65762142D01*
X123063095Y-65666904D01*
X123063095Y-65571666D01*
X123015476Y-65476428D01*
X122967857Y-65428809D01*
X122872619Y-65381190D01*
X122682142Y-65333571D01*
X122586904Y-65285952D01*
X122539285Y-65238333D01*
X122491666Y-65143095D01*
X122491666Y-65047857D01*
X122539285Y-64952619D01*
X122586904Y-64905000D01*
X122682142Y-64857380D01*
X122920238Y-64857380D01*
X123063095Y-64905000D01*
X123396428Y-64857380D02*
X123634523Y-65857380D01*
X123825000Y-65143095D01*
X124015476Y-65857380D01*
X124253571Y-64857380D01*
X125158333Y-65857380D02*
X124586904Y-65857380D01*
X124872619Y-65857380D02*
X124872619Y-64857380D01*
X124777380Y-65000238D01*
X124682142Y-65095476D01*
X124586904Y-65143095D01*
X73685476Y-108146904D02*
X73685476Y-108794523D01*
X73723571Y-108870714D01*
X73761666Y-108908809D01*
X73837857Y-108946904D01*
X73990238Y-108946904D01*
X74066428Y-108908809D01*
X74104523Y-108870714D01*
X74142619Y-108794523D01*
X74142619Y-108146904D01*
X74866428Y-108413571D02*
X74866428Y-108946904D01*
X74675952Y-108108809D02*
X74485476Y-108680238D01*
X74980714Y-108680238D01*
X104648095Y-79462380D02*
X104648095Y-80271904D01*
X104695714Y-80367142D01*
X104743333Y-80414761D01*
X104838571Y-80462380D01*
X105029047Y-80462380D01*
X105124285Y-80414761D01*
X105171904Y-80367142D01*
X105219523Y-80271904D01*
X105219523Y-79462380D01*
X106219523Y-80462380D02*
X105648095Y-80462380D01*
X105933809Y-80462380D02*
X105933809Y-79462380D01*
X105838571Y-79605238D01*
X105743333Y-79700476D01*
X105648095Y-79748095D01*
M02*
