G04 #@! TF.GenerationSoftware,KiCad,Pcbnew,(5.1.5)-3*
G04 #@! TF.CreationDate,2020-04-04T11:24:52+02:00*
G04 #@! TF.ProjectId,DMX2SGM,444d5832-5347-44d2-9e6b-696361645f70,0.2*
G04 #@! TF.SameCoordinates,Original*
G04 #@! TF.FileFunction,Copper,L2,Bot*
G04 #@! TF.FilePolarity,Positive*
%FSLAX46Y46*%
G04 Gerber Fmt 4.6, Leading zero omitted, Abs format (unit mm)*
G04 Created by KiCad (PCBNEW (5.1.5)-3) date 2020-04-04 11:24:52*
%MOMM*%
%LPD*%
G04 APERTURE LIST*
%ADD10C,1.500000*%
%ADD11O,2.400000X1.600000*%
%ADD12R,2.400000X1.600000*%
%ADD13O,2.000000X1.905000*%
%ADD14R,2.000000X1.905000*%
%ADD15C,1.600000*%
%ADD16R,1.600000X1.600000*%
%ADD17O,1.600000X2.400000*%
%ADD18R,1.600000X2.400000*%
%ADD19O,1.600000X1.600000*%
%ADD20O,1.700000X1.700000*%
%ADD21R,1.700000X1.700000*%
%ADD22O,2.400000X2.400000*%
%ADD23R,2.400000X2.400000*%
%ADD24C,1.800000*%
%ADD25R,1.800000X1.800000*%
%ADD26C,1.524000*%
%ADD27R,1.524000X1.524000*%
%ADD28C,2.000000*%
%ADD29R,1.950000X0.600000*%
%ADD30C,1.000000*%
%ADD31C,0.520000*%
%ADD32C,0.254000*%
G04 APERTURE END LIST*
D10*
X96520000Y-88065000D03*
X96520000Y-83185000D03*
D11*
X72390000Y-90170000D03*
X80010000Y-74930000D03*
X72390000Y-87630000D03*
X80010000Y-77470000D03*
X72390000Y-85090000D03*
X80010000Y-80010000D03*
X72390000Y-82550000D03*
X80010000Y-82550000D03*
X72390000Y-80010000D03*
X80010000Y-85090000D03*
X72390000Y-77470000D03*
X80010000Y-87630000D03*
X72390000Y-74930000D03*
D12*
X80010000Y-90170000D03*
D13*
X66040000Y-82296000D03*
X66040000Y-79756000D03*
D14*
X66040000Y-77216000D03*
D15*
X63540000Y-86995000D03*
X66040000Y-86995000D03*
X69215000Y-87630000D03*
X69215000Y-90130000D03*
X63540000Y-92075000D03*
D16*
X66040000Y-92075000D03*
D15*
X63540000Y-72898000D03*
X66040000Y-72898000D03*
X63540000Y-68580000D03*
D16*
X66040000Y-68580000D03*
D17*
X107315000Y-100965000D03*
X114935000Y-108585000D03*
X109855000Y-100965000D03*
X112395000Y-108585000D03*
X112395000Y-100965000D03*
X109855000Y-108585000D03*
X114935000Y-100965000D03*
D18*
X107315000Y-108585000D03*
D17*
X90805000Y-120015000D03*
X83185000Y-112395000D03*
X88265000Y-120015000D03*
X85725000Y-112395000D03*
X85725000Y-120015000D03*
X88265000Y-112395000D03*
X83185000Y-120015000D03*
D18*
X90805000Y-112395000D03*
D15*
X72360000Y-71675000D03*
X73660000Y-66675000D03*
X82520000Y-71675000D03*
X83820000Y-66675000D03*
D19*
X84455000Y-93980000D03*
D15*
X71755000Y-93980000D03*
D19*
X84455000Y-75565000D03*
D15*
X84455000Y-88265000D03*
D19*
X99695000Y-112395000D03*
D15*
X112395000Y-112395000D03*
D19*
X96520000Y-78740000D03*
D15*
X96520000Y-66040000D03*
D19*
X109855000Y-97155000D03*
D15*
X97155000Y-97155000D03*
D20*
X78740000Y-58420000D03*
X76200000Y-58420000D03*
D21*
X73660000Y-58420000D03*
D20*
X102870000Y-58420000D03*
X100330000Y-58420000D03*
D21*
X97790000Y-58420000D03*
D20*
X99060000Y-126365000D03*
X99060000Y-123825000D03*
D21*
X99060000Y-121285000D03*
D20*
X95250000Y-126365000D03*
X95250000Y-123825000D03*
D21*
X95250000Y-121285000D03*
D20*
X101600000Y-92710000D03*
X101600000Y-90170000D03*
X104140000Y-92710000D03*
X104140000Y-90170000D03*
X106680000Y-92710000D03*
D21*
X106680000Y-90170000D03*
D22*
X78740000Y-62865000D03*
D23*
X66040000Y-62865000D03*
D22*
X102870000Y-62865000D03*
D23*
X90170000Y-62865000D03*
D24*
X121285000Y-98425000D03*
D25*
X121285000Y-95885000D03*
D15*
X90170000Y-83185000D03*
X92670000Y-83185000D03*
X80010000Y-117435000D03*
X80010000Y-114935000D03*
X92670000Y-88074500D03*
X90170000Y-88074500D03*
X90210000Y-93345000D03*
X92710000Y-93345000D03*
D19*
X92710000Y-95885000D03*
X92710000Y-100965000D03*
X109855000Y-92710000D03*
X114935000Y-92710000D03*
X93345000Y-68580000D03*
X93345000Y-78105000D03*
D26*
X121285000Y-89535000D03*
X121285000Y-86995000D03*
X121285000Y-84455000D03*
X121285000Y-81915000D03*
X121285000Y-79375000D03*
X121285000Y-76835000D03*
X121285000Y-74295000D03*
X121285000Y-71755000D03*
X121285000Y-69215000D03*
X118745000Y-69215000D03*
X118745000Y-71755000D03*
X118745000Y-74295000D03*
X118745000Y-76835000D03*
X118745000Y-79375000D03*
X118745000Y-81915000D03*
X118745000Y-84455000D03*
X118745000Y-86995000D03*
D27*
X118745000Y-89535000D03*
D28*
X70485000Y-99695000D03*
X70485000Y-102235000D03*
X70485000Y-107315000D03*
X70485000Y-112395000D03*
D29*
X110110000Y-74295000D03*
X110110000Y-75565000D03*
X110110000Y-76835000D03*
X110110000Y-78105000D03*
X110110000Y-79375000D03*
X110110000Y-80645000D03*
X110110000Y-81915000D03*
X110110000Y-83185000D03*
X110110000Y-84455000D03*
X110110000Y-85725000D03*
X100710000Y-85725000D03*
X100710000Y-84455000D03*
X100710000Y-83185000D03*
X100710000Y-81915000D03*
X100710000Y-80645000D03*
X100710000Y-79375000D03*
X100710000Y-78105000D03*
X100710000Y-76835000D03*
X100710000Y-75565000D03*
X100710000Y-74295000D03*
D30*
X72390000Y-90170000D02*
X69850000Y-90170000D01*
X69810000Y-90130000D02*
X69850000Y-90170000D01*
X69215000Y-90130000D02*
X69810000Y-90130000D01*
X66080000Y-90130000D02*
X66040000Y-90170000D01*
X69215000Y-90130000D02*
X66080000Y-90130000D01*
X66040000Y-81915000D02*
X66040000Y-90170000D01*
X66040000Y-90170000D02*
X66040000Y-97790000D01*
X66040000Y-97790000D02*
X67945000Y-99695000D01*
X67945000Y-99695000D02*
X70485000Y-99695000D01*
X107315000Y-98765000D02*
X108925000Y-97155000D01*
X107315000Y-100965000D02*
X107315000Y-98765000D01*
X108925000Y-97155000D02*
X109855000Y-97155000D01*
X93345000Y-100965000D02*
X107315000Y-100965000D01*
X100710000Y-87071370D02*
X100710000Y-85725000D01*
X94436370Y-93345000D02*
X100710000Y-87071370D01*
X93305000Y-93345000D02*
X94436370Y-93345000D01*
X92710000Y-93345000D02*
X92710000Y-95885000D01*
X92710000Y-100965000D02*
X93345000Y-100965000D01*
X92710000Y-100965000D02*
X91440000Y-99695000D01*
X91440000Y-99695000D02*
X70485000Y-99695000D01*
X90805000Y-120015000D02*
X90805000Y-114935000D01*
X109855000Y-113030000D02*
X109855000Y-108585000D01*
X107950000Y-114935000D02*
X109855000Y-113030000D01*
X70485000Y-112395000D02*
X73025000Y-114935000D01*
X73025000Y-114935000D02*
X107950000Y-114935000D01*
D31*
X100710000Y-83185000D02*
X96520000Y-83185000D01*
X96520000Y-83185000D02*
X93305000Y-83185000D01*
D30*
X66040000Y-62865000D02*
X66040000Y-66675000D01*
X66040000Y-62865000D02*
X66040000Y-76835000D01*
X66040000Y-68580000D02*
X86995000Y-68580000D01*
X86995000Y-68580000D02*
X90170000Y-65405000D01*
X90170000Y-65405000D02*
X90170000Y-62865000D01*
D31*
X122705000Y-95885000D02*
X121285000Y-95885000D01*
X123265000Y-95325000D02*
X122705000Y-95885000D01*
X123265000Y-67385000D02*
X123265000Y-95325000D01*
X121920000Y-66040000D02*
X123265000Y-67385000D01*
X96520000Y-66040000D02*
X121920000Y-66040000D01*
X102235000Y-75565000D02*
X105410000Y-78740000D01*
X105410000Y-86895000D02*
X105410000Y-78740000D01*
X102235000Y-75565000D02*
X100710000Y-75565000D01*
X106680000Y-88165000D02*
X106680000Y-90170000D01*
X105410000Y-86995000D02*
X106680000Y-88265000D01*
X87630000Y-76835000D02*
X88900000Y-75565000D01*
X87630000Y-91936370D02*
X87630000Y-76835000D01*
X85586370Y-93980000D02*
X87630000Y-91936370D01*
X88900000Y-75565000D02*
X100710000Y-75565000D01*
X84455000Y-93980000D02*
X85586370Y-93980000D01*
X104140000Y-81280000D02*
X104140000Y-90170000D01*
X104140000Y-81280000D02*
X102235000Y-79375000D01*
X102235000Y-79375000D02*
X100710000Y-79375000D01*
X102870000Y-74295000D02*
X106680000Y-78105000D01*
X106680000Y-78105000D02*
X106680000Y-85725000D01*
X104140000Y-92710000D02*
X104140000Y-93980000D01*
X104140000Y-93980000D02*
X104775000Y-94615000D01*
X110490000Y-92710000D02*
X109220000Y-92710000D01*
X114935000Y-92710000D02*
X114935000Y-95250000D01*
X114935000Y-95250000D02*
X112395000Y-97790000D01*
X112395000Y-100965000D02*
X112395000Y-97790000D01*
X107950000Y-94615000D02*
X108585000Y-93980000D01*
X104775000Y-94615000D02*
X107950000Y-94615000D01*
X106680000Y-85725000D02*
X108585000Y-87630000D01*
X108585000Y-93980000D02*
X108585000Y-92710000D01*
X108585000Y-92710000D02*
X108585000Y-87630000D01*
X108585000Y-92710000D02*
X109855000Y-92710000D01*
X102870000Y-74295000D02*
X100710000Y-74295000D01*
X101600000Y-88265000D02*
X101600000Y-90170000D01*
X102870000Y-86995000D02*
X101600000Y-88265000D01*
X102870000Y-82550000D02*
X102870000Y-86995000D01*
X102235000Y-81915000D02*
X102870000Y-82550000D01*
X101600000Y-90170000D02*
X99695000Y-90170000D01*
X102235000Y-81915000D02*
X100710000Y-81915000D01*
X97155000Y-97155000D02*
X97155000Y-92710000D01*
X99695000Y-90170000D02*
X97155000Y-92710000D01*
D30*
X85725000Y-123825000D02*
X85725000Y-120015000D01*
X99060000Y-126365000D02*
X88265000Y-126365000D01*
X88265000Y-126365000D02*
X85725000Y-123825000D01*
D31*
X98425000Y-79375000D02*
X97790000Y-78740000D01*
X98425000Y-80010000D02*
X98425000Y-79375000D01*
X97790000Y-78740000D02*
X96520000Y-78740000D01*
X99060000Y-80645000D02*
X98425000Y-80010000D01*
X100710000Y-80645000D02*
X99060000Y-80645000D01*
X80010000Y-77470000D02*
X79375000Y-77470000D01*
X81915000Y-82550000D02*
X82550000Y-81915000D01*
X80010000Y-82550000D02*
X81915000Y-82550000D01*
X80010000Y-77470000D02*
X82550000Y-77470000D01*
X82550000Y-81915000D02*
X82550000Y-77470000D01*
X80010000Y-77470000D02*
X81730000Y-77470000D01*
X82520000Y-72995000D02*
X82550000Y-73025000D01*
X82520000Y-71675000D02*
X82520000Y-72995000D01*
X82550000Y-77470000D02*
X82550000Y-73025000D01*
X82550000Y-73025000D02*
X82550000Y-72975000D01*
X72470000Y-74850000D02*
X72390000Y-74930000D01*
X72390000Y-71705000D02*
X72360000Y-71675000D01*
X72390000Y-74930000D02*
X72390000Y-71705000D01*
X70670000Y-74930000D02*
X69850000Y-75750000D01*
X72390000Y-74930000D02*
X70670000Y-74930000D01*
X69850000Y-79375000D02*
X70485000Y-80010000D01*
X69850000Y-75750000D02*
X69850000Y-79375000D01*
X72390000Y-80010000D02*
X70485000Y-80010000D01*
X96520000Y-86360000D02*
X96520000Y-88065000D01*
X100710000Y-84455000D02*
X98425000Y-84455000D01*
X98425000Y-84455000D02*
X96520000Y-86360000D01*
X93314500Y-88065000D02*
X93305000Y-88074500D01*
X96520000Y-88065000D02*
X93314500Y-88065000D01*
D30*
X99695000Y-112395000D02*
X90805000Y-112395000D01*
X112395000Y-108585000D02*
X112395000Y-112395000D01*
D31*
X80010000Y-86360000D02*
X80010000Y-85090000D01*
X80010000Y-87630000D02*
X80010000Y-86360000D01*
X78105000Y-80010000D02*
X80010000Y-80010000D01*
X77470000Y-80645000D02*
X78105000Y-80010000D01*
X77470000Y-85725000D02*
X77470000Y-80645000D01*
X78105000Y-86360000D02*
X77470000Y-85725000D01*
X80010000Y-86360000D02*
X78105000Y-86360000D01*
X72390000Y-83820000D02*
X72390000Y-82550000D01*
X72390000Y-85090000D02*
X72390000Y-84455000D01*
X72390000Y-84455000D02*
X72390000Y-83820000D01*
X74295000Y-83820000D02*
X72390000Y-83820000D01*
X74930000Y-83185000D02*
X74295000Y-83820000D01*
X74930000Y-78105000D02*
X74930000Y-83185000D01*
X72390000Y-77470000D02*
X74295000Y-77470000D01*
X74295000Y-77470000D02*
X74930000Y-78105000D01*
X107915000Y-71535000D02*
X109855000Y-73475000D01*
X109855000Y-73475000D02*
X109855000Y-74295000D01*
X84455000Y-73660000D02*
X84455000Y-75565000D01*
X107950000Y-71535000D02*
X86580000Y-71535000D01*
X86580000Y-71535000D02*
X84455000Y-73660000D01*
D30*
X102870000Y-58420000D02*
X102870000Y-63500000D01*
X78740000Y-62865000D02*
X78740000Y-58420000D01*
D31*
X97790000Y-58420000D02*
X85725000Y-58420000D01*
X83820000Y-60325000D02*
X85725000Y-58420000D01*
X83820000Y-66675000D02*
X83820000Y-60325000D01*
X94476370Y-68580000D02*
X95111370Y-69215000D01*
X93345000Y-68580000D02*
X94476370Y-68580000D01*
X95111370Y-69215000D02*
X118745000Y-69215000D01*
X93600000Y-78105000D02*
X93345000Y-78105000D01*
X93345000Y-78105000D02*
X94870000Y-76835000D01*
X100965000Y-76835000D02*
X94870000Y-76835000D01*
X112395000Y-75565000D02*
X116205000Y-71755000D01*
X112395000Y-75565000D02*
X110110000Y-75565000D01*
X118745000Y-71755000D02*
X116205000Y-71755000D01*
X116205000Y-74295000D02*
X113665000Y-76835000D01*
X113665000Y-76835000D02*
X110110000Y-76835000D01*
X118745000Y-74295000D02*
X116205000Y-74295000D01*
X114935000Y-78105000D02*
X116205000Y-76835000D01*
X114935000Y-78105000D02*
X110110000Y-78105000D01*
X118745000Y-76835000D02*
X116205000Y-76835000D01*
X118745000Y-79375000D02*
X110110000Y-79375000D01*
X116205000Y-81915000D02*
X114935000Y-80645000D01*
X110110000Y-80645000D02*
X114935000Y-80645000D01*
X118745000Y-81915000D02*
X119380000Y-81915000D01*
X118745000Y-81915000D02*
X116205000Y-81915000D01*
X113665000Y-81915000D02*
X110110000Y-81915000D01*
X113665000Y-81915000D02*
X116205000Y-84455000D01*
X116205000Y-84455000D02*
X118745000Y-84455000D01*
X113030000Y-83185000D02*
X110110000Y-83185000D01*
X118745000Y-86995000D02*
X116840000Y-86995000D01*
X116840000Y-86995000D02*
X113030000Y-83185000D01*
X116840000Y-89535000D02*
X111760000Y-84455000D01*
X111760000Y-84455000D02*
X110110000Y-84455000D01*
X118745000Y-89535000D02*
X116840000Y-89535000D01*
X73660000Y-66675000D02*
X73660000Y-58420000D01*
D30*
X88265000Y-122555000D02*
X88265000Y-120015000D01*
X89535000Y-123825000D02*
X88265000Y-122555000D01*
X89535000Y-123825000D02*
X99060000Y-123825000D01*
D31*
X72390000Y-87630000D02*
X72790000Y-87630000D01*
X73660000Y-93980000D02*
X74930000Y-92710000D01*
X73660000Y-93980000D02*
X71755000Y-93980000D01*
X74930000Y-88900000D02*
X73660000Y-87630000D01*
X72390000Y-87630000D02*
X73660000Y-87630000D01*
X74930000Y-88900000D02*
X74930000Y-92710000D01*
X80010000Y-90170000D02*
X82550000Y-90170000D01*
X82550000Y-90170000D02*
X84455000Y-88265000D01*
D32*
G36*
X69233917Y-106243525D02*
G01*
X69349585Y-106359193D01*
X69085186Y-106454956D01*
X68944296Y-106744571D01*
X68862616Y-107056108D01*
X68843282Y-107377595D01*
X68887039Y-107696675D01*
X68992205Y-108001088D01*
X69085186Y-108175044D01*
X69349587Y-108270808D01*
X70305395Y-107315000D01*
X70291253Y-107300858D01*
X70470858Y-107121253D01*
X70485000Y-107135395D01*
X70499143Y-107121253D01*
X70678748Y-107300858D01*
X70664605Y-107315000D01*
X71620413Y-108270808D01*
X71884814Y-108175044D01*
X72025704Y-107885429D01*
X72107384Y-107573892D01*
X72126718Y-107252405D01*
X72082961Y-106933325D01*
X71977795Y-106628912D01*
X71884814Y-106454956D01*
X71620415Y-106359193D01*
X71736083Y-106243525D01*
X71664558Y-106172000D01*
X123063000Y-106172000D01*
X123063000Y-131318000D01*
X62992000Y-131318000D01*
X62992000Y-120142000D01*
X81750000Y-120142000D01*
X81750000Y-120542000D01*
X81802350Y-120819514D01*
X81907834Y-121081483D01*
X82062399Y-121317839D01*
X82260105Y-121519500D01*
X82493354Y-121678715D01*
X82753182Y-121789367D01*
X82835961Y-121806904D01*
X83058000Y-121684915D01*
X83058000Y-120142000D01*
X81750000Y-120142000D01*
X62992000Y-120142000D01*
X62992000Y-119488000D01*
X81750000Y-119488000D01*
X81750000Y-119888000D01*
X83058000Y-119888000D01*
X83058000Y-118345085D01*
X82835961Y-118223096D01*
X82753182Y-118240633D01*
X82493354Y-118351285D01*
X82260105Y-118510500D01*
X82062399Y-118712161D01*
X81907834Y-118948517D01*
X81802350Y-119210486D01*
X81750000Y-119488000D01*
X62992000Y-119488000D01*
X62992000Y-118427702D01*
X79196903Y-118427702D01*
X79268486Y-118671671D01*
X79523996Y-118792571D01*
X79798184Y-118861300D01*
X80080512Y-118875217D01*
X80360130Y-118833787D01*
X80626292Y-118738603D01*
X80751514Y-118671671D01*
X80823097Y-118427702D01*
X80010000Y-117614605D01*
X79196903Y-118427702D01*
X62992000Y-118427702D01*
X62992000Y-117505512D01*
X78569783Y-117505512D01*
X78611213Y-117785130D01*
X78706397Y-118051292D01*
X78773329Y-118176514D01*
X79017298Y-118248097D01*
X79830395Y-117435000D01*
X80189605Y-117435000D01*
X81002702Y-118248097D01*
X81246671Y-118176514D01*
X81367571Y-117921004D01*
X81436300Y-117646816D01*
X81450217Y-117364488D01*
X81408787Y-117084870D01*
X81313603Y-116818708D01*
X81246671Y-116693486D01*
X81002702Y-116621903D01*
X80189605Y-117435000D01*
X79830395Y-117435000D01*
X79017298Y-116621903D01*
X78773329Y-116693486D01*
X78652429Y-116948996D01*
X78583700Y-117223184D01*
X78569783Y-117505512D01*
X62992000Y-117505512D01*
X62992000Y-112233967D01*
X68850000Y-112233967D01*
X68850000Y-112556033D01*
X68912832Y-112871912D01*
X69036082Y-113169463D01*
X69215013Y-113437252D01*
X69442748Y-113664987D01*
X69710537Y-113843918D01*
X70008088Y-113967168D01*
X70323967Y-114030000D01*
X70514869Y-114030000D01*
X72183009Y-115698141D01*
X72218551Y-115741449D01*
X72391377Y-115883284D01*
X72588553Y-115988676D01*
X72802501Y-116053577D01*
X72969248Y-116070000D01*
X72969257Y-116070000D01*
X73024999Y-116075490D01*
X73080741Y-116070000D01*
X79125716Y-116070000D01*
X79295869Y-116183692D01*
X79268486Y-116198329D01*
X79196903Y-116442298D01*
X80010000Y-117255395D01*
X80823097Y-116442298D01*
X80751514Y-116198329D01*
X80722659Y-116184676D01*
X80894284Y-116070000D01*
X89670001Y-116070000D01*
X89670000Y-118735998D01*
X89606068Y-118813899D01*
X89535000Y-118946858D01*
X89463932Y-118813899D01*
X89284608Y-118595392D01*
X89066101Y-118416068D01*
X88816808Y-118282818D01*
X88546309Y-118200764D01*
X88265000Y-118173057D01*
X87983692Y-118200764D01*
X87713193Y-118282818D01*
X87463900Y-118416068D01*
X87245393Y-118595392D01*
X87066068Y-118813899D01*
X86995000Y-118946858D01*
X86923932Y-118813899D01*
X86744608Y-118595392D01*
X86526101Y-118416068D01*
X86276808Y-118282818D01*
X86006309Y-118200764D01*
X85725000Y-118173057D01*
X85443692Y-118200764D01*
X85173193Y-118282818D01*
X84923900Y-118416068D01*
X84705393Y-118595392D01*
X84526068Y-118813899D01*
X84457735Y-118941741D01*
X84307601Y-118712161D01*
X84109895Y-118510500D01*
X83876646Y-118351285D01*
X83616818Y-118240633D01*
X83534039Y-118223096D01*
X83312000Y-118345085D01*
X83312000Y-119888000D01*
X83332000Y-119888000D01*
X83332000Y-120142000D01*
X83312000Y-120142000D01*
X83312000Y-121684915D01*
X83534039Y-121806904D01*
X83616818Y-121789367D01*
X83876646Y-121678715D01*
X84109895Y-121519500D01*
X84307601Y-121317839D01*
X84457735Y-121088258D01*
X84526068Y-121216100D01*
X84590001Y-121294002D01*
X84590000Y-123769248D01*
X84584509Y-123825000D01*
X84590000Y-123880751D01*
X84606423Y-124047498D01*
X84671324Y-124261446D01*
X84776716Y-124458623D01*
X84918551Y-124631449D01*
X84961865Y-124666996D01*
X87423009Y-127128141D01*
X87458551Y-127171449D01*
X87631377Y-127313284D01*
X87828553Y-127418676D01*
X88042501Y-127483577D01*
X88209248Y-127500000D01*
X88209257Y-127500000D01*
X88264999Y-127505490D01*
X88320741Y-127500000D01*
X94284893Y-127500000D01*
X94303368Y-127518475D01*
X94546589Y-127680990D01*
X94816842Y-127792932D01*
X95103740Y-127850000D01*
X95396260Y-127850000D01*
X95683158Y-127792932D01*
X95953411Y-127680990D01*
X96196632Y-127518475D01*
X96215107Y-127500000D01*
X98094893Y-127500000D01*
X98113368Y-127518475D01*
X98356589Y-127680990D01*
X98626842Y-127792932D01*
X98913740Y-127850000D01*
X99206260Y-127850000D01*
X99493158Y-127792932D01*
X99763411Y-127680990D01*
X100006632Y-127518475D01*
X100213475Y-127311632D01*
X100375990Y-127068411D01*
X100487932Y-126798158D01*
X100545000Y-126511260D01*
X100545000Y-126218740D01*
X100487932Y-125931842D01*
X100375990Y-125661589D01*
X100213475Y-125418368D01*
X100006632Y-125211525D01*
X99832240Y-125095000D01*
X100006632Y-124978475D01*
X100213475Y-124771632D01*
X100375990Y-124528411D01*
X100487932Y-124258158D01*
X100545000Y-123971260D01*
X100545000Y-123678740D01*
X100487932Y-123391842D01*
X100375990Y-123121589D01*
X100213475Y-122878368D01*
X100081620Y-122746513D01*
X100154180Y-122724502D01*
X100264494Y-122665537D01*
X100361185Y-122586185D01*
X100440537Y-122489494D01*
X100499502Y-122379180D01*
X100535812Y-122259482D01*
X100548072Y-122135000D01*
X100545000Y-121570750D01*
X100386250Y-121412000D01*
X99187000Y-121412000D01*
X99187000Y-121432000D01*
X98933000Y-121432000D01*
X98933000Y-121412000D01*
X97733750Y-121412000D01*
X97575000Y-121570750D01*
X97571928Y-122135000D01*
X97584188Y-122259482D01*
X97620498Y-122379180D01*
X97679463Y-122489494D01*
X97758815Y-122586185D01*
X97855506Y-122665537D01*
X97901272Y-122690000D01*
X96408728Y-122690000D01*
X96454494Y-122665537D01*
X96551185Y-122586185D01*
X96630537Y-122489494D01*
X96689502Y-122379180D01*
X96725812Y-122259482D01*
X96738072Y-122135000D01*
X96735000Y-121570750D01*
X96576250Y-121412000D01*
X95377000Y-121412000D01*
X95377000Y-121432000D01*
X95123000Y-121432000D01*
X95123000Y-121412000D01*
X93923750Y-121412000D01*
X93765000Y-121570750D01*
X93761928Y-122135000D01*
X93774188Y-122259482D01*
X93810498Y-122379180D01*
X93869463Y-122489494D01*
X93948815Y-122586185D01*
X94045506Y-122665537D01*
X94091272Y-122690000D01*
X90005132Y-122690000D01*
X89400000Y-122084869D01*
X89400000Y-121294002D01*
X89463932Y-121216101D01*
X89535000Y-121083142D01*
X89606068Y-121216100D01*
X89785392Y-121434607D01*
X90003899Y-121613932D01*
X90253192Y-121747182D01*
X90523691Y-121829236D01*
X90805000Y-121856943D01*
X91086308Y-121829236D01*
X91356807Y-121747182D01*
X91606100Y-121613932D01*
X91824607Y-121434608D01*
X92003932Y-121216101D01*
X92137182Y-120966808D01*
X92219236Y-120696309D01*
X92240000Y-120485492D01*
X92240000Y-120435000D01*
X93761928Y-120435000D01*
X93765000Y-120999250D01*
X93923750Y-121158000D01*
X95123000Y-121158000D01*
X95123000Y-119958750D01*
X95377000Y-119958750D01*
X95377000Y-121158000D01*
X96576250Y-121158000D01*
X96735000Y-120999250D01*
X96738072Y-120435000D01*
X97571928Y-120435000D01*
X97575000Y-120999250D01*
X97733750Y-121158000D01*
X98933000Y-121158000D01*
X98933000Y-119958750D01*
X99187000Y-119958750D01*
X99187000Y-121158000D01*
X100386250Y-121158000D01*
X100545000Y-120999250D01*
X100548072Y-120435000D01*
X100535812Y-120310518D01*
X100499502Y-120190820D01*
X100440537Y-120080506D01*
X100361185Y-119983815D01*
X100264494Y-119904463D01*
X100154180Y-119845498D01*
X100034482Y-119809188D01*
X99910000Y-119796928D01*
X99345750Y-119800000D01*
X99187000Y-119958750D01*
X98933000Y-119958750D01*
X98774250Y-119800000D01*
X98210000Y-119796928D01*
X98085518Y-119809188D01*
X97965820Y-119845498D01*
X97855506Y-119904463D01*
X97758815Y-119983815D01*
X97679463Y-120080506D01*
X97620498Y-120190820D01*
X97584188Y-120310518D01*
X97571928Y-120435000D01*
X96738072Y-120435000D01*
X96725812Y-120310518D01*
X96689502Y-120190820D01*
X96630537Y-120080506D01*
X96551185Y-119983815D01*
X96454494Y-119904463D01*
X96344180Y-119845498D01*
X96224482Y-119809188D01*
X96100000Y-119796928D01*
X95535750Y-119800000D01*
X95377000Y-119958750D01*
X95123000Y-119958750D01*
X94964250Y-119800000D01*
X94400000Y-119796928D01*
X94275518Y-119809188D01*
X94155820Y-119845498D01*
X94045506Y-119904463D01*
X93948815Y-119983815D01*
X93869463Y-120080506D01*
X93810498Y-120190820D01*
X93774188Y-120310518D01*
X93761928Y-120435000D01*
X92240000Y-120435000D01*
X92240000Y-119544509D01*
X92219236Y-119333691D01*
X92137182Y-119063192D01*
X92003932Y-118813899D01*
X91940000Y-118735998D01*
X91940000Y-116070000D01*
X107894249Y-116070000D01*
X107950000Y-116075491D01*
X108005751Y-116070000D01*
X108005752Y-116070000D01*
X108172499Y-116053577D01*
X108386447Y-115988676D01*
X108583623Y-115883284D01*
X108756449Y-115741449D01*
X108791996Y-115698135D01*
X110618141Y-113871991D01*
X110661449Y-113836449D01*
X110803284Y-113663623D01*
X110908676Y-113466447D01*
X110973577Y-113252499D01*
X110990000Y-113085752D01*
X110990000Y-113085751D01*
X110995491Y-113030000D01*
X110990000Y-112974248D01*
X110990000Y-112687153D01*
X111015147Y-112813574D01*
X111123320Y-113074727D01*
X111280363Y-113309759D01*
X111480241Y-113509637D01*
X111715273Y-113666680D01*
X111976426Y-113774853D01*
X112253665Y-113830000D01*
X112536335Y-113830000D01*
X112813574Y-113774853D01*
X113074727Y-113666680D01*
X113309759Y-113509637D01*
X113509637Y-113309759D01*
X113666680Y-113074727D01*
X113774853Y-112813574D01*
X113830000Y-112536335D01*
X113830000Y-112253665D01*
X113774853Y-111976426D01*
X113666680Y-111715273D01*
X113530000Y-111510716D01*
X113530000Y-109864002D01*
X113593932Y-109786101D01*
X113665000Y-109653142D01*
X113736068Y-109786101D01*
X113915393Y-110004608D01*
X114133900Y-110183932D01*
X114383193Y-110317182D01*
X114653692Y-110399236D01*
X114935000Y-110426943D01*
X115216309Y-110399236D01*
X115486808Y-110317182D01*
X115736101Y-110183932D01*
X115954608Y-110004608D01*
X116133932Y-109786101D01*
X116267182Y-109536808D01*
X116349236Y-109266309D01*
X116370000Y-109055491D01*
X116370000Y-108114508D01*
X116349236Y-107903691D01*
X116267182Y-107633192D01*
X116133932Y-107383899D01*
X115954607Y-107165392D01*
X115736100Y-106986068D01*
X115486807Y-106852818D01*
X115216308Y-106770764D01*
X114935000Y-106743057D01*
X114653691Y-106770764D01*
X114383192Y-106852818D01*
X114133899Y-106986068D01*
X113915392Y-107165393D01*
X113736068Y-107383900D01*
X113665000Y-107516858D01*
X113593932Y-107383899D01*
X113414607Y-107165392D01*
X113196100Y-106986068D01*
X112946807Y-106852818D01*
X112676308Y-106770764D01*
X112395000Y-106743057D01*
X112113691Y-106770764D01*
X111843192Y-106852818D01*
X111593899Y-106986068D01*
X111375392Y-107165393D01*
X111196068Y-107383900D01*
X111125000Y-107516858D01*
X111053932Y-107383899D01*
X110874607Y-107165392D01*
X110656100Y-106986068D01*
X110406807Y-106852818D01*
X110136308Y-106770764D01*
X109855000Y-106743057D01*
X109573691Y-106770764D01*
X109303192Y-106852818D01*
X109053899Y-106986068D01*
X108835392Y-107165393D01*
X108742581Y-107278483D01*
X108740812Y-107260518D01*
X108704502Y-107140820D01*
X108645537Y-107030506D01*
X108566185Y-106933815D01*
X108469494Y-106854463D01*
X108359180Y-106795498D01*
X108239482Y-106759188D01*
X108115000Y-106746928D01*
X106515000Y-106746928D01*
X106390518Y-106759188D01*
X106270820Y-106795498D01*
X106160506Y-106854463D01*
X106063815Y-106933815D01*
X105984463Y-107030506D01*
X105925498Y-107140820D01*
X105889188Y-107260518D01*
X105876928Y-107385000D01*
X105876928Y-109785000D01*
X105889188Y-109909482D01*
X105925498Y-110029180D01*
X105984463Y-110139494D01*
X106063815Y-110236185D01*
X106160506Y-110315537D01*
X106270820Y-110374502D01*
X106390518Y-110410812D01*
X106515000Y-110423072D01*
X108115000Y-110423072D01*
X108239482Y-110410812D01*
X108359180Y-110374502D01*
X108469494Y-110315537D01*
X108566185Y-110236185D01*
X108645537Y-110139494D01*
X108704502Y-110029180D01*
X108720001Y-109978088D01*
X108720000Y-112559868D01*
X107479869Y-113800000D01*
X99987153Y-113800000D01*
X100113574Y-113774853D01*
X100374727Y-113666680D01*
X100609759Y-113509637D01*
X100809637Y-113309759D01*
X100966680Y-113074727D01*
X101074853Y-112813574D01*
X101130000Y-112536335D01*
X101130000Y-112253665D01*
X101074853Y-111976426D01*
X100966680Y-111715273D01*
X100809637Y-111480241D01*
X100609759Y-111280363D01*
X100374727Y-111123320D01*
X100113574Y-111015147D01*
X99836335Y-110960000D01*
X99553665Y-110960000D01*
X99276426Y-111015147D01*
X99015273Y-111123320D01*
X98810716Y-111260000D01*
X92243072Y-111260000D01*
X92243072Y-111195000D01*
X92230812Y-111070518D01*
X92194502Y-110950820D01*
X92135537Y-110840506D01*
X92056185Y-110743815D01*
X91959494Y-110664463D01*
X91849180Y-110605498D01*
X91729482Y-110569188D01*
X91605000Y-110556928D01*
X90005000Y-110556928D01*
X89880518Y-110569188D01*
X89760820Y-110605498D01*
X89650506Y-110664463D01*
X89553815Y-110743815D01*
X89474463Y-110840506D01*
X89415498Y-110950820D01*
X89379188Y-111070518D01*
X89378019Y-111082387D01*
X89189895Y-110890500D01*
X88956646Y-110731285D01*
X88696818Y-110620633D01*
X88614039Y-110603096D01*
X88392000Y-110725085D01*
X88392000Y-112268000D01*
X88412000Y-112268000D01*
X88412000Y-112522000D01*
X88392000Y-112522000D01*
X88392000Y-112542000D01*
X88138000Y-112542000D01*
X88138000Y-112522000D01*
X85852000Y-112522000D01*
X85852000Y-112542000D01*
X85598000Y-112542000D01*
X85598000Y-112522000D01*
X83312000Y-112522000D01*
X83312000Y-112542000D01*
X83058000Y-112542000D01*
X83058000Y-112522000D01*
X81750000Y-112522000D01*
X81750000Y-112922000D01*
X81802350Y-113199514D01*
X81907834Y-113461483D01*
X82062399Y-113697839D01*
X82162556Y-113800000D01*
X80894284Y-113800000D01*
X80689727Y-113663320D01*
X80428574Y-113555147D01*
X80151335Y-113500000D01*
X79868665Y-113500000D01*
X79591426Y-113555147D01*
X79330273Y-113663320D01*
X79125716Y-113800000D01*
X73495132Y-113800000D01*
X72120000Y-112424869D01*
X72120000Y-112233967D01*
X72057168Y-111918088D01*
X72036421Y-111868000D01*
X81750000Y-111868000D01*
X81750000Y-112268000D01*
X83058000Y-112268000D01*
X83058000Y-110725085D01*
X83312000Y-110725085D01*
X83312000Y-112268000D01*
X85598000Y-112268000D01*
X85598000Y-110725085D01*
X85852000Y-110725085D01*
X85852000Y-112268000D01*
X88138000Y-112268000D01*
X88138000Y-110725085D01*
X87915961Y-110603096D01*
X87833182Y-110620633D01*
X87573354Y-110731285D01*
X87340105Y-110890500D01*
X87142399Y-111092161D01*
X86995000Y-111317559D01*
X86847601Y-111092161D01*
X86649895Y-110890500D01*
X86416646Y-110731285D01*
X86156818Y-110620633D01*
X86074039Y-110603096D01*
X85852000Y-110725085D01*
X85598000Y-110725085D01*
X85375961Y-110603096D01*
X85293182Y-110620633D01*
X85033354Y-110731285D01*
X84800105Y-110890500D01*
X84602399Y-111092161D01*
X84455000Y-111317559D01*
X84307601Y-111092161D01*
X84109895Y-110890500D01*
X83876646Y-110731285D01*
X83616818Y-110620633D01*
X83534039Y-110603096D01*
X83312000Y-110725085D01*
X83058000Y-110725085D01*
X82835961Y-110603096D01*
X82753182Y-110620633D01*
X82493354Y-110731285D01*
X82260105Y-110890500D01*
X82062399Y-111092161D01*
X81907834Y-111328517D01*
X81802350Y-111590486D01*
X81750000Y-111868000D01*
X72036421Y-111868000D01*
X71933918Y-111620537D01*
X71754987Y-111352748D01*
X71527252Y-111125013D01*
X71259463Y-110946082D01*
X70961912Y-110822832D01*
X70646033Y-110760000D01*
X70323967Y-110760000D01*
X70008088Y-110822832D01*
X69710537Y-110946082D01*
X69442748Y-111125013D01*
X69215013Y-111352748D01*
X69036082Y-111620537D01*
X68912832Y-111918088D01*
X68850000Y-112233967D01*
X62992000Y-112233967D01*
X62992000Y-108450413D01*
X69529192Y-108450413D01*
X69624956Y-108714814D01*
X69914571Y-108855704D01*
X70226108Y-108937384D01*
X70547595Y-108956718D01*
X70866675Y-108912961D01*
X71171088Y-108807795D01*
X71345044Y-108714814D01*
X71440808Y-108450413D01*
X70485000Y-107494605D01*
X69529192Y-108450413D01*
X62992000Y-108450413D01*
X62992000Y-106172000D01*
X69305442Y-106172000D01*
X69233917Y-106243525D01*
G37*
X69233917Y-106243525D02*
X69349585Y-106359193D01*
X69085186Y-106454956D01*
X68944296Y-106744571D01*
X68862616Y-107056108D01*
X68843282Y-107377595D01*
X68887039Y-107696675D01*
X68992205Y-108001088D01*
X69085186Y-108175044D01*
X69349587Y-108270808D01*
X70305395Y-107315000D01*
X70291253Y-107300858D01*
X70470858Y-107121253D01*
X70485000Y-107135395D01*
X70499143Y-107121253D01*
X70678748Y-107300858D01*
X70664605Y-107315000D01*
X71620413Y-108270808D01*
X71884814Y-108175044D01*
X72025704Y-107885429D01*
X72107384Y-107573892D01*
X72126718Y-107252405D01*
X72082961Y-106933325D01*
X71977795Y-106628912D01*
X71884814Y-106454956D01*
X71620415Y-106359193D01*
X71736083Y-106243525D01*
X71664558Y-106172000D01*
X123063000Y-106172000D01*
X123063000Y-131318000D01*
X62992000Y-131318000D01*
X62992000Y-120142000D01*
X81750000Y-120142000D01*
X81750000Y-120542000D01*
X81802350Y-120819514D01*
X81907834Y-121081483D01*
X82062399Y-121317839D01*
X82260105Y-121519500D01*
X82493354Y-121678715D01*
X82753182Y-121789367D01*
X82835961Y-121806904D01*
X83058000Y-121684915D01*
X83058000Y-120142000D01*
X81750000Y-120142000D01*
X62992000Y-120142000D01*
X62992000Y-119488000D01*
X81750000Y-119488000D01*
X81750000Y-119888000D01*
X83058000Y-119888000D01*
X83058000Y-118345085D01*
X82835961Y-118223096D01*
X82753182Y-118240633D01*
X82493354Y-118351285D01*
X82260105Y-118510500D01*
X82062399Y-118712161D01*
X81907834Y-118948517D01*
X81802350Y-119210486D01*
X81750000Y-119488000D01*
X62992000Y-119488000D01*
X62992000Y-118427702D01*
X79196903Y-118427702D01*
X79268486Y-118671671D01*
X79523996Y-118792571D01*
X79798184Y-118861300D01*
X80080512Y-118875217D01*
X80360130Y-118833787D01*
X80626292Y-118738603D01*
X80751514Y-118671671D01*
X80823097Y-118427702D01*
X80010000Y-117614605D01*
X79196903Y-118427702D01*
X62992000Y-118427702D01*
X62992000Y-117505512D01*
X78569783Y-117505512D01*
X78611213Y-117785130D01*
X78706397Y-118051292D01*
X78773329Y-118176514D01*
X79017298Y-118248097D01*
X79830395Y-117435000D01*
X80189605Y-117435000D01*
X81002702Y-118248097D01*
X81246671Y-118176514D01*
X81367571Y-117921004D01*
X81436300Y-117646816D01*
X81450217Y-117364488D01*
X81408787Y-117084870D01*
X81313603Y-116818708D01*
X81246671Y-116693486D01*
X81002702Y-116621903D01*
X80189605Y-117435000D01*
X79830395Y-117435000D01*
X79017298Y-116621903D01*
X78773329Y-116693486D01*
X78652429Y-116948996D01*
X78583700Y-117223184D01*
X78569783Y-117505512D01*
X62992000Y-117505512D01*
X62992000Y-112233967D01*
X68850000Y-112233967D01*
X68850000Y-112556033D01*
X68912832Y-112871912D01*
X69036082Y-113169463D01*
X69215013Y-113437252D01*
X69442748Y-113664987D01*
X69710537Y-113843918D01*
X70008088Y-113967168D01*
X70323967Y-114030000D01*
X70514869Y-114030000D01*
X72183009Y-115698141D01*
X72218551Y-115741449D01*
X72391377Y-115883284D01*
X72588553Y-115988676D01*
X72802501Y-116053577D01*
X72969248Y-116070000D01*
X72969257Y-116070000D01*
X73024999Y-116075490D01*
X73080741Y-116070000D01*
X79125716Y-116070000D01*
X79295869Y-116183692D01*
X79268486Y-116198329D01*
X79196903Y-116442298D01*
X80010000Y-117255395D01*
X80823097Y-116442298D01*
X80751514Y-116198329D01*
X80722659Y-116184676D01*
X80894284Y-116070000D01*
X89670001Y-116070000D01*
X89670000Y-118735998D01*
X89606068Y-118813899D01*
X89535000Y-118946858D01*
X89463932Y-118813899D01*
X89284608Y-118595392D01*
X89066101Y-118416068D01*
X88816808Y-118282818D01*
X88546309Y-118200764D01*
X88265000Y-118173057D01*
X87983692Y-118200764D01*
X87713193Y-118282818D01*
X87463900Y-118416068D01*
X87245393Y-118595392D01*
X87066068Y-118813899D01*
X86995000Y-118946858D01*
X86923932Y-118813899D01*
X86744608Y-118595392D01*
X86526101Y-118416068D01*
X86276808Y-118282818D01*
X86006309Y-118200764D01*
X85725000Y-118173057D01*
X85443692Y-118200764D01*
X85173193Y-118282818D01*
X84923900Y-118416068D01*
X84705393Y-118595392D01*
X84526068Y-118813899D01*
X84457735Y-118941741D01*
X84307601Y-118712161D01*
X84109895Y-118510500D01*
X83876646Y-118351285D01*
X83616818Y-118240633D01*
X83534039Y-118223096D01*
X83312000Y-118345085D01*
X83312000Y-119888000D01*
X83332000Y-119888000D01*
X83332000Y-120142000D01*
X83312000Y-120142000D01*
X83312000Y-121684915D01*
X83534039Y-121806904D01*
X83616818Y-121789367D01*
X83876646Y-121678715D01*
X84109895Y-121519500D01*
X84307601Y-121317839D01*
X84457735Y-121088258D01*
X84526068Y-121216100D01*
X84590001Y-121294002D01*
X84590000Y-123769248D01*
X84584509Y-123825000D01*
X84590000Y-123880751D01*
X84606423Y-124047498D01*
X84671324Y-124261446D01*
X84776716Y-124458623D01*
X84918551Y-124631449D01*
X84961865Y-124666996D01*
X87423009Y-127128141D01*
X87458551Y-127171449D01*
X87631377Y-127313284D01*
X87828553Y-127418676D01*
X88042501Y-127483577D01*
X88209248Y-127500000D01*
X88209257Y-127500000D01*
X88264999Y-127505490D01*
X88320741Y-127500000D01*
X94284893Y-127500000D01*
X94303368Y-127518475D01*
X94546589Y-127680990D01*
X94816842Y-127792932D01*
X95103740Y-127850000D01*
X95396260Y-127850000D01*
X95683158Y-127792932D01*
X95953411Y-127680990D01*
X96196632Y-127518475D01*
X96215107Y-127500000D01*
X98094893Y-127500000D01*
X98113368Y-127518475D01*
X98356589Y-127680990D01*
X98626842Y-127792932D01*
X98913740Y-127850000D01*
X99206260Y-127850000D01*
X99493158Y-127792932D01*
X99763411Y-127680990D01*
X100006632Y-127518475D01*
X100213475Y-127311632D01*
X100375990Y-127068411D01*
X100487932Y-126798158D01*
X100545000Y-126511260D01*
X100545000Y-126218740D01*
X100487932Y-125931842D01*
X100375990Y-125661589D01*
X100213475Y-125418368D01*
X100006632Y-125211525D01*
X99832240Y-125095000D01*
X100006632Y-124978475D01*
X100213475Y-124771632D01*
X100375990Y-124528411D01*
X100487932Y-124258158D01*
X100545000Y-123971260D01*
X100545000Y-123678740D01*
X100487932Y-123391842D01*
X100375990Y-123121589D01*
X100213475Y-122878368D01*
X100081620Y-122746513D01*
X100154180Y-122724502D01*
X100264494Y-122665537D01*
X100361185Y-122586185D01*
X100440537Y-122489494D01*
X100499502Y-122379180D01*
X100535812Y-122259482D01*
X100548072Y-122135000D01*
X100545000Y-121570750D01*
X100386250Y-121412000D01*
X99187000Y-121412000D01*
X99187000Y-121432000D01*
X98933000Y-121432000D01*
X98933000Y-121412000D01*
X97733750Y-121412000D01*
X97575000Y-121570750D01*
X97571928Y-122135000D01*
X97584188Y-122259482D01*
X97620498Y-122379180D01*
X97679463Y-122489494D01*
X97758815Y-122586185D01*
X97855506Y-122665537D01*
X97901272Y-122690000D01*
X96408728Y-122690000D01*
X96454494Y-122665537D01*
X96551185Y-122586185D01*
X96630537Y-122489494D01*
X96689502Y-122379180D01*
X96725812Y-122259482D01*
X96738072Y-122135000D01*
X96735000Y-121570750D01*
X96576250Y-121412000D01*
X95377000Y-121412000D01*
X95377000Y-121432000D01*
X95123000Y-121432000D01*
X95123000Y-121412000D01*
X93923750Y-121412000D01*
X93765000Y-121570750D01*
X93761928Y-122135000D01*
X93774188Y-122259482D01*
X93810498Y-122379180D01*
X93869463Y-122489494D01*
X93948815Y-122586185D01*
X94045506Y-122665537D01*
X94091272Y-122690000D01*
X90005132Y-122690000D01*
X89400000Y-122084869D01*
X89400000Y-121294002D01*
X89463932Y-121216101D01*
X89535000Y-121083142D01*
X89606068Y-121216100D01*
X89785392Y-121434607D01*
X90003899Y-121613932D01*
X90253192Y-121747182D01*
X90523691Y-121829236D01*
X90805000Y-121856943D01*
X91086308Y-121829236D01*
X91356807Y-121747182D01*
X91606100Y-121613932D01*
X91824607Y-121434608D01*
X92003932Y-121216101D01*
X92137182Y-120966808D01*
X92219236Y-120696309D01*
X92240000Y-120485492D01*
X92240000Y-120435000D01*
X93761928Y-120435000D01*
X93765000Y-120999250D01*
X93923750Y-121158000D01*
X95123000Y-121158000D01*
X95123000Y-119958750D01*
X95377000Y-119958750D01*
X95377000Y-121158000D01*
X96576250Y-121158000D01*
X96735000Y-120999250D01*
X96738072Y-120435000D01*
X97571928Y-120435000D01*
X97575000Y-120999250D01*
X97733750Y-121158000D01*
X98933000Y-121158000D01*
X98933000Y-119958750D01*
X99187000Y-119958750D01*
X99187000Y-121158000D01*
X100386250Y-121158000D01*
X100545000Y-120999250D01*
X100548072Y-120435000D01*
X100535812Y-120310518D01*
X100499502Y-120190820D01*
X100440537Y-120080506D01*
X100361185Y-119983815D01*
X100264494Y-119904463D01*
X100154180Y-119845498D01*
X100034482Y-119809188D01*
X99910000Y-119796928D01*
X99345750Y-119800000D01*
X99187000Y-119958750D01*
X98933000Y-119958750D01*
X98774250Y-119800000D01*
X98210000Y-119796928D01*
X98085518Y-119809188D01*
X97965820Y-119845498D01*
X97855506Y-119904463D01*
X97758815Y-119983815D01*
X97679463Y-120080506D01*
X97620498Y-120190820D01*
X97584188Y-120310518D01*
X97571928Y-120435000D01*
X96738072Y-120435000D01*
X96725812Y-120310518D01*
X96689502Y-120190820D01*
X96630537Y-120080506D01*
X96551185Y-119983815D01*
X96454494Y-119904463D01*
X96344180Y-119845498D01*
X96224482Y-119809188D01*
X96100000Y-119796928D01*
X95535750Y-119800000D01*
X95377000Y-119958750D01*
X95123000Y-119958750D01*
X94964250Y-119800000D01*
X94400000Y-119796928D01*
X94275518Y-119809188D01*
X94155820Y-119845498D01*
X94045506Y-119904463D01*
X93948815Y-119983815D01*
X93869463Y-120080506D01*
X93810498Y-120190820D01*
X93774188Y-120310518D01*
X93761928Y-120435000D01*
X92240000Y-120435000D01*
X92240000Y-119544509D01*
X92219236Y-119333691D01*
X92137182Y-119063192D01*
X92003932Y-118813899D01*
X91940000Y-118735998D01*
X91940000Y-116070000D01*
X107894249Y-116070000D01*
X107950000Y-116075491D01*
X108005751Y-116070000D01*
X108005752Y-116070000D01*
X108172499Y-116053577D01*
X108386447Y-115988676D01*
X108583623Y-115883284D01*
X108756449Y-115741449D01*
X108791996Y-115698135D01*
X110618141Y-113871991D01*
X110661449Y-113836449D01*
X110803284Y-113663623D01*
X110908676Y-113466447D01*
X110973577Y-113252499D01*
X110990000Y-113085752D01*
X110990000Y-113085751D01*
X110995491Y-113030000D01*
X110990000Y-112974248D01*
X110990000Y-112687153D01*
X111015147Y-112813574D01*
X111123320Y-113074727D01*
X111280363Y-113309759D01*
X111480241Y-113509637D01*
X111715273Y-113666680D01*
X111976426Y-113774853D01*
X112253665Y-113830000D01*
X112536335Y-113830000D01*
X112813574Y-113774853D01*
X113074727Y-113666680D01*
X113309759Y-113509637D01*
X113509637Y-113309759D01*
X113666680Y-113074727D01*
X113774853Y-112813574D01*
X113830000Y-112536335D01*
X113830000Y-112253665D01*
X113774853Y-111976426D01*
X113666680Y-111715273D01*
X113530000Y-111510716D01*
X113530000Y-109864002D01*
X113593932Y-109786101D01*
X113665000Y-109653142D01*
X113736068Y-109786101D01*
X113915393Y-110004608D01*
X114133900Y-110183932D01*
X114383193Y-110317182D01*
X114653692Y-110399236D01*
X114935000Y-110426943D01*
X115216309Y-110399236D01*
X115486808Y-110317182D01*
X115736101Y-110183932D01*
X115954608Y-110004608D01*
X116133932Y-109786101D01*
X116267182Y-109536808D01*
X116349236Y-109266309D01*
X116370000Y-109055491D01*
X116370000Y-108114508D01*
X116349236Y-107903691D01*
X116267182Y-107633192D01*
X116133932Y-107383899D01*
X115954607Y-107165392D01*
X115736100Y-106986068D01*
X115486807Y-106852818D01*
X115216308Y-106770764D01*
X114935000Y-106743057D01*
X114653691Y-106770764D01*
X114383192Y-106852818D01*
X114133899Y-106986068D01*
X113915392Y-107165393D01*
X113736068Y-107383900D01*
X113665000Y-107516858D01*
X113593932Y-107383899D01*
X113414607Y-107165392D01*
X113196100Y-106986068D01*
X112946807Y-106852818D01*
X112676308Y-106770764D01*
X112395000Y-106743057D01*
X112113691Y-106770764D01*
X111843192Y-106852818D01*
X111593899Y-106986068D01*
X111375392Y-107165393D01*
X111196068Y-107383900D01*
X111125000Y-107516858D01*
X111053932Y-107383899D01*
X110874607Y-107165392D01*
X110656100Y-106986068D01*
X110406807Y-106852818D01*
X110136308Y-106770764D01*
X109855000Y-106743057D01*
X109573691Y-106770764D01*
X109303192Y-106852818D01*
X109053899Y-106986068D01*
X108835392Y-107165393D01*
X108742581Y-107278483D01*
X108740812Y-107260518D01*
X108704502Y-107140820D01*
X108645537Y-107030506D01*
X108566185Y-106933815D01*
X108469494Y-106854463D01*
X108359180Y-106795498D01*
X108239482Y-106759188D01*
X108115000Y-106746928D01*
X106515000Y-106746928D01*
X106390518Y-106759188D01*
X106270820Y-106795498D01*
X106160506Y-106854463D01*
X106063815Y-106933815D01*
X105984463Y-107030506D01*
X105925498Y-107140820D01*
X105889188Y-107260518D01*
X105876928Y-107385000D01*
X105876928Y-109785000D01*
X105889188Y-109909482D01*
X105925498Y-110029180D01*
X105984463Y-110139494D01*
X106063815Y-110236185D01*
X106160506Y-110315537D01*
X106270820Y-110374502D01*
X106390518Y-110410812D01*
X106515000Y-110423072D01*
X108115000Y-110423072D01*
X108239482Y-110410812D01*
X108359180Y-110374502D01*
X108469494Y-110315537D01*
X108566185Y-110236185D01*
X108645537Y-110139494D01*
X108704502Y-110029180D01*
X108720001Y-109978088D01*
X108720000Y-112559868D01*
X107479869Y-113800000D01*
X99987153Y-113800000D01*
X100113574Y-113774853D01*
X100374727Y-113666680D01*
X100609759Y-113509637D01*
X100809637Y-113309759D01*
X100966680Y-113074727D01*
X101074853Y-112813574D01*
X101130000Y-112536335D01*
X101130000Y-112253665D01*
X101074853Y-111976426D01*
X100966680Y-111715273D01*
X100809637Y-111480241D01*
X100609759Y-111280363D01*
X100374727Y-111123320D01*
X100113574Y-111015147D01*
X99836335Y-110960000D01*
X99553665Y-110960000D01*
X99276426Y-111015147D01*
X99015273Y-111123320D01*
X98810716Y-111260000D01*
X92243072Y-111260000D01*
X92243072Y-111195000D01*
X92230812Y-111070518D01*
X92194502Y-110950820D01*
X92135537Y-110840506D01*
X92056185Y-110743815D01*
X91959494Y-110664463D01*
X91849180Y-110605498D01*
X91729482Y-110569188D01*
X91605000Y-110556928D01*
X90005000Y-110556928D01*
X89880518Y-110569188D01*
X89760820Y-110605498D01*
X89650506Y-110664463D01*
X89553815Y-110743815D01*
X89474463Y-110840506D01*
X89415498Y-110950820D01*
X89379188Y-111070518D01*
X89378019Y-111082387D01*
X89189895Y-110890500D01*
X88956646Y-110731285D01*
X88696818Y-110620633D01*
X88614039Y-110603096D01*
X88392000Y-110725085D01*
X88392000Y-112268000D01*
X88412000Y-112268000D01*
X88412000Y-112522000D01*
X88392000Y-112522000D01*
X88392000Y-112542000D01*
X88138000Y-112542000D01*
X88138000Y-112522000D01*
X85852000Y-112522000D01*
X85852000Y-112542000D01*
X85598000Y-112542000D01*
X85598000Y-112522000D01*
X83312000Y-112522000D01*
X83312000Y-112542000D01*
X83058000Y-112542000D01*
X83058000Y-112522000D01*
X81750000Y-112522000D01*
X81750000Y-112922000D01*
X81802350Y-113199514D01*
X81907834Y-113461483D01*
X82062399Y-113697839D01*
X82162556Y-113800000D01*
X80894284Y-113800000D01*
X80689727Y-113663320D01*
X80428574Y-113555147D01*
X80151335Y-113500000D01*
X79868665Y-113500000D01*
X79591426Y-113555147D01*
X79330273Y-113663320D01*
X79125716Y-113800000D01*
X73495132Y-113800000D01*
X72120000Y-112424869D01*
X72120000Y-112233967D01*
X72057168Y-111918088D01*
X72036421Y-111868000D01*
X81750000Y-111868000D01*
X81750000Y-112268000D01*
X83058000Y-112268000D01*
X83058000Y-110725085D01*
X83312000Y-110725085D01*
X83312000Y-112268000D01*
X85598000Y-112268000D01*
X85598000Y-110725085D01*
X85852000Y-110725085D01*
X85852000Y-112268000D01*
X88138000Y-112268000D01*
X88138000Y-110725085D01*
X87915961Y-110603096D01*
X87833182Y-110620633D01*
X87573354Y-110731285D01*
X87340105Y-110890500D01*
X87142399Y-111092161D01*
X86995000Y-111317559D01*
X86847601Y-111092161D01*
X86649895Y-110890500D01*
X86416646Y-110731285D01*
X86156818Y-110620633D01*
X86074039Y-110603096D01*
X85852000Y-110725085D01*
X85598000Y-110725085D01*
X85375961Y-110603096D01*
X85293182Y-110620633D01*
X85033354Y-110731285D01*
X84800105Y-110890500D01*
X84602399Y-111092161D01*
X84455000Y-111317559D01*
X84307601Y-111092161D01*
X84109895Y-110890500D01*
X83876646Y-110731285D01*
X83616818Y-110620633D01*
X83534039Y-110603096D01*
X83312000Y-110725085D01*
X83058000Y-110725085D01*
X82835961Y-110603096D01*
X82753182Y-110620633D01*
X82493354Y-110731285D01*
X82260105Y-110890500D01*
X82062399Y-111092161D01*
X81907834Y-111328517D01*
X81802350Y-111590486D01*
X81750000Y-111868000D01*
X72036421Y-111868000D01*
X71933918Y-111620537D01*
X71754987Y-111352748D01*
X71527252Y-111125013D01*
X71259463Y-110946082D01*
X70961912Y-110822832D01*
X70646033Y-110760000D01*
X70323967Y-110760000D01*
X70008088Y-110822832D01*
X69710537Y-110946082D01*
X69442748Y-111125013D01*
X69215013Y-111352748D01*
X69036082Y-111620537D01*
X68912832Y-111918088D01*
X68850000Y-112233967D01*
X62992000Y-112233967D01*
X62992000Y-108450413D01*
X69529192Y-108450413D01*
X69624956Y-108714814D01*
X69914571Y-108855704D01*
X70226108Y-108937384D01*
X70547595Y-108956718D01*
X70866675Y-108912961D01*
X71171088Y-108807795D01*
X71345044Y-108714814D01*
X71440808Y-108450413D01*
X70485000Y-107494605D01*
X69529192Y-108450413D01*
X62992000Y-108450413D01*
X62992000Y-106172000D01*
X69305442Y-106172000D01*
X69233917Y-106243525D01*
G36*
X125603000Y-51530000D02*
G01*
X123187581Y-51530000D01*
X123153862Y-51533321D01*
X123131161Y-51533321D01*
X123121996Y-51534284D01*
X122782586Y-51572355D01*
X122724089Y-51584789D01*
X122665395Y-51596411D01*
X122656592Y-51599136D01*
X122331039Y-51702407D01*
X122276092Y-51725958D01*
X122220751Y-51748767D01*
X122212645Y-51753150D01*
X121913351Y-51917688D01*
X121863979Y-51951494D01*
X121814168Y-51984588D01*
X121807068Y-51990462D01*
X121545433Y-52210000D01*
X121503589Y-52252730D01*
X121461135Y-52294888D01*
X121455310Y-52302030D01*
X121241300Y-52568205D01*
X121208547Y-52618257D01*
X121175094Y-52667852D01*
X121170771Y-52675984D01*
X121170768Y-52675988D01*
X121170768Y-52675989D01*
X121012534Y-52978663D01*
X120990138Y-53034095D01*
X120966944Y-53089271D01*
X120964281Y-53098093D01*
X120867850Y-53425738D01*
X120856652Y-53484439D01*
X120844612Y-53543095D01*
X120843713Y-53552266D01*
X120812759Y-53892401D01*
X120813177Y-53952217D01*
X120812759Y-54012033D01*
X120813658Y-54021205D01*
X120849358Y-54360874D01*
X120861390Y-54419486D01*
X120872595Y-54478231D01*
X120875259Y-54487053D01*
X120976255Y-54813319D01*
X120999435Y-54868462D01*
X121021844Y-54923927D01*
X121026171Y-54932064D01*
X121188616Y-55232500D01*
X121222061Y-55282084D01*
X121254821Y-55332147D01*
X121260646Y-55339288D01*
X121478351Y-55602449D01*
X121520823Y-55644626D01*
X121562651Y-55687339D01*
X121569751Y-55693213D01*
X121834426Y-55909076D01*
X121884250Y-55942179D01*
X121933606Y-55975974D01*
X121941713Y-55980357D01*
X122243274Y-56140701D01*
X122298580Y-56163496D01*
X122353563Y-56187062D01*
X122362366Y-56189787D01*
X122689329Y-56288503D01*
X122748000Y-56300120D01*
X122806521Y-56312559D01*
X122815686Y-56313522D01*
X123155596Y-56346850D01*
X123155598Y-56346850D01*
X123187581Y-56350000D01*
X125603000Y-56350000D01*
X125603000Y-103378000D01*
X71664558Y-103378000D01*
X71736083Y-103306475D01*
X71620415Y-103190807D01*
X71884814Y-103095044D01*
X72025704Y-102805429D01*
X72107384Y-102493892D01*
X72126718Y-102172405D01*
X72082961Y-101853325D01*
X71977795Y-101548912D01*
X71884814Y-101374956D01*
X71620413Y-101279192D01*
X70664605Y-102235000D01*
X70678748Y-102249143D01*
X70499143Y-102428748D01*
X70485000Y-102414605D01*
X70470858Y-102428748D01*
X70291253Y-102249143D01*
X70305395Y-102235000D01*
X69349587Y-101279192D01*
X69085186Y-101374956D01*
X68944296Y-101664571D01*
X68862616Y-101976108D01*
X68843282Y-102297595D01*
X68887039Y-102616675D01*
X68992205Y-102921088D01*
X69085186Y-103095044D01*
X69349585Y-103190807D01*
X69233917Y-103306475D01*
X69305442Y-103378000D01*
X61087000Y-103378000D01*
X61087000Y-93067702D01*
X62726903Y-93067702D01*
X62798486Y-93311671D01*
X63053996Y-93432571D01*
X63328184Y-93501300D01*
X63610512Y-93515217D01*
X63890130Y-93473787D01*
X64156292Y-93378603D01*
X64281514Y-93311671D01*
X64353097Y-93067702D01*
X63540000Y-92254605D01*
X62726903Y-93067702D01*
X61087000Y-93067702D01*
X61087000Y-92145512D01*
X62099783Y-92145512D01*
X62141213Y-92425130D01*
X62236397Y-92691292D01*
X62303329Y-92816514D01*
X62547298Y-92888097D01*
X63360395Y-92075000D01*
X62547298Y-91261903D01*
X62303329Y-91333486D01*
X62182429Y-91588996D01*
X62113700Y-91863184D01*
X62099783Y-92145512D01*
X61087000Y-92145512D01*
X61087000Y-91082298D01*
X62726903Y-91082298D01*
X63540000Y-91895395D01*
X64353097Y-91082298D01*
X64281514Y-90838329D01*
X64026004Y-90717429D01*
X63751816Y-90648700D01*
X63469488Y-90634783D01*
X63189870Y-90676213D01*
X62923708Y-90771397D01*
X62798486Y-90838329D01*
X62726903Y-91082298D01*
X61087000Y-91082298D01*
X61087000Y-87987702D01*
X62726903Y-87987702D01*
X62798486Y-88231671D01*
X63053996Y-88352571D01*
X63328184Y-88421300D01*
X63610512Y-88435217D01*
X63890130Y-88393787D01*
X64156292Y-88298603D01*
X64281514Y-88231671D01*
X64353097Y-87987702D01*
X63540000Y-87174605D01*
X62726903Y-87987702D01*
X61087000Y-87987702D01*
X61087000Y-87065512D01*
X62099783Y-87065512D01*
X62141213Y-87345130D01*
X62236397Y-87611292D01*
X62303329Y-87736514D01*
X62547298Y-87808097D01*
X63360395Y-86995000D01*
X63719605Y-86995000D01*
X64532702Y-87808097D01*
X64776671Y-87736514D01*
X64790324Y-87707659D01*
X64905001Y-87879285D01*
X64905001Y-90114239D01*
X64899509Y-90170000D01*
X64905000Y-90225752D01*
X64905000Y-90734043D01*
X64885506Y-90744463D01*
X64788815Y-90823815D01*
X64709463Y-90920506D01*
X64650498Y-91030820D01*
X64614188Y-91150518D01*
X64601928Y-91275000D01*
X64601928Y-91282215D01*
X64532702Y-91261903D01*
X63719605Y-92075000D01*
X64532702Y-92888097D01*
X64601928Y-92867785D01*
X64601928Y-92875000D01*
X64614188Y-92999482D01*
X64650498Y-93119180D01*
X64709463Y-93229494D01*
X64788815Y-93326185D01*
X64885506Y-93405537D01*
X64905000Y-93415957D01*
X64905001Y-97734239D01*
X64899509Y-97790000D01*
X64921423Y-98012498D01*
X64986324Y-98226446D01*
X65035384Y-98318230D01*
X65091717Y-98423623D01*
X65233552Y-98596449D01*
X65276860Y-98631991D01*
X67103009Y-100458141D01*
X67138551Y-100501449D01*
X67311377Y-100643284D01*
X67508553Y-100748676D01*
X67722501Y-100813577D01*
X67945000Y-100835491D01*
X68000752Y-100830000D01*
X69307761Y-100830000D01*
X69442748Y-100964987D01*
X69551600Y-101037720D01*
X69529192Y-101099587D01*
X70485000Y-102055395D01*
X71440808Y-101099587D01*
X71418400Y-101037720D01*
X71527252Y-100964987D01*
X71662239Y-100830000D01*
X90969869Y-100830000D01*
X91282150Y-101142282D01*
X91330147Y-101383574D01*
X91438320Y-101644727D01*
X91595363Y-101879759D01*
X91795241Y-102079637D01*
X92030273Y-102236680D01*
X92291426Y-102344853D01*
X92568665Y-102400000D01*
X92851335Y-102400000D01*
X93128574Y-102344853D01*
X93389727Y-102236680D01*
X93594284Y-102100000D01*
X106080736Y-102100000D01*
X106116068Y-102166101D01*
X106295393Y-102384608D01*
X106513900Y-102563932D01*
X106763193Y-102697182D01*
X107033692Y-102779236D01*
X107315000Y-102806943D01*
X107596309Y-102779236D01*
X107866808Y-102697182D01*
X108116101Y-102563932D01*
X108334608Y-102384608D01*
X108513932Y-102166101D01*
X108585000Y-102033142D01*
X108656068Y-102166101D01*
X108835393Y-102384608D01*
X109053900Y-102563932D01*
X109303193Y-102697182D01*
X109573692Y-102779236D01*
X109855000Y-102806943D01*
X110136309Y-102779236D01*
X110406808Y-102697182D01*
X110656101Y-102563932D01*
X110874608Y-102384608D01*
X111053932Y-102166101D01*
X111125000Y-102033142D01*
X111196068Y-102166101D01*
X111375393Y-102384608D01*
X111593900Y-102563932D01*
X111843193Y-102697182D01*
X112113692Y-102779236D01*
X112395000Y-102806943D01*
X112676309Y-102779236D01*
X112946808Y-102697182D01*
X113196101Y-102563932D01*
X113414608Y-102384608D01*
X113593932Y-102166101D01*
X113662265Y-102038259D01*
X113812399Y-102267839D01*
X114010105Y-102469500D01*
X114243354Y-102628715D01*
X114503182Y-102739367D01*
X114585961Y-102756904D01*
X114808000Y-102634915D01*
X114808000Y-101092000D01*
X115062000Y-101092000D01*
X115062000Y-102634915D01*
X115284039Y-102756904D01*
X115366818Y-102739367D01*
X115626646Y-102628715D01*
X115859895Y-102469500D01*
X116057601Y-102267839D01*
X116212166Y-102031483D01*
X116317650Y-101769514D01*
X116370000Y-101492000D01*
X116370000Y-101092000D01*
X115062000Y-101092000D01*
X114808000Y-101092000D01*
X114788000Y-101092000D01*
X114788000Y-100838000D01*
X114808000Y-100838000D01*
X114808000Y-99295085D01*
X115062000Y-99295085D01*
X115062000Y-100838000D01*
X116370000Y-100838000D01*
X116370000Y-100438000D01*
X116317650Y-100160486D01*
X116212166Y-99898517D01*
X116057601Y-99662161D01*
X115887915Y-99489080D01*
X120400525Y-99489080D01*
X120484208Y-99743261D01*
X120756775Y-99874158D01*
X121049642Y-99949365D01*
X121351553Y-99965991D01*
X121650907Y-99923397D01*
X121936199Y-99823222D01*
X122085792Y-99743261D01*
X122169475Y-99489080D01*
X121285000Y-98604605D01*
X120400525Y-99489080D01*
X115887915Y-99489080D01*
X115859895Y-99460500D01*
X115626646Y-99301285D01*
X115366818Y-99190633D01*
X115284039Y-99173096D01*
X115062000Y-99295085D01*
X114808000Y-99295085D01*
X114585961Y-99173096D01*
X114503182Y-99190633D01*
X114243354Y-99301285D01*
X114010105Y-99460500D01*
X113812399Y-99662161D01*
X113662265Y-99891741D01*
X113593932Y-99763899D01*
X113414607Y-99545392D01*
X113290000Y-99443130D01*
X113290000Y-98160720D01*
X115536775Y-95913946D01*
X115570922Y-95885922D01*
X115621215Y-95824641D01*
X115642246Y-95799015D01*
X115682766Y-95749641D01*
X115765873Y-95594159D01*
X115817050Y-95425451D01*
X115830000Y-95293964D01*
X115830000Y-95293955D01*
X115834329Y-95250001D01*
X115830000Y-95206047D01*
X115830000Y-93837840D01*
X115849759Y-93824637D01*
X116049637Y-93624759D01*
X116206680Y-93389727D01*
X116314853Y-93128574D01*
X116370000Y-92851335D01*
X116370000Y-92568665D01*
X116314853Y-92291426D01*
X116206680Y-92030273D01*
X116049637Y-91795241D01*
X115849759Y-91595363D01*
X115614727Y-91438320D01*
X115353574Y-91330147D01*
X115076335Y-91275000D01*
X114793665Y-91275000D01*
X114516426Y-91330147D01*
X114255273Y-91438320D01*
X114020241Y-91595363D01*
X113820363Y-91795241D01*
X113663320Y-92030273D01*
X113555147Y-92291426D01*
X113500000Y-92568665D01*
X113500000Y-92851335D01*
X113555147Y-93128574D01*
X113663320Y-93389727D01*
X113820363Y-93624759D01*
X114020241Y-93824637D01*
X114040000Y-93837840D01*
X114040001Y-94879278D01*
X111793226Y-97126054D01*
X111759079Y-97154078D01*
X111731055Y-97188225D01*
X111731053Y-97188227D01*
X111647234Y-97290360D01*
X111564127Y-97445842D01*
X111547954Y-97499158D01*
X111512951Y-97614549D01*
X111509002Y-97654641D01*
X111495671Y-97790000D01*
X111500001Y-97833964D01*
X111500000Y-99443129D01*
X111375392Y-99545393D01*
X111196068Y-99763900D01*
X111125000Y-99896858D01*
X111053932Y-99763899D01*
X110874607Y-99545392D01*
X110656100Y-99366068D01*
X110406807Y-99232818D01*
X110136308Y-99150764D01*
X109855000Y-99123057D01*
X109573691Y-99150764D01*
X109303192Y-99232818D01*
X109053899Y-99366068D01*
X108835392Y-99545393D01*
X108656068Y-99763900D01*
X108585000Y-99896858D01*
X108513932Y-99763899D01*
X108450000Y-99685998D01*
X108450000Y-99235131D01*
X109234089Y-98451042D01*
X109436426Y-98534853D01*
X109713665Y-98590000D01*
X109996335Y-98590000D01*
X110273574Y-98534853D01*
X110534727Y-98426680D01*
X110769759Y-98269637D01*
X110969637Y-98069759D01*
X111126680Y-97834727D01*
X111234853Y-97573574D01*
X111290000Y-97296335D01*
X111290000Y-97013665D01*
X111234853Y-96736426D01*
X111126680Y-96475273D01*
X110969637Y-96240241D01*
X110769759Y-96040363D01*
X110534727Y-95883320D01*
X110273574Y-95775147D01*
X109996335Y-95720000D01*
X109713665Y-95720000D01*
X109436426Y-95775147D01*
X109175273Y-95883320D01*
X108972006Y-96019139D01*
X108925000Y-96014509D01*
X108869248Y-96020000D01*
X108702501Y-96036423D01*
X108488553Y-96101324D01*
X108291377Y-96206716D01*
X108118551Y-96348551D01*
X108083009Y-96391860D01*
X106551860Y-97923009D01*
X106508552Y-97958551D01*
X106366717Y-98131377D01*
X106365231Y-98134158D01*
X106261324Y-98328554D01*
X106196423Y-98542502D01*
X106174509Y-98765000D01*
X106180001Y-98820761D01*
X106180001Y-99685998D01*
X106116068Y-99763900D01*
X106080737Y-99830000D01*
X93594284Y-99830000D01*
X93389727Y-99693320D01*
X93128574Y-99585147D01*
X92887282Y-99537150D01*
X92281996Y-98931865D01*
X92246449Y-98888551D01*
X92073623Y-98746716D01*
X91876447Y-98641324D01*
X91662499Y-98576423D01*
X91495752Y-98560000D01*
X91495751Y-98560000D01*
X91440000Y-98554509D01*
X91384249Y-98560000D01*
X71662239Y-98560000D01*
X71527252Y-98425013D01*
X71259463Y-98246082D01*
X70961912Y-98122832D01*
X70646033Y-98060000D01*
X70323967Y-98060000D01*
X70008088Y-98122832D01*
X69710537Y-98246082D01*
X69442748Y-98425013D01*
X69307761Y-98560000D01*
X68415132Y-98560000D01*
X67175000Y-97319869D01*
X67175000Y-93415957D01*
X67194494Y-93405537D01*
X67291185Y-93326185D01*
X67370537Y-93229494D01*
X67429502Y-93119180D01*
X67465812Y-92999482D01*
X67478072Y-92875000D01*
X67478072Y-91275000D01*
X67477087Y-91265000D01*
X68330716Y-91265000D01*
X68535273Y-91401680D01*
X68796426Y-91509853D01*
X69073665Y-91565000D01*
X69356335Y-91565000D01*
X69633574Y-91509853D01*
X69894727Y-91401680D01*
X70039419Y-91305000D01*
X71110998Y-91305000D01*
X71188899Y-91368932D01*
X71438192Y-91502182D01*
X71708691Y-91584236D01*
X71919508Y-91605000D01*
X72860492Y-91605000D01*
X73071309Y-91584236D01*
X73341808Y-91502182D01*
X73591101Y-91368932D01*
X73809608Y-91189608D01*
X73988932Y-90971101D01*
X74035001Y-90884913D01*
X74035001Y-92339278D01*
X73289280Y-93085000D01*
X72882840Y-93085000D01*
X72869637Y-93065241D01*
X72669759Y-92865363D01*
X72434727Y-92708320D01*
X72173574Y-92600147D01*
X71896335Y-92545000D01*
X71613665Y-92545000D01*
X71336426Y-92600147D01*
X71075273Y-92708320D01*
X70840241Y-92865363D01*
X70640363Y-93065241D01*
X70483320Y-93300273D01*
X70375147Y-93561426D01*
X70320000Y-93838665D01*
X70320000Y-94121335D01*
X70375147Y-94398574D01*
X70483320Y-94659727D01*
X70640363Y-94894759D01*
X70840241Y-95094637D01*
X71075273Y-95251680D01*
X71336426Y-95359853D01*
X71613665Y-95415000D01*
X71896335Y-95415000D01*
X72173574Y-95359853D01*
X72434727Y-95251680D01*
X72669759Y-95094637D01*
X72869637Y-94894759D01*
X72882840Y-94875000D01*
X73616046Y-94875000D01*
X73660000Y-94879329D01*
X73703954Y-94875000D01*
X73703964Y-94875000D01*
X73835451Y-94862050D01*
X74004159Y-94810873D01*
X74159641Y-94727766D01*
X74295922Y-94615922D01*
X74323950Y-94581770D01*
X75067055Y-93838665D01*
X83020000Y-93838665D01*
X83020000Y-94121335D01*
X83075147Y-94398574D01*
X83183320Y-94659727D01*
X83340363Y-94894759D01*
X83540241Y-95094637D01*
X83775273Y-95251680D01*
X84036426Y-95359853D01*
X84313665Y-95415000D01*
X84596335Y-95415000D01*
X84873574Y-95359853D01*
X85134727Y-95251680D01*
X85369759Y-95094637D01*
X85569637Y-94894759D01*
X85580344Y-94878735D01*
X85586370Y-94879329D01*
X85630324Y-94875000D01*
X85630334Y-94875000D01*
X85761821Y-94862050D01*
X85930529Y-94810873D01*
X86086011Y-94727766D01*
X86222292Y-94615922D01*
X86250320Y-94581770D01*
X86494388Y-94337702D01*
X89396903Y-94337702D01*
X89468486Y-94581671D01*
X89723996Y-94702571D01*
X89998184Y-94771300D01*
X90280512Y-94785217D01*
X90560130Y-94743787D01*
X90826292Y-94648603D01*
X90951514Y-94581671D01*
X91023097Y-94337702D01*
X90210000Y-93524605D01*
X89396903Y-94337702D01*
X86494388Y-94337702D01*
X87416578Y-93415512D01*
X88769783Y-93415512D01*
X88811213Y-93695130D01*
X88906397Y-93961292D01*
X88973329Y-94086514D01*
X89217298Y-94158097D01*
X90030395Y-93345000D01*
X89217298Y-92531903D01*
X88973329Y-92603486D01*
X88852429Y-92858996D01*
X88783700Y-93133184D01*
X88769783Y-93415512D01*
X87416578Y-93415512D01*
X88231776Y-92600315D01*
X88265922Y-92572292D01*
X88296897Y-92534550D01*
X88377765Y-92436012D01*
X88377766Y-92436011D01*
X88422511Y-92352298D01*
X89396903Y-92352298D01*
X90210000Y-93165395D01*
X91023097Y-92352298D01*
X90951514Y-92108329D01*
X90696004Y-91987429D01*
X90421816Y-91918700D01*
X90139488Y-91904783D01*
X89859870Y-91946213D01*
X89593708Y-92041397D01*
X89468486Y-92108329D01*
X89396903Y-92352298D01*
X88422511Y-92352298D01*
X88460873Y-92280529D01*
X88512050Y-92111821D01*
X88525000Y-91980334D01*
X88525000Y-91980325D01*
X88529329Y-91936371D01*
X88525000Y-91892417D01*
X88525000Y-89067202D01*
X89356903Y-89067202D01*
X89428486Y-89311171D01*
X89683996Y-89432071D01*
X89958184Y-89500800D01*
X90240512Y-89514717D01*
X90520130Y-89473287D01*
X90786292Y-89378103D01*
X90911514Y-89311171D01*
X90983097Y-89067202D01*
X90170000Y-88254105D01*
X89356903Y-89067202D01*
X88525000Y-89067202D01*
X88525000Y-88145012D01*
X88729783Y-88145012D01*
X88771213Y-88424630D01*
X88866397Y-88690792D01*
X88933329Y-88816014D01*
X89177298Y-88887597D01*
X89990395Y-88074500D01*
X89177298Y-87261403D01*
X88933329Y-87332986D01*
X88812429Y-87588496D01*
X88743700Y-87862684D01*
X88729783Y-88145012D01*
X88525000Y-88145012D01*
X88525000Y-87081798D01*
X89356903Y-87081798D01*
X90170000Y-87894895D01*
X90983097Y-87081798D01*
X90911514Y-86837829D01*
X90656004Y-86716929D01*
X90381816Y-86648200D01*
X90099488Y-86634283D01*
X89819870Y-86675713D01*
X89553708Y-86770897D01*
X89428486Y-86837829D01*
X89356903Y-87081798D01*
X88525000Y-87081798D01*
X88525000Y-84177702D01*
X89356903Y-84177702D01*
X89428486Y-84421671D01*
X89683996Y-84542571D01*
X89958184Y-84611300D01*
X90240512Y-84625217D01*
X90520130Y-84583787D01*
X90786292Y-84488603D01*
X90911514Y-84421671D01*
X90983097Y-84177702D01*
X90170000Y-83364605D01*
X89356903Y-84177702D01*
X88525000Y-84177702D01*
X88525000Y-83255512D01*
X88729783Y-83255512D01*
X88771213Y-83535130D01*
X88866397Y-83801292D01*
X88933329Y-83926514D01*
X89177298Y-83998097D01*
X89990395Y-83185000D01*
X89177298Y-82371903D01*
X88933329Y-82443486D01*
X88812429Y-82698996D01*
X88743700Y-82973184D01*
X88729783Y-83255512D01*
X88525000Y-83255512D01*
X88525000Y-82192298D01*
X89356903Y-82192298D01*
X90170000Y-83005395D01*
X90983097Y-82192298D01*
X90911514Y-81948329D01*
X90656004Y-81827429D01*
X90381816Y-81758700D01*
X90099488Y-81744783D01*
X89819870Y-81786213D01*
X89553708Y-81881397D01*
X89428486Y-81948329D01*
X89356903Y-82192298D01*
X88525000Y-82192298D01*
X88525000Y-77205720D01*
X89270721Y-76460000D01*
X93921719Y-76460000D01*
X93634229Y-76699418D01*
X93486335Y-76670000D01*
X93203665Y-76670000D01*
X92926426Y-76725147D01*
X92665273Y-76833320D01*
X92430241Y-76990363D01*
X92230363Y-77190241D01*
X92073320Y-77425273D01*
X91965147Y-77686426D01*
X91910000Y-77963665D01*
X91910000Y-78246335D01*
X91965147Y-78523574D01*
X92073320Y-78784727D01*
X92230363Y-79019759D01*
X92430241Y-79219637D01*
X92665273Y-79376680D01*
X92926426Y-79484853D01*
X93203665Y-79540000D01*
X93486335Y-79540000D01*
X93763574Y-79484853D01*
X94024727Y-79376680D01*
X94259759Y-79219637D01*
X94459637Y-79019759D01*
X94616680Y-78784727D01*
X94724853Y-78523574D01*
X94780000Y-78246335D01*
X94780000Y-78074667D01*
X95193871Y-77730000D01*
X95500604Y-77730000D01*
X95405363Y-77825241D01*
X95248320Y-78060273D01*
X95140147Y-78321426D01*
X95085000Y-78598665D01*
X95085000Y-78881335D01*
X95140147Y-79158574D01*
X95248320Y-79419727D01*
X95405363Y-79654759D01*
X95605241Y-79854637D01*
X95840273Y-80011680D01*
X96101426Y-80119853D01*
X96378665Y-80175000D01*
X96661335Y-80175000D01*
X96938574Y-80119853D01*
X97199727Y-80011680D01*
X97434759Y-79854637D01*
X97530000Y-79759396D01*
X97530000Y-79966046D01*
X97525671Y-80010000D01*
X97530000Y-80053954D01*
X97530000Y-80053963D01*
X97542950Y-80185450D01*
X97594127Y-80354158D01*
X97677234Y-80509640D01*
X97789078Y-80645922D01*
X97823230Y-80673950D01*
X98396058Y-81246780D01*
X98424078Y-81280922D01*
X98458219Y-81308941D01*
X98458226Y-81308948D01*
X98509550Y-81351068D01*
X98560359Y-81392766D01*
X98715841Y-81475873D01*
X98884549Y-81527050D01*
X99016036Y-81540000D01*
X99016043Y-81540000D01*
X99060000Y-81544329D01*
X99103957Y-81540000D01*
X99104315Y-81540000D01*
X99096928Y-81615000D01*
X99096928Y-82215000D01*
X99104315Y-82290000D01*
X97583685Y-82290000D01*
X97402886Y-82109201D01*
X97176043Y-81957629D01*
X96923989Y-81853225D01*
X96656411Y-81800000D01*
X96383589Y-81800000D01*
X96116011Y-81853225D01*
X95863957Y-81957629D01*
X95637114Y-82109201D01*
X95456315Y-82290000D01*
X93797840Y-82290000D01*
X93784637Y-82270241D01*
X93584759Y-82070363D01*
X93349727Y-81913320D01*
X93088574Y-81805147D01*
X92811335Y-81750000D01*
X92528665Y-81750000D01*
X92251426Y-81805147D01*
X91990273Y-81913320D01*
X91755241Y-82070363D01*
X91555363Y-82270241D01*
X91421308Y-82470869D01*
X91406671Y-82443486D01*
X91162702Y-82371903D01*
X90349605Y-83185000D01*
X91162702Y-83998097D01*
X91406671Y-83926514D01*
X91420324Y-83897659D01*
X91555363Y-84099759D01*
X91755241Y-84299637D01*
X91990273Y-84456680D01*
X92251426Y-84564853D01*
X92528665Y-84620000D01*
X92811335Y-84620000D01*
X93088574Y-84564853D01*
X93349727Y-84456680D01*
X93584759Y-84299637D01*
X93784637Y-84099759D01*
X93797840Y-84080000D01*
X95456315Y-84080000D01*
X95637114Y-84260799D01*
X95863957Y-84412371D01*
X96116011Y-84516775D01*
X96383589Y-84570000D01*
X96656411Y-84570000D01*
X96923989Y-84516775D01*
X97176043Y-84412371D01*
X97253993Y-84360286D01*
X95918230Y-85696050D01*
X95884078Y-85724078D01*
X95772234Y-85860360D01*
X95689127Y-86015842D01*
X95637950Y-86184550D01*
X95625000Y-86316037D01*
X95625000Y-86316046D01*
X95620671Y-86360000D01*
X95625000Y-86403954D01*
X95625000Y-87001315D01*
X95456315Y-87170000D01*
X93791492Y-87170000D01*
X93784637Y-87159741D01*
X93584759Y-86959863D01*
X93349727Y-86802820D01*
X93088574Y-86694647D01*
X92811335Y-86639500D01*
X92528665Y-86639500D01*
X92251426Y-86694647D01*
X91990273Y-86802820D01*
X91755241Y-86959863D01*
X91555363Y-87159741D01*
X91421308Y-87360369D01*
X91406671Y-87332986D01*
X91162702Y-87261403D01*
X90349605Y-88074500D01*
X91162702Y-88887597D01*
X91406671Y-88816014D01*
X91420324Y-88787159D01*
X91555363Y-88989259D01*
X91755241Y-89189137D01*
X91990273Y-89346180D01*
X92251426Y-89454353D01*
X92528665Y-89509500D01*
X92811335Y-89509500D01*
X93088574Y-89454353D01*
X93349727Y-89346180D01*
X93584759Y-89189137D01*
X93784637Y-88989259D01*
X93804187Y-88960000D01*
X95456315Y-88960000D01*
X95637114Y-89140799D01*
X95863957Y-89292371D01*
X96116011Y-89396775D01*
X96383589Y-89450000D01*
X96656411Y-89450000D01*
X96743576Y-89432662D01*
X93966239Y-92210000D01*
X93594284Y-92210000D01*
X93389727Y-92073320D01*
X93128574Y-91965147D01*
X92851335Y-91910000D01*
X92568665Y-91910000D01*
X92291426Y-91965147D01*
X92030273Y-92073320D01*
X91795241Y-92230363D01*
X91595363Y-92430241D01*
X91461308Y-92630869D01*
X91446671Y-92603486D01*
X91202702Y-92531903D01*
X90389605Y-93345000D01*
X91202702Y-94158097D01*
X91446671Y-94086514D01*
X91460324Y-94057659D01*
X91575000Y-94229284D01*
X91575001Y-95000715D01*
X91438320Y-95205273D01*
X91330147Y-95466426D01*
X91275000Y-95743665D01*
X91275000Y-96026335D01*
X91330147Y-96303574D01*
X91438320Y-96564727D01*
X91595363Y-96799759D01*
X91795241Y-96999637D01*
X92030273Y-97156680D01*
X92291426Y-97264853D01*
X92568665Y-97320000D01*
X92851335Y-97320000D01*
X93128574Y-97264853D01*
X93389727Y-97156680D01*
X93624759Y-96999637D01*
X93824637Y-96799759D01*
X93981680Y-96564727D01*
X94089853Y-96303574D01*
X94145000Y-96026335D01*
X94145000Y-95743665D01*
X94089853Y-95466426D01*
X93981680Y-95205273D01*
X93845000Y-95000716D01*
X93845000Y-94480000D01*
X94380619Y-94480000D01*
X94436370Y-94485491D01*
X94492121Y-94480000D01*
X94492122Y-94480000D01*
X94658869Y-94463577D01*
X94872817Y-94398676D01*
X95069993Y-94293284D01*
X95242819Y-94151449D01*
X95278366Y-94108135D01*
X96260001Y-93126500D01*
X96260000Y-96027160D01*
X96240241Y-96040363D01*
X96040363Y-96240241D01*
X95883320Y-96475273D01*
X95775147Y-96736426D01*
X95720000Y-97013665D01*
X95720000Y-97296335D01*
X95775147Y-97573574D01*
X95883320Y-97834727D01*
X96040363Y-98069759D01*
X96240241Y-98269637D01*
X96475273Y-98426680D01*
X96736426Y-98534853D01*
X97013665Y-98590000D01*
X97296335Y-98590000D01*
X97573574Y-98534853D01*
X97834727Y-98426680D01*
X98069759Y-98269637D01*
X98269637Y-98069759D01*
X98426680Y-97834727D01*
X98534853Y-97573574D01*
X98590000Y-97296335D01*
X98590000Y-97013665D01*
X98534853Y-96736426D01*
X98426680Y-96475273D01*
X98269637Y-96240241D01*
X98069759Y-96040363D01*
X98050000Y-96027160D01*
X98050000Y-93080720D01*
X98063829Y-93066891D01*
X100158519Y-93066891D01*
X100255843Y-93341252D01*
X100404822Y-93591355D01*
X100599731Y-93807588D01*
X100833080Y-93981641D01*
X101095901Y-94106825D01*
X101243110Y-94151476D01*
X101473000Y-94030155D01*
X101473000Y-92837000D01*
X100279186Y-92837000D01*
X100158519Y-93066891D01*
X98063829Y-93066891D01*
X100065721Y-91065000D01*
X100412026Y-91065000D01*
X100446525Y-91116632D01*
X100653368Y-91323475D01*
X100829406Y-91441100D01*
X100599731Y-91612412D01*
X100404822Y-91828645D01*
X100255843Y-92078748D01*
X100158519Y-92353109D01*
X100279186Y-92583000D01*
X101473000Y-92583000D01*
X101473000Y-92563000D01*
X101727000Y-92563000D01*
X101727000Y-92583000D01*
X101747000Y-92583000D01*
X101747000Y-92837000D01*
X101727000Y-92837000D01*
X101727000Y-94030155D01*
X101956890Y-94151476D01*
X102104099Y-94106825D01*
X102366920Y-93981641D01*
X102600269Y-93807588D01*
X102795178Y-93591355D01*
X102864805Y-93474466D01*
X102986525Y-93656632D01*
X103193368Y-93863475D01*
X103245001Y-93897975D01*
X103245001Y-93936037D01*
X103240671Y-93980000D01*
X103245001Y-94023963D01*
X103245001Y-94023964D01*
X103254003Y-94115360D01*
X103257951Y-94155450D01*
X103309127Y-94324158D01*
X103392234Y-94479640D01*
X103475970Y-94581671D01*
X103504079Y-94615922D01*
X103538225Y-94643945D01*
X104111058Y-95216780D01*
X104139078Y-95250922D01*
X104173219Y-95278941D01*
X104173226Y-95278948D01*
X104275359Y-95362766D01*
X104430841Y-95445873D01*
X104599549Y-95497050D01*
X104731036Y-95510000D01*
X104731043Y-95510000D01*
X104775000Y-95514329D01*
X104818957Y-95510000D01*
X107906046Y-95510000D01*
X107950000Y-95514329D01*
X107993954Y-95510000D01*
X107993964Y-95510000D01*
X108125451Y-95497050D01*
X108294159Y-95445873D01*
X108449641Y-95362766D01*
X108585922Y-95250922D01*
X108613950Y-95216770D01*
X109186781Y-94643941D01*
X109220922Y-94615922D01*
X109248941Y-94581781D01*
X109248948Y-94581774D01*
X109332766Y-94479641D01*
X109415873Y-94324159D01*
X109467050Y-94155451D01*
X109470410Y-94121335D01*
X109472798Y-94097088D01*
X109713665Y-94145000D01*
X109996335Y-94145000D01*
X110273574Y-94089853D01*
X110534727Y-93981680D01*
X110769759Y-93824637D01*
X110969637Y-93624759D01*
X111126680Y-93389727D01*
X111164087Y-93299418D01*
X111237766Y-93209641D01*
X111320873Y-93054159D01*
X111372050Y-92885451D01*
X111389330Y-92710000D01*
X111372050Y-92534549D01*
X111320873Y-92365841D01*
X111237766Y-92210359D01*
X111164087Y-92120582D01*
X111126680Y-92030273D01*
X110969637Y-91795241D01*
X110769759Y-91595363D01*
X110534727Y-91438320D01*
X110273574Y-91330147D01*
X109996335Y-91275000D01*
X109713665Y-91275000D01*
X109480000Y-91321479D01*
X109480000Y-87673956D01*
X109484329Y-87630000D01*
X109480000Y-87586043D01*
X109480000Y-87586036D01*
X109467050Y-87454549D01*
X109415873Y-87285841D01*
X109332766Y-87130359D01*
X109283600Y-87070451D01*
X109248947Y-87028226D01*
X109248946Y-87028225D01*
X109220922Y-86994078D01*
X109186774Y-86966053D01*
X108756816Y-86536095D01*
X108780506Y-86555537D01*
X108890820Y-86614502D01*
X109010518Y-86650812D01*
X109135000Y-86663072D01*
X109824250Y-86660000D01*
X109983000Y-86501250D01*
X109983000Y-85852000D01*
X110237000Y-85852000D01*
X110237000Y-86501250D01*
X110395750Y-86660000D01*
X111085000Y-86663072D01*
X111209482Y-86650812D01*
X111329180Y-86614502D01*
X111439494Y-86555537D01*
X111536185Y-86476185D01*
X111615537Y-86379494D01*
X111674502Y-86269180D01*
X111710812Y-86149482D01*
X111723072Y-86025000D01*
X111720000Y-86010750D01*
X111561250Y-85852000D01*
X110237000Y-85852000D01*
X109983000Y-85852000D01*
X108658750Y-85852000D01*
X108500000Y-86010750D01*
X108496928Y-86025000D01*
X108509188Y-86149482D01*
X108545498Y-86269180D01*
X108604463Y-86379494D01*
X108623905Y-86403185D01*
X107575000Y-85354280D01*
X107575000Y-78148957D01*
X107579329Y-78105000D01*
X107575000Y-78061043D01*
X107575000Y-78061036D01*
X107562050Y-77929549D01*
X107510873Y-77760841D01*
X107427766Y-77605359D01*
X107409224Y-77582766D01*
X107343948Y-77503226D01*
X107343941Y-77503219D01*
X107315922Y-77469078D01*
X107281782Y-77441060D01*
X103533950Y-73693230D01*
X103505922Y-73659078D01*
X103369641Y-73547234D01*
X103214159Y-73464127D01*
X103045451Y-73412950D01*
X102913964Y-73400000D01*
X102913954Y-73400000D01*
X102870000Y-73395671D01*
X102826046Y-73400000D01*
X101911056Y-73400000D01*
X101809482Y-73369188D01*
X101685000Y-73356928D01*
X99735000Y-73356928D01*
X99610518Y-73369188D01*
X99490820Y-73405498D01*
X99380506Y-73464463D01*
X99283815Y-73543815D01*
X99204463Y-73640506D01*
X99145498Y-73750820D01*
X99109188Y-73870518D01*
X99096928Y-73995000D01*
X99096928Y-74595000D01*
X99104315Y-74670000D01*
X88943953Y-74670000D01*
X88899999Y-74665671D01*
X88856045Y-74670000D01*
X88856036Y-74670000D01*
X88724549Y-74682950D01*
X88555841Y-74734127D01*
X88400359Y-74817234D01*
X88264078Y-74929078D01*
X88236054Y-74963225D01*
X87028227Y-76171053D01*
X86994079Y-76199078D01*
X86966055Y-76233225D01*
X86966053Y-76233227D01*
X86882234Y-76335360D01*
X86799127Y-76490842D01*
X86747951Y-76659550D01*
X86730671Y-76835000D01*
X86735001Y-76878964D01*
X86735000Y-91565649D01*
X85402523Y-92898127D01*
X85369759Y-92865363D01*
X85134727Y-92708320D01*
X84873574Y-92600147D01*
X84596335Y-92545000D01*
X84313665Y-92545000D01*
X84036426Y-92600147D01*
X83775273Y-92708320D01*
X83540241Y-92865363D01*
X83340363Y-93065241D01*
X83183320Y-93300273D01*
X83075147Y-93561426D01*
X83020000Y-93838665D01*
X75067055Y-93838665D01*
X75531775Y-93373946D01*
X75565922Y-93345922D01*
X75594032Y-93311671D01*
X75677765Y-93209642D01*
X75677766Y-93209641D01*
X75760873Y-93054159D01*
X75812050Y-92885451D01*
X75825000Y-92753964D01*
X75825000Y-92753955D01*
X75829329Y-92710001D01*
X75825000Y-92666047D01*
X75825000Y-88943953D01*
X75829329Y-88899999D01*
X75825000Y-88856045D01*
X75825000Y-88856036D01*
X75812050Y-88724549D01*
X75760873Y-88555841D01*
X75677766Y-88400359D01*
X75637246Y-88350985D01*
X75593947Y-88298226D01*
X75593946Y-88298225D01*
X75565922Y-88264078D01*
X75531776Y-88236055D01*
X74323950Y-87028230D01*
X74295922Y-86994078D01*
X74159641Y-86882234D01*
X74004159Y-86799127D01*
X73951353Y-86783108D01*
X73809608Y-86610392D01*
X73591101Y-86431068D01*
X73458142Y-86360000D01*
X73591101Y-86288932D01*
X73809608Y-86109608D01*
X73988932Y-85891101D01*
X74122182Y-85641808D01*
X74204236Y-85371309D01*
X74231943Y-85090000D01*
X74204236Y-84808691D01*
X74175815Y-84715000D01*
X74251046Y-84715000D01*
X74295000Y-84719329D01*
X74338954Y-84715000D01*
X74338964Y-84715000D01*
X74470451Y-84702050D01*
X74639159Y-84650873D01*
X74794641Y-84567766D01*
X74930922Y-84455922D01*
X74958950Y-84421770D01*
X75531780Y-83848942D01*
X75565922Y-83820922D01*
X75593941Y-83786781D01*
X75593948Y-83786774D01*
X75677766Y-83684641D01*
X75760873Y-83529159D01*
X75812050Y-83360451D01*
X75815895Y-83321411D01*
X75825000Y-83228964D01*
X75825000Y-83228957D01*
X75829329Y-83185000D01*
X75825000Y-83141043D01*
X75825000Y-80645000D01*
X76570671Y-80645000D01*
X76575001Y-80688964D01*
X76575000Y-85681046D01*
X76570671Y-85725000D01*
X76575000Y-85768954D01*
X76575000Y-85768963D01*
X76587950Y-85900450D01*
X76639127Y-86069158D01*
X76722234Y-86224640D01*
X76834078Y-86360922D01*
X76868230Y-86388950D01*
X77441058Y-86961780D01*
X77469078Y-86995922D01*
X77503219Y-87023941D01*
X77503226Y-87023948D01*
X77569323Y-87078192D01*
X77605359Y-87107766D01*
X77760841Y-87190873D01*
X77929549Y-87242050D01*
X78061036Y-87255000D01*
X78061043Y-87255000D01*
X78105000Y-87259329D01*
X78148957Y-87255000D01*
X78224185Y-87255000D01*
X78195764Y-87348691D01*
X78168057Y-87630000D01*
X78195764Y-87911309D01*
X78277818Y-88181808D01*
X78411068Y-88431101D01*
X78590392Y-88649608D01*
X78703482Y-88742419D01*
X78685518Y-88744188D01*
X78565820Y-88780498D01*
X78455506Y-88839463D01*
X78358815Y-88918815D01*
X78279463Y-89015506D01*
X78220498Y-89125820D01*
X78184188Y-89245518D01*
X78171928Y-89370000D01*
X78171928Y-90970000D01*
X78184188Y-91094482D01*
X78220498Y-91214180D01*
X78279463Y-91324494D01*
X78358815Y-91421185D01*
X78455506Y-91500537D01*
X78565820Y-91559502D01*
X78685518Y-91595812D01*
X78810000Y-91608072D01*
X81210000Y-91608072D01*
X81334482Y-91595812D01*
X81454180Y-91559502D01*
X81564494Y-91500537D01*
X81661185Y-91421185D01*
X81740537Y-91324494D01*
X81799502Y-91214180D01*
X81835812Y-91094482D01*
X81838716Y-91065000D01*
X82506046Y-91065000D01*
X82550000Y-91069329D01*
X82593954Y-91065000D01*
X82593964Y-91065000D01*
X82725451Y-91052050D01*
X82894159Y-91000873D01*
X83049641Y-90917766D01*
X83185922Y-90805922D01*
X83213950Y-90771770D01*
X84290357Y-89695364D01*
X84313665Y-89700000D01*
X84596335Y-89700000D01*
X84873574Y-89644853D01*
X85134727Y-89536680D01*
X85369759Y-89379637D01*
X85569637Y-89179759D01*
X85726680Y-88944727D01*
X85834853Y-88683574D01*
X85890000Y-88406335D01*
X85890000Y-88123665D01*
X85834853Y-87846426D01*
X85726680Y-87585273D01*
X85569637Y-87350241D01*
X85369759Y-87150363D01*
X85134727Y-86993320D01*
X84873574Y-86885147D01*
X84596335Y-86830000D01*
X84313665Y-86830000D01*
X84036426Y-86885147D01*
X83775273Y-86993320D01*
X83540241Y-87150363D01*
X83340363Y-87350241D01*
X83183320Y-87585273D01*
X83075147Y-87846426D01*
X83020000Y-88123665D01*
X83020000Y-88406335D01*
X83024636Y-88429643D01*
X82179280Y-89275000D01*
X81838716Y-89275000D01*
X81835812Y-89245518D01*
X81799502Y-89125820D01*
X81740537Y-89015506D01*
X81661185Y-88918815D01*
X81564494Y-88839463D01*
X81454180Y-88780498D01*
X81334482Y-88744188D01*
X81316518Y-88742419D01*
X81429608Y-88649608D01*
X81608932Y-88431101D01*
X81742182Y-88181808D01*
X81824236Y-87911309D01*
X81851943Y-87630000D01*
X81824236Y-87348691D01*
X81742182Y-87078192D01*
X81608932Y-86828899D01*
X81429608Y-86610392D01*
X81211101Y-86431068D01*
X81078142Y-86360000D01*
X81211101Y-86288932D01*
X81429608Y-86109608D01*
X81608932Y-85891101D01*
X81742182Y-85641808D01*
X81824236Y-85371309D01*
X81851943Y-85090000D01*
X81824236Y-84808691D01*
X81742182Y-84538192D01*
X81608932Y-84288899D01*
X81429608Y-84070392D01*
X81211101Y-83891068D01*
X81078142Y-83820000D01*
X81211101Y-83748932D01*
X81429608Y-83569608D01*
X81531871Y-83445000D01*
X81871046Y-83445000D01*
X81915000Y-83449329D01*
X81958954Y-83445000D01*
X81958964Y-83445000D01*
X82090451Y-83432050D01*
X82259159Y-83380873D01*
X82414641Y-83297766D01*
X82550922Y-83185922D01*
X82578950Y-83151770D01*
X83151781Y-82578941D01*
X83185922Y-82550922D01*
X83213941Y-82516781D01*
X83213948Y-82516774D01*
X83297766Y-82414641D01*
X83380873Y-82259159D01*
X83432050Y-82090451D01*
X83434028Y-82070363D01*
X83445000Y-81958964D01*
X83445000Y-81958957D01*
X83449329Y-81915000D01*
X83445000Y-81871043D01*
X83445000Y-77513963D01*
X83449330Y-77470000D01*
X83445000Y-77426036D01*
X83445000Y-76584396D01*
X83540241Y-76679637D01*
X83775273Y-76836680D01*
X84036426Y-76944853D01*
X84313665Y-77000000D01*
X84596335Y-77000000D01*
X84873574Y-76944853D01*
X85134727Y-76836680D01*
X85369759Y-76679637D01*
X85569637Y-76479759D01*
X85726680Y-76244727D01*
X85834853Y-75983574D01*
X85890000Y-75706335D01*
X85890000Y-75423665D01*
X85834853Y-75146426D01*
X85726680Y-74885273D01*
X85569637Y-74650241D01*
X85369759Y-74450363D01*
X85350000Y-74437160D01*
X85350000Y-74030720D01*
X86950721Y-72430000D01*
X107544280Y-72430000D01*
X108672221Y-73557942D01*
X108604463Y-73640506D01*
X108545498Y-73750820D01*
X108509188Y-73870518D01*
X108496928Y-73995000D01*
X108496928Y-74595000D01*
X108509188Y-74719482D01*
X108545498Y-74839180D01*
X108594043Y-74930000D01*
X108545498Y-75020820D01*
X108509188Y-75140518D01*
X108496928Y-75265000D01*
X108496928Y-75865000D01*
X108509188Y-75989482D01*
X108545498Y-76109180D01*
X108594043Y-76200000D01*
X108545498Y-76290820D01*
X108509188Y-76410518D01*
X108496928Y-76535000D01*
X108496928Y-77135000D01*
X108509188Y-77259482D01*
X108545498Y-77379180D01*
X108594043Y-77470000D01*
X108545498Y-77560820D01*
X108509188Y-77680518D01*
X108496928Y-77805000D01*
X108496928Y-78405000D01*
X108509188Y-78529482D01*
X108545498Y-78649180D01*
X108594043Y-78740000D01*
X108545498Y-78830820D01*
X108509188Y-78950518D01*
X108496928Y-79075000D01*
X108496928Y-79675000D01*
X108509188Y-79799482D01*
X108545498Y-79919180D01*
X108594043Y-80010000D01*
X108545498Y-80100820D01*
X108509188Y-80220518D01*
X108496928Y-80345000D01*
X108496928Y-80945000D01*
X108509188Y-81069482D01*
X108545498Y-81189180D01*
X108594043Y-81280000D01*
X108545498Y-81370820D01*
X108509188Y-81490518D01*
X108496928Y-81615000D01*
X108496928Y-82215000D01*
X108509188Y-82339482D01*
X108545498Y-82459180D01*
X108594043Y-82550000D01*
X108545498Y-82640820D01*
X108509188Y-82760518D01*
X108496928Y-82885000D01*
X108496928Y-83485000D01*
X108509188Y-83609482D01*
X108545498Y-83729180D01*
X108594043Y-83820000D01*
X108545498Y-83910820D01*
X108509188Y-84030518D01*
X108496928Y-84155000D01*
X108496928Y-84755000D01*
X108509188Y-84879482D01*
X108545498Y-84999180D01*
X108594043Y-85090000D01*
X108545498Y-85180820D01*
X108509188Y-85300518D01*
X108496928Y-85425000D01*
X108500000Y-85439250D01*
X108658750Y-85598000D01*
X109983000Y-85598000D01*
X109983000Y-85578000D01*
X110237000Y-85578000D01*
X110237000Y-85598000D01*
X111561250Y-85598000D01*
X111599265Y-85559985D01*
X116176054Y-90136775D01*
X116204078Y-90170922D01*
X116340359Y-90282766D01*
X116495841Y-90365873D01*
X116664549Y-90417050D01*
X116796036Y-90430000D01*
X116796043Y-90430000D01*
X116840000Y-90434329D01*
X116883956Y-90430000D01*
X117359772Y-90430000D01*
X117393498Y-90541180D01*
X117452463Y-90651494D01*
X117531815Y-90748185D01*
X117628506Y-90827537D01*
X117738820Y-90886502D01*
X117858518Y-90922812D01*
X117983000Y-90935072D01*
X119507000Y-90935072D01*
X119631482Y-90922812D01*
X119751180Y-90886502D01*
X119861494Y-90827537D01*
X119958185Y-90748185D01*
X120037537Y-90651494D01*
X120096502Y-90541180D01*
X120108822Y-90500565D01*
X120499040Y-90500565D01*
X120566020Y-90740656D01*
X120815048Y-90857756D01*
X121082135Y-90924023D01*
X121357017Y-90936910D01*
X121629133Y-90895922D01*
X121888023Y-90802636D01*
X122003980Y-90740656D01*
X122070960Y-90500565D01*
X121285000Y-89714605D01*
X120499040Y-90500565D01*
X120108822Y-90500565D01*
X120132812Y-90421482D01*
X120145072Y-90297000D01*
X120145072Y-90272317D01*
X120319435Y-90320960D01*
X121105395Y-89535000D01*
X120319435Y-88749040D01*
X120145072Y-88797683D01*
X120145072Y-88773000D01*
X120132812Y-88648518D01*
X120096502Y-88528820D01*
X120037537Y-88418506D01*
X119958185Y-88321815D01*
X119861494Y-88242463D01*
X119751180Y-88183498D01*
X119631482Y-88147188D01*
X119547535Y-88138920D01*
X119635535Y-88080120D01*
X119755090Y-87960565D01*
X120499040Y-87960565D01*
X120566020Y-88200656D01*
X120696644Y-88262079D01*
X120681977Y-88267364D01*
X120566020Y-88329344D01*
X120499040Y-88569435D01*
X121285000Y-89355395D01*
X122070960Y-88569435D01*
X122003980Y-88329344D01*
X121873356Y-88267921D01*
X121888023Y-88262636D01*
X122003980Y-88200656D01*
X122070960Y-87960565D01*
X121285000Y-87174605D01*
X120499040Y-87960565D01*
X119755090Y-87960565D01*
X119830120Y-87885535D01*
X119983005Y-87656727D01*
X120012692Y-87585057D01*
X120017364Y-87598023D01*
X120079344Y-87713980D01*
X120319435Y-87780960D01*
X121105395Y-86995000D01*
X120319435Y-86209040D01*
X120079344Y-86276020D01*
X120015515Y-86411760D01*
X119983005Y-86333273D01*
X119830120Y-86104465D01*
X119635535Y-85909880D01*
X119406727Y-85756995D01*
X119329485Y-85725000D01*
X119406727Y-85693005D01*
X119635535Y-85540120D01*
X119755090Y-85420565D01*
X120499040Y-85420565D01*
X120566020Y-85660656D01*
X120696644Y-85722079D01*
X120681977Y-85727364D01*
X120566020Y-85789344D01*
X120499040Y-86029435D01*
X121285000Y-86815395D01*
X122070960Y-86029435D01*
X122003980Y-85789344D01*
X121873356Y-85727921D01*
X121888023Y-85722636D01*
X122003980Y-85660656D01*
X122070960Y-85420565D01*
X121285000Y-84634605D01*
X120499040Y-85420565D01*
X119755090Y-85420565D01*
X119830120Y-85345535D01*
X119983005Y-85116727D01*
X120012692Y-85045057D01*
X120017364Y-85058023D01*
X120079344Y-85173980D01*
X120319435Y-85240960D01*
X121105395Y-84455000D01*
X120319435Y-83669040D01*
X120079344Y-83736020D01*
X120015515Y-83871760D01*
X119983005Y-83793273D01*
X119830120Y-83564465D01*
X119635535Y-83369880D01*
X119406727Y-83216995D01*
X119329485Y-83185000D01*
X119406727Y-83153005D01*
X119635535Y-83000120D01*
X119755090Y-82880565D01*
X120499040Y-82880565D01*
X120566020Y-83120656D01*
X120696644Y-83182079D01*
X120681977Y-83187364D01*
X120566020Y-83249344D01*
X120499040Y-83489435D01*
X121285000Y-84275395D01*
X122070960Y-83489435D01*
X122003980Y-83249344D01*
X121873356Y-83187921D01*
X121888023Y-83182636D01*
X122003980Y-83120656D01*
X122070960Y-82880565D01*
X121285000Y-82094605D01*
X120499040Y-82880565D01*
X119755090Y-82880565D01*
X119830120Y-82805535D01*
X119981216Y-82579405D01*
X120015922Y-82550922D01*
X120027444Y-82536882D01*
X120079344Y-82633980D01*
X120319435Y-82700960D01*
X121105395Y-81915000D01*
X120319435Y-81129040D01*
X120079344Y-81196020D01*
X120031412Y-81297953D01*
X120015922Y-81279078D01*
X119981216Y-81250595D01*
X119830120Y-81024465D01*
X119635535Y-80829880D01*
X119406727Y-80676995D01*
X119329485Y-80645000D01*
X119406727Y-80613005D01*
X119635535Y-80460120D01*
X119755090Y-80340565D01*
X120499040Y-80340565D01*
X120566020Y-80580656D01*
X120696644Y-80642079D01*
X120681977Y-80647364D01*
X120566020Y-80709344D01*
X120499040Y-80949435D01*
X121285000Y-81735395D01*
X122070960Y-80949435D01*
X122003980Y-80709344D01*
X121873356Y-80647921D01*
X121888023Y-80642636D01*
X122003980Y-80580656D01*
X122070960Y-80340565D01*
X121285000Y-79554605D01*
X120499040Y-80340565D01*
X119755090Y-80340565D01*
X119830120Y-80265535D01*
X119983005Y-80036727D01*
X120012692Y-79965057D01*
X120017364Y-79978023D01*
X120079344Y-80093980D01*
X120319435Y-80160960D01*
X121105395Y-79375000D01*
X120319435Y-78589040D01*
X120079344Y-78656020D01*
X120015515Y-78791760D01*
X119983005Y-78713273D01*
X119830120Y-78484465D01*
X119635535Y-78289880D01*
X119406727Y-78136995D01*
X119329485Y-78105000D01*
X119406727Y-78073005D01*
X119635535Y-77920120D01*
X119755090Y-77800565D01*
X120499040Y-77800565D01*
X120566020Y-78040656D01*
X120696644Y-78102079D01*
X120681977Y-78107364D01*
X120566020Y-78169344D01*
X120499040Y-78409435D01*
X121285000Y-79195395D01*
X122070960Y-78409435D01*
X122003980Y-78169344D01*
X121873356Y-78107921D01*
X121888023Y-78102636D01*
X122003980Y-78040656D01*
X122070960Y-77800565D01*
X121285000Y-77014605D01*
X120499040Y-77800565D01*
X119755090Y-77800565D01*
X119830120Y-77725535D01*
X119983005Y-77496727D01*
X120012692Y-77425057D01*
X120017364Y-77438023D01*
X120079344Y-77553980D01*
X120319435Y-77620960D01*
X121105395Y-76835000D01*
X120319435Y-76049040D01*
X120079344Y-76116020D01*
X120015515Y-76251760D01*
X119983005Y-76173273D01*
X119830120Y-75944465D01*
X119635535Y-75749880D01*
X119406727Y-75596995D01*
X119329485Y-75565000D01*
X119406727Y-75533005D01*
X119635535Y-75380120D01*
X119755090Y-75260565D01*
X120499040Y-75260565D01*
X120566020Y-75500656D01*
X120696644Y-75562079D01*
X120681977Y-75567364D01*
X120566020Y-75629344D01*
X120499040Y-75869435D01*
X121285000Y-76655395D01*
X122070960Y-75869435D01*
X122003980Y-75629344D01*
X121873356Y-75567921D01*
X121888023Y-75562636D01*
X122003980Y-75500656D01*
X122070960Y-75260565D01*
X121285000Y-74474605D01*
X120499040Y-75260565D01*
X119755090Y-75260565D01*
X119830120Y-75185535D01*
X119983005Y-74956727D01*
X120012692Y-74885057D01*
X120017364Y-74898023D01*
X120079344Y-75013980D01*
X120319435Y-75080960D01*
X121105395Y-74295000D01*
X120319435Y-73509040D01*
X120079344Y-73576020D01*
X120015515Y-73711760D01*
X119983005Y-73633273D01*
X119830120Y-73404465D01*
X119635535Y-73209880D01*
X119406727Y-73056995D01*
X119329485Y-73025000D01*
X119406727Y-72993005D01*
X119635535Y-72840120D01*
X119755090Y-72720565D01*
X120499040Y-72720565D01*
X120566020Y-72960656D01*
X120696644Y-73022079D01*
X120681977Y-73027364D01*
X120566020Y-73089344D01*
X120499040Y-73329435D01*
X121285000Y-74115395D01*
X122070960Y-73329435D01*
X122003980Y-73089344D01*
X121873356Y-73027921D01*
X121888023Y-73022636D01*
X122003980Y-72960656D01*
X122070960Y-72720565D01*
X121285000Y-71934605D01*
X120499040Y-72720565D01*
X119755090Y-72720565D01*
X119830120Y-72645535D01*
X119983005Y-72416727D01*
X120012692Y-72345057D01*
X120017364Y-72358023D01*
X120079344Y-72473980D01*
X120319435Y-72540960D01*
X121105395Y-71755000D01*
X120319435Y-70969040D01*
X120079344Y-71036020D01*
X120015515Y-71171760D01*
X119983005Y-71093273D01*
X119830120Y-70864465D01*
X119635535Y-70669880D01*
X119406727Y-70516995D01*
X119329485Y-70485000D01*
X119406727Y-70453005D01*
X119635535Y-70300120D01*
X119755090Y-70180565D01*
X120499040Y-70180565D01*
X120566020Y-70420656D01*
X120696644Y-70482079D01*
X120681977Y-70487364D01*
X120566020Y-70549344D01*
X120499040Y-70789435D01*
X121285000Y-71575395D01*
X122070960Y-70789435D01*
X122003980Y-70549344D01*
X121873356Y-70487921D01*
X121888023Y-70482636D01*
X122003980Y-70420656D01*
X122070960Y-70180565D01*
X121285000Y-69394605D01*
X120499040Y-70180565D01*
X119755090Y-70180565D01*
X119830120Y-70105535D01*
X119983005Y-69876727D01*
X120012692Y-69805057D01*
X120017364Y-69818023D01*
X120079344Y-69933980D01*
X120319435Y-70000960D01*
X121105395Y-69215000D01*
X120319435Y-68429040D01*
X120079344Y-68496020D01*
X120015515Y-68631760D01*
X119983005Y-68553273D01*
X119830120Y-68324465D01*
X119755090Y-68249435D01*
X120499040Y-68249435D01*
X121285000Y-69035395D01*
X122070960Y-68249435D01*
X122003980Y-68009344D01*
X121754952Y-67892244D01*
X121487865Y-67825977D01*
X121212983Y-67813090D01*
X120940867Y-67854078D01*
X120681977Y-67947364D01*
X120566020Y-68009344D01*
X120499040Y-68249435D01*
X119755090Y-68249435D01*
X119635535Y-68129880D01*
X119406727Y-67976995D01*
X119152490Y-67871686D01*
X118882592Y-67818000D01*
X118607408Y-67818000D01*
X118337510Y-67871686D01*
X118083273Y-67976995D01*
X117854465Y-68129880D01*
X117664345Y-68320000D01*
X95482091Y-68320000D01*
X95140320Y-67978230D01*
X95112292Y-67944078D01*
X94976011Y-67832234D01*
X94820529Y-67749127D01*
X94651821Y-67697950D01*
X94520334Y-67685000D01*
X94520324Y-67685000D01*
X94476370Y-67680671D01*
X94470344Y-67681265D01*
X94459637Y-67665241D01*
X94259759Y-67465363D01*
X94024727Y-67308320D01*
X93763574Y-67200147D01*
X93486335Y-67145000D01*
X93203665Y-67145000D01*
X92926426Y-67200147D01*
X92665273Y-67308320D01*
X92430241Y-67465363D01*
X92230363Y-67665241D01*
X92073320Y-67900273D01*
X91965147Y-68161426D01*
X91910000Y-68438665D01*
X91910000Y-68721335D01*
X91965147Y-68998574D01*
X92073320Y-69259727D01*
X92230363Y-69494759D01*
X92430241Y-69694637D01*
X92665273Y-69851680D01*
X92926426Y-69959853D01*
X93203665Y-70015000D01*
X93486335Y-70015000D01*
X93763574Y-69959853D01*
X94024727Y-69851680D01*
X94259759Y-69694637D01*
X94292522Y-69661874D01*
X94447428Y-69816780D01*
X94475448Y-69850922D01*
X94509589Y-69878941D01*
X94509596Y-69878948D01*
X94611729Y-69962766D01*
X94767211Y-70045873D01*
X94935919Y-70097050D01*
X95067406Y-70110000D01*
X95067413Y-70110000D01*
X95111370Y-70114329D01*
X95155327Y-70110000D01*
X117664345Y-70110000D01*
X117854465Y-70300120D01*
X118083273Y-70453005D01*
X118160515Y-70485000D01*
X118083273Y-70516995D01*
X117854465Y-70669880D01*
X117664345Y-70860000D01*
X116248957Y-70860000D01*
X116205000Y-70855671D01*
X116161043Y-70860000D01*
X116161036Y-70860000D01*
X116029549Y-70872950D01*
X115860841Y-70924127D01*
X115705359Y-71007234D01*
X115603226Y-71091052D01*
X115603219Y-71091059D01*
X115569078Y-71119078D01*
X115541058Y-71153220D01*
X112024280Y-74670000D01*
X111715685Y-74670000D01*
X111723072Y-74595000D01*
X111723072Y-73995000D01*
X111710812Y-73870518D01*
X111674502Y-73750820D01*
X111615537Y-73640506D01*
X111536185Y-73543815D01*
X111439494Y-73464463D01*
X111329180Y-73405498D01*
X111209482Y-73369188D01*
X111085000Y-73356928D01*
X110742701Y-73356928D01*
X110737050Y-73299549D01*
X110685873Y-73130841D01*
X110602766Y-72975359D01*
X110545825Y-72905977D01*
X110518947Y-72873226D01*
X110518946Y-72873225D01*
X110490922Y-72839078D01*
X110456776Y-72811055D01*
X108716927Y-71071207D01*
X108697766Y-71035359D01*
X108585922Y-70899078D01*
X108449641Y-70787234D01*
X108294159Y-70704127D01*
X108125451Y-70652950D01*
X107993964Y-70640000D01*
X107958954Y-70640000D01*
X107915000Y-70635671D01*
X107871046Y-70640000D01*
X86623956Y-70640000D01*
X86580000Y-70635671D01*
X86536043Y-70640000D01*
X86536036Y-70640000D01*
X86404549Y-70652950D01*
X86235841Y-70704127D01*
X86080359Y-70787234D01*
X85986254Y-70864465D01*
X85944078Y-70899078D01*
X85916054Y-70933225D01*
X83853230Y-72996050D01*
X83819078Y-73024078D01*
X83707234Y-73160360D01*
X83624127Y-73315842D01*
X83572950Y-73484550D01*
X83560000Y-73616037D01*
X83560000Y-73616046D01*
X83555671Y-73660000D01*
X83560000Y-73703954D01*
X83560000Y-74437160D01*
X83540241Y-74450363D01*
X83445000Y-74545604D01*
X83445000Y-73068953D01*
X83449329Y-73024999D01*
X83445000Y-72981045D01*
X83445000Y-72931037D01*
X83432050Y-72799550D01*
X83430006Y-72792813D01*
X83434759Y-72789637D01*
X83634637Y-72589759D01*
X83791680Y-72354727D01*
X83899853Y-72093574D01*
X83955000Y-71816335D01*
X83955000Y-71533665D01*
X83899853Y-71256426D01*
X83791680Y-70995273D01*
X83634637Y-70760241D01*
X83434759Y-70560363D01*
X83199727Y-70403320D01*
X82938574Y-70295147D01*
X82661335Y-70240000D01*
X82378665Y-70240000D01*
X82101426Y-70295147D01*
X81840273Y-70403320D01*
X81605241Y-70560363D01*
X81405363Y-70760241D01*
X81248320Y-70995273D01*
X81140147Y-71256426D01*
X81085000Y-71533665D01*
X81085000Y-71816335D01*
X81140147Y-72093574D01*
X81248320Y-72354727D01*
X81405363Y-72589759D01*
X81605241Y-72789637D01*
X81625001Y-72802840D01*
X81625001Y-72951037D01*
X81620671Y-72995000D01*
X81625001Y-73038964D01*
X81637951Y-73170451D01*
X81649912Y-73209880D01*
X81655001Y-73226657D01*
X81655001Y-74210938D01*
X81514500Y-74005105D01*
X81312839Y-73807399D01*
X81076483Y-73652834D01*
X80814514Y-73547350D01*
X80537000Y-73495000D01*
X80137000Y-73495000D01*
X80137000Y-74803000D01*
X80157000Y-74803000D01*
X80157000Y-75057000D01*
X80137000Y-75057000D01*
X80137000Y-75077000D01*
X79883000Y-75077000D01*
X79883000Y-75057000D01*
X78340085Y-75057000D01*
X78218096Y-75279039D01*
X78235633Y-75361818D01*
X78346285Y-75621646D01*
X78505500Y-75854895D01*
X78707161Y-76052601D01*
X78936741Y-76202735D01*
X78808899Y-76271068D01*
X78590392Y-76450392D01*
X78411068Y-76668899D01*
X78277818Y-76918192D01*
X78195764Y-77188691D01*
X78168057Y-77470000D01*
X78195764Y-77751309D01*
X78277818Y-78021808D01*
X78411068Y-78271101D01*
X78590392Y-78489608D01*
X78808899Y-78668932D01*
X78941858Y-78740000D01*
X78808899Y-78811068D01*
X78590392Y-78990392D01*
X78488129Y-79115000D01*
X78148957Y-79115000D01*
X78105000Y-79110671D01*
X78061043Y-79115000D01*
X78061036Y-79115000D01*
X77929549Y-79127950D01*
X77760841Y-79179127D01*
X77605359Y-79262234D01*
X77503226Y-79346052D01*
X77503219Y-79346059D01*
X77469078Y-79374078D01*
X77441058Y-79408220D01*
X76868227Y-79981053D01*
X76834079Y-80009078D01*
X76806055Y-80043225D01*
X76806053Y-80043227D01*
X76722234Y-80145360D01*
X76639127Y-80300842D01*
X76625097Y-80347094D01*
X76587951Y-80469549D01*
X76581777Y-80532234D01*
X76570671Y-80645000D01*
X75825000Y-80645000D01*
X75825000Y-78148957D01*
X75829329Y-78105000D01*
X75825000Y-78061043D01*
X75825000Y-78061036D01*
X75812050Y-77929549D01*
X75760873Y-77760841D01*
X75677766Y-77605359D01*
X75659224Y-77582766D01*
X75593948Y-77503226D01*
X75593941Y-77503219D01*
X75565922Y-77469078D01*
X75531781Y-77441059D01*
X74958950Y-76868230D01*
X74930922Y-76834078D01*
X74794641Y-76722234D01*
X74639159Y-76639127D01*
X74470451Y-76587950D01*
X74338964Y-76575000D01*
X74338954Y-76575000D01*
X74295000Y-76570671D01*
X74251046Y-76575000D01*
X73911871Y-76575000D01*
X73809608Y-76450392D01*
X73591101Y-76271068D01*
X73458142Y-76200000D01*
X73591101Y-76128932D01*
X73809608Y-75949608D01*
X73988932Y-75731101D01*
X74122182Y-75481808D01*
X74204236Y-75211309D01*
X74231943Y-74930000D01*
X74204236Y-74648691D01*
X74183691Y-74580961D01*
X78218096Y-74580961D01*
X78340085Y-74803000D01*
X79883000Y-74803000D01*
X79883000Y-73495000D01*
X79483000Y-73495000D01*
X79205486Y-73547350D01*
X78943517Y-73652834D01*
X78707161Y-73807399D01*
X78505500Y-74005105D01*
X78346285Y-74238354D01*
X78235633Y-74498182D01*
X78218096Y-74580961D01*
X74183691Y-74580961D01*
X74122182Y-74378192D01*
X73988932Y-74128899D01*
X73809608Y-73910392D01*
X73591101Y-73731068D01*
X73341808Y-73597818D01*
X73285000Y-73580586D01*
X73285000Y-72779396D01*
X73474637Y-72589759D01*
X73631680Y-72354727D01*
X73739853Y-72093574D01*
X73795000Y-71816335D01*
X73795000Y-71533665D01*
X73739853Y-71256426D01*
X73631680Y-70995273D01*
X73474637Y-70760241D01*
X73274759Y-70560363D01*
X73039727Y-70403320D01*
X72778574Y-70295147D01*
X72501335Y-70240000D01*
X72218665Y-70240000D01*
X71941426Y-70295147D01*
X71680273Y-70403320D01*
X71445241Y-70560363D01*
X71245363Y-70760241D01*
X71088320Y-70995273D01*
X70980147Y-71256426D01*
X70925000Y-71533665D01*
X70925000Y-71816335D01*
X70980147Y-72093574D01*
X71088320Y-72354727D01*
X71245363Y-72589759D01*
X71445241Y-72789637D01*
X71495001Y-72822885D01*
X71495000Y-73580586D01*
X71438192Y-73597818D01*
X71188899Y-73731068D01*
X70970392Y-73910392D01*
X70868129Y-74035000D01*
X70713953Y-74035000D01*
X70669999Y-74030671D01*
X70626045Y-74035000D01*
X70626036Y-74035000D01*
X70494549Y-74047950D01*
X70348891Y-74092135D01*
X70325841Y-74099127D01*
X70170358Y-74182234D01*
X70101977Y-74238354D01*
X70034078Y-74294078D01*
X70006054Y-74328225D01*
X69248230Y-75086050D01*
X69214078Y-75114078D01*
X69102234Y-75250360D01*
X69019127Y-75405842D01*
X68967950Y-75574550D01*
X68955000Y-75706037D01*
X68955000Y-75706046D01*
X68950671Y-75750000D01*
X68955000Y-75793954D01*
X68955001Y-79331036D01*
X68950671Y-79375000D01*
X68955001Y-79418964D01*
X68964003Y-79510360D01*
X68967951Y-79550450D01*
X69019127Y-79719158D01*
X69102234Y-79874640D01*
X69138788Y-79919180D01*
X69214079Y-80010922D01*
X69248225Y-80038945D01*
X69821058Y-80611780D01*
X69849078Y-80645922D01*
X69883219Y-80673941D01*
X69883226Y-80673948D01*
X69958742Y-80735922D01*
X69985359Y-80757766D01*
X70140841Y-80840873D01*
X70309549Y-80892050D01*
X70441036Y-80905000D01*
X70441043Y-80905000D01*
X70485000Y-80909329D01*
X70528957Y-80905000D01*
X70868129Y-80905000D01*
X70970392Y-81029608D01*
X71188899Y-81208932D01*
X71321858Y-81280000D01*
X71188899Y-81351068D01*
X70970392Y-81530392D01*
X70791068Y-81748899D01*
X70657818Y-81998192D01*
X70575764Y-82268691D01*
X70548057Y-82550000D01*
X70575764Y-82831309D01*
X70657818Y-83101808D01*
X70791068Y-83351101D01*
X70970392Y-83569608D01*
X71188899Y-83748932D01*
X71321858Y-83820000D01*
X71188899Y-83891068D01*
X70970392Y-84070392D01*
X70791068Y-84288899D01*
X70657818Y-84538192D01*
X70575764Y-84808691D01*
X70548057Y-85090000D01*
X70575764Y-85371309D01*
X70657818Y-85641808D01*
X70791068Y-85891101D01*
X70970392Y-86109608D01*
X71188899Y-86288932D01*
X71321858Y-86360000D01*
X71188899Y-86431068D01*
X70970392Y-86610392D01*
X70791068Y-86828899D01*
X70657818Y-87078192D01*
X70604510Y-87253928D01*
X70518603Y-87013708D01*
X70451671Y-86888486D01*
X70207702Y-86816903D01*
X69394605Y-87630000D01*
X70207702Y-88443097D01*
X70451671Y-88371514D01*
X70572571Y-88116004D01*
X70602110Y-87998161D01*
X70657818Y-88181808D01*
X70791068Y-88431101D01*
X70970392Y-88649608D01*
X71188899Y-88828932D01*
X71321858Y-88900000D01*
X71188899Y-88971068D01*
X71110998Y-89035000D01*
X70149396Y-89035000D01*
X70129759Y-89015363D01*
X69929131Y-88881308D01*
X69956514Y-88866671D01*
X70028097Y-88622702D01*
X69215000Y-87809605D01*
X68401903Y-88622702D01*
X68473486Y-88866671D01*
X68502341Y-88880324D01*
X68330716Y-88995000D01*
X67175000Y-88995000D01*
X67175000Y-87879284D01*
X67294451Y-87700512D01*
X67774783Y-87700512D01*
X67816213Y-87980130D01*
X67911397Y-88246292D01*
X67978329Y-88371514D01*
X68222298Y-88443097D01*
X69035395Y-87630000D01*
X68222298Y-86816903D01*
X67978329Y-86888486D01*
X67857429Y-87143996D01*
X67788700Y-87418184D01*
X67774783Y-87700512D01*
X67294451Y-87700512D01*
X67311680Y-87674727D01*
X67419853Y-87413574D01*
X67475000Y-87136335D01*
X67475000Y-86853665D01*
X67431962Y-86637298D01*
X68401903Y-86637298D01*
X69215000Y-87450395D01*
X70028097Y-86637298D01*
X69956514Y-86393329D01*
X69701004Y-86272429D01*
X69426816Y-86203700D01*
X69144488Y-86189783D01*
X68864870Y-86231213D01*
X68598708Y-86326397D01*
X68473486Y-86393329D01*
X68401903Y-86637298D01*
X67431962Y-86637298D01*
X67419853Y-86576426D01*
X67311680Y-86315273D01*
X67175000Y-86110716D01*
X67175000Y-83457170D01*
X67215463Y-83423963D01*
X67413845Y-83182235D01*
X67561255Y-82906449D01*
X67652030Y-82607204D01*
X67682681Y-82296000D01*
X67652030Y-81984796D01*
X67561255Y-81685551D01*
X67413845Y-81409765D01*
X67215463Y-81168037D01*
X67036101Y-81020837D01*
X67221315Y-80865437D01*
X67415969Y-80622923D01*
X67559571Y-80347094D01*
X67630563Y-80128980D01*
X67510594Y-79883000D01*
X66167000Y-79883000D01*
X66167000Y-79903000D01*
X65913000Y-79903000D01*
X65913000Y-79883000D01*
X64569406Y-79883000D01*
X64449437Y-80128980D01*
X64520429Y-80347094D01*
X64664031Y-80622923D01*
X64858685Y-80865437D01*
X65043899Y-81020837D01*
X64864537Y-81168037D01*
X64666155Y-81409765D01*
X64518745Y-81685551D01*
X64427970Y-81984796D01*
X64397319Y-82296000D01*
X64427970Y-82607204D01*
X64518745Y-82906449D01*
X64666155Y-83182235D01*
X64864537Y-83423963D01*
X64905000Y-83457170D01*
X64905001Y-86110716D01*
X64791308Y-86280869D01*
X64776671Y-86253486D01*
X64532702Y-86181903D01*
X63719605Y-86995000D01*
X63360395Y-86995000D01*
X62547298Y-86181903D01*
X62303329Y-86253486D01*
X62182429Y-86508996D01*
X62113700Y-86783184D01*
X62099783Y-87065512D01*
X61087000Y-87065512D01*
X61087000Y-86002298D01*
X62726903Y-86002298D01*
X63540000Y-86815395D01*
X64353097Y-86002298D01*
X64281514Y-85758329D01*
X64026004Y-85637429D01*
X63751816Y-85568700D01*
X63469488Y-85554783D01*
X63189870Y-85596213D01*
X62923708Y-85691397D01*
X62798486Y-85758329D01*
X62726903Y-86002298D01*
X61087000Y-86002298D01*
X61087000Y-73890702D01*
X62726903Y-73890702D01*
X62798486Y-74134671D01*
X63053996Y-74255571D01*
X63328184Y-74324300D01*
X63610512Y-74338217D01*
X63890130Y-74296787D01*
X64156292Y-74201603D01*
X64281514Y-74134671D01*
X64353097Y-73890702D01*
X63540000Y-73077605D01*
X62726903Y-73890702D01*
X61087000Y-73890702D01*
X61087000Y-72968512D01*
X62099783Y-72968512D01*
X62141213Y-73248130D01*
X62236397Y-73514292D01*
X62303329Y-73639514D01*
X62547298Y-73711097D01*
X63360395Y-72898000D01*
X62547298Y-72084903D01*
X62303329Y-72156486D01*
X62182429Y-72411996D01*
X62113700Y-72686184D01*
X62099783Y-72968512D01*
X61087000Y-72968512D01*
X61087000Y-71905298D01*
X62726903Y-71905298D01*
X63540000Y-72718395D01*
X64353097Y-71905298D01*
X64281514Y-71661329D01*
X64026004Y-71540429D01*
X63751816Y-71471700D01*
X63469488Y-71457783D01*
X63189870Y-71499213D01*
X62923708Y-71594397D01*
X62798486Y-71661329D01*
X62726903Y-71905298D01*
X61087000Y-71905298D01*
X61087000Y-69572702D01*
X62726903Y-69572702D01*
X62798486Y-69816671D01*
X63053996Y-69937571D01*
X63328184Y-70006300D01*
X63610512Y-70020217D01*
X63890130Y-69978787D01*
X64156292Y-69883603D01*
X64281514Y-69816671D01*
X64353097Y-69572702D01*
X63540000Y-68759605D01*
X62726903Y-69572702D01*
X61087000Y-69572702D01*
X61087000Y-68650512D01*
X62099783Y-68650512D01*
X62141213Y-68930130D01*
X62236397Y-69196292D01*
X62303329Y-69321514D01*
X62547298Y-69393097D01*
X63360395Y-68580000D01*
X63719605Y-68580000D01*
X64532702Y-69393097D01*
X64601928Y-69372785D01*
X64601928Y-69380000D01*
X64614188Y-69504482D01*
X64650498Y-69624180D01*
X64709463Y-69734494D01*
X64788815Y-69831185D01*
X64885506Y-69910537D01*
X64905001Y-69920957D01*
X64905001Y-72013715D01*
X64791308Y-72183869D01*
X64776671Y-72156486D01*
X64532702Y-72084903D01*
X63719605Y-72898000D01*
X64532702Y-73711097D01*
X64776671Y-73639514D01*
X64790324Y-73610659D01*
X64905001Y-73782285D01*
X64905001Y-75640878D01*
X64795820Y-75673998D01*
X64685506Y-75732963D01*
X64588815Y-75812315D01*
X64509463Y-75909006D01*
X64450498Y-76019320D01*
X64414188Y-76139018D01*
X64401928Y-76263500D01*
X64401928Y-78168500D01*
X64414188Y-78292982D01*
X64450498Y-78412680D01*
X64509463Y-78522994D01*
X64588815Y-78619685D01*
X64685506Y-78699037D01*
X64777219Y-78748059D01*
X64664031Y-78889077D01*
X64520429Y-79164906D01*
X64449437Y-79383020D01*
X64569406Y-79629000D01*
X65913000Y-79629000D01*
X65913000Y-79609000D01*
X66167000Y-79609000D01*
X66167000Y-79629000D01*
X67510594Y-79629000D01*
X67630563Y-79383020D01*
X67559571Y-79164906D01*
X67415969Y-78889077D01*
X67302781Y-78748059D01*
X67394494Y-78699037D01*
X67491185Y-78619685D01*
X67570537Y-78522994D01*
X67629502Y-78412680D01*
X67665812Y-78292982D01*
X67678072Y-78168500D01*
X67678072Y-76263500D01*
X67665812Y-76139018D01*
X67629502Y-76019320D01*
X67570537Y-75909006D01*
X67491185Y-75812315D01*
X67394494Y-75732963D01*
X67284180Y-75673998D01*
X67175000Y-75640879D01*
X67175000Y-73782284D01*
X67311680Y-73577727D01*
X67419853Y-73316574D01*
X67475000Y-73039335D01*
X67475000Y-72756665D01*
X67419853Y-72479426D01*
X67311680Y-72218273D01*
X67175000Y-72013716D01*
X67175000Y-69920957D01*
X67194494Y-69910537D01*
X67291185Y-69831185D01*
X67370537Y-69734494D01*
X67380957Y-69715000D01*
X86939249Y-69715000D01*
X86995000Y-69720491D01*
X87050751Y-69715000D01*
X87050752Y-69715000D01*
X87217499Y-69698577D01*
X87431447Y-69633676D01*
X87628623Y-69528284D01*
X87801449Y-69386449D01*
X87836996Y-69343135D01*
X90933141Y-66246991D01*
X90976449Y-66211449D01*
X91118284Y-66038623D01*
X91193092Y-65898665D01*
X95085000Y-65898665D01*
X95085000Y-66181335D01*
X95140147Y-66458574D01*
X95248320Y-66719727D01*
X95405363Y-66954759D01*
X95605241Y-67154637D01*
X95840273Y-67311680D01*
X96101426Y-67419853D01*
X96378665Y-67475000D01*
X96661335Y-67475000D01*
X96938574Y-67419853D01*
X97199727Y-67311680D01*
X97434759Y-67154637D01*
X97634637Y-66954759D01*
X97647840Y-66935000D01*
X121549280Y-66935000D01*
X122370000Y-67755721D01*
X122370000Y-68462360D01*
X122250565Y-68429040D01*
X121464605Y-69215000D01*
X122250565Y-70000960D01*
X122370000Y-69967640D01*
X122370000Y-71002360D01*
X122250565Y-70969040D01*
X121464605Y-71755000D01*
X122250565Y-72540960D01*
X122370000Y-72507640D01*
X122370000Y-73542360D01*
X122250565Y-73509040D01*
X121464605Y-74295000D01*
X122250565Y-75080960D01*
X122370000Y-75047640D01*
X122370000Y-76082360D01*
X122250565Y-76049040D01*
X121464605Y-76835000D01*
X122250565Y-77620960D01*
X122370000Y-77587640D01*
X122370000Y-78622360D01*
X122250565Y-78589040D01*
X121464605Y-79375000D01*
X122250565Y-80160960D01*
X122370000Y-80127640D01*
X122370000Y-81162360D01*
X122250565Y-81129040D01*
X121464605Y-81915000D01*
X122250565Y-82700960D01*
X122370001Y-82667640D01*
X122370001Y-83702360D01*
X122250565Y-83669040D01*
X121464605Y-84455000D01*
X122250565Y-85240960D01*
X122370001Y-85207640D01*
X122370001Y-86242360D01*
X122250565Y-86209040D01*
X121464605Y-86995000D01*
X122250565Y-87780960D01*
X122370001Y-87747640D01*
X122370001Y-88782360D01*
X122250565Y-88749040D01*
X121464605Y-89535000D01*
X122250565Y-90320960D01*
X122370001Y-90287640D01*
X122370001Y-94377546D01*
X122309482Y-94359188D01*
X122185000Y-94346928D01*
X120385000Y-94346928D01*
X120260518Y-94359188D01*
X120140820Y-94395498D01*
X120030506Y-94454463D01*
X119933815Y-94533815D01*
X119854463Y-94630506D01*
X119795498Y-94740820D01*
X119759188Y-94860518D01*
X119746928Y-94985000D01*
X119746928Y-96785000D01*
X119759188Y-96909482D01*
X119795498Y-97029180D01*
X119854463Y-97139494D01*
X119933815Y-97236185D01*
X120030506Y-97315537D01*
X120140820Y-97374502D01*
X120151735Y-97377813D01*
X120104970Y-97424578D01*
X120220918Y-97540526D01*
X119966739Y-97624208D01*
X119835842Y-97896775D01*
X119760635Y-98189642D01*
X119744009Y-98491553D01*
X119786603Y-98790907D01*
X119886778Y-99076199D01*
X119966739Y-99225792D01*
X120220920Y-99309475D01*
X121105395Y-98425000D01*
X121091253Y-98410858D01*
X121270858Y-98231253D01*
X121285000Y-98245395D01*
X121299143Y-98231253D01*
X121478748Y-98410858D01*
X121464605Y-98425000D01*
X122349080Y-99309475D01*
X122603261Y-99225792D01*
X122734158Y-98953225D01*
X122809365Y-98660358D01*
X122825991Y-98358447D01*
X122783397Y-98059093D01*
X122683222Y-97773801D01*
X122603261Y-97624208D01*
X122349082Y-97540526D01*
X122465030Y-97424578D01*
X122418265Y-97377813D01*
X122429180Y-97374502D01*
X122539494Y-97315537D01*
X122636185Y-97236185D01*
X122715537Y-97139494D01*
X122774502Y-97029180D01*
X122810812Y-96909482D01*
X122823072Y-96785000D01*
X122823072Y-96772701D01*
X122880451Y-96767050D01*
X123049159Y-96715873D01*
X123204641Y-96632766D01*
X123340922Y-96520922D01*
X123368950Y-96486770D01*
X123866775Y-95988946D01*
X123900922Y-95960922D01*
X124012766Y-95824641D01*
X124095873Y-95669159D01*
X124147050Y-95500451D01*
X124160000Y-95368964D01*
X124160000Y-95368957D01*
X124164329Y-95325000D01*
X124160000Y-95281043D01*
X124160000Y-67428953D01*
X124164329Y-67384999D01*
X124160000Y-67341045D01*
X124160000Y-67341036D01*
X124147050Y-67209549D01*
X124095873Y-67040841D01*
X124012766Y-66885359D01*
X123900922Y-66749078D01*
X123866776Y-66721055D01*
X122583950Y-65438230D01*
X122555922Y-65404078D01*
X122419641Y-65292234D01*
X122264159Y-65209127D01*
X122095451Y-65157950D01*
X121963964Y-65145000D01*
X121963954Y-65145000D01*
X121920000Y-65140671D01*
X121876046Y-65145000D01*
X97647840Y-65145000D01*
X97634637Y-65125241D01*
X97434759Y-64925363D01*
X97199727Y-64768320D01*
X96938574Y-64660147D01*
X96661335Y-64605000D01*
X96378665Y-64605000D01*
X96101426Y-64660147D01*
X95840273Y-64768320D01*
X95605241Y-64925363D01*
X95405363Y-65125241D01*
X95248320Y-65360273D01*
X95140147Y-65621426D01*
X95085000Y-65898665D01*
X91193092Y-65898665D01*
X91223676Y-65841447D01*
X91288577Y-65627499D01*
X91305000Y-65460752D01*
X91305000Y-65460751D01*
X91310491Y-65405001D01*
X91305000Y-65349249D01*
X91305000Y-64703072D01*
X91370000Y-64703072D01*
X91494482Y-64690812D01*
X91614180Y-64654502D01*
X91724494Y-64595537D01*
X91821185Y-64516185D01*
X91900537Y-64419494D01*
X91959502Y-64309180D01*
X91995812Y-64189482D01*
X92008072Y-64065000D01*
X92008072Y-61665000D01*
X91995812Y-61540518D01*
X91959502Y-61420820D01*
X91900537Y-61310506D01*
X91821185Y-61213815D01*
X91724494Y-61134463D01*
X91614180Y-61075498D01*
X91494482Y-61039188D01*
X91370000Y-61026928D01*
X88970000Y-61026928D01*
X88845518Y-61039188D01*
X88725820Y-61075498D01*
X88615506Y-61134463D01*
X88518815Y-61213815D01*
X88439463Y-61310506D01*
X88380498Y-61420820D01*
X88344188Y-61540518D01*
X88331928Y-61665000D01*
X88331928Y-64065000D01*
X88344188Y-64189482D01*
X88380498Y-64309180D01*
X88439463Y-64419494D01*
X88518815Y-64516185D01*
X88615506Y-64595537D01*
X88725820Y-64654502D01*
X88845518Y-64690812D01*
X88970000Y-64703072D01*
X89035000Y-64703072D01*
X89035000Y-64934868D01*
X86524869Y-67445000D01*
X85031362Y-67445000D01*
X85091680Y-67354727D01*
X85199853Y-67093574D01*
X85255000Y-66816335D01*
X85255000Y-66533665D01*
X85199853Y-66256426D01*
X85091680Y-65995273D01*
X84934637Y-65760241D01*
X84734759Y-65560363D01*
X84715000Y-65547160D01*
X84715000Y-60695720D01*
X86095721Y-59315000D01*
X96306360Y-59315000D01*
X96314188Y-59394482D01*
X96350498Y-59514180D01*
X96409463Y-59624494D01*
X96488815Y-59721185D01*
X96585506Y-59800537D01*
X96695820Y-59859502D01*
X96815518Y-59895812D01*
X96940000Y-59908072D01*
X98640000Y-59908072D01*
X98764482Y-59895812D01*
X98884180Y-59859502D01*
X98994494Y-59800537D01*
X99091185Y-59721185D01*
X99170537Y-59624494D01*
X99229502Y-59514180D01*
X99253966Y-59433534D01*
X99329731Y-59517588D01*
X99563080Y-59691641D01*
X99825901Y-59816825D01*
X99973110Y-59861476D01*
X100203000Y-59740155D01*
X100203000Y-58547000D01*
X100183000Y-58547000D01*
X100183000Y-58293000D01*
X100203000Y-58293000D01*
X100203000Y-57099845D01*
X100457000Y-57099845D01*
X100457000Y-58293000D01*
X100477000Y-58293000D01*
X100477000Y-58547000D01*
X100457000Y-58547000D01*
X100457000Y-59740155D01*
X100686890Y-59861476D01*
X100834099Y-59816825D01*
X101096920Y-59691641D01*
X101330269Y-59517588D01*
X101525178Y-59301355D01*
X101594805Y-59184466D01*
X101716525Y-59366632D01*
X101735000Y-59385107D01*
X101735001Y-61416446D01*
X101700256Y-61439662D01*
X101444662Y-61695256D01*
X101243844Y-61995801D01*
X101105518Y-62329750D01*
X101035000Y-62684268D01*
X101035000Y-63045732D01*
X101105518Y-63400250D01*
X101243844Y-63734199D01*
X101444662Y-64034744D01*
X101700256Y-64290338D01*
X102000801Y-64491156D01*
X102334750Y-64629482D01*
X102689268Y-64700000D01*
X103050732Y-64700000D01*
X103405250Y-64629482D01*
X103739199Y-64491156D01*
X104039744Y-64290338D01*
X104295338Y-64034744D01*
X104496156Y-63734199D01*
X104634482Y-63400250D01*
X104705000Y-63045732D01*
X104705000Y-62684268D01*
X104634482Y-62329750D01*
X104496156Y-61995801D01*
X104295338Y-61695256D01*
X104039744Y-61439662D01*
X104005000Y-61416447D01*
X104005000Y-59385107D01*
X104023475Y-59366632D01*
X104185990Y-59123411D01*
X104297932Y-58853158D01*
X104355000Y-58566260D01*
X104355000Y-58273740D01*
X104297932Y-57986842D01*
X104185990Y-57716589D01*
X104023475Y-57473368D01*
X103816632Y-57266525D01*
X103573411Y-57104010D01*
X103303158Y-56992068D01*
X103016260Y-56935000D01*
X102723740Y-56935000D01*
X102436842Y-56992068D01*
X102166589Y-57104010D01*
X101923368Y-57266525D01*
X101716525Y-57473368D01*
X101594805Y-57655534D01*
X101525178Y-57538645D01*
X101330269Y-57322412D01*
X101096920Y-57148359D01*
X100834099Y-57023175D01*
X100686890Y-56978524D01*
X100457000Y-57099845D01*
X100203000Y-57099845D01*
X99973110Y-56978524D01*
X99825901Y-57023175D01*
X99563080Y-57148359D01*
X99329731Y-57322412D01*
X99253966Y-57406466D01*
X99229502Y-57325820D01*
X99170537Y-57215506D01*
X99091185Y-57118815D01*
X98994494Y-57039463D01*
X98884180Y-56980498D01*
X98764482Y-56944188D01*
X98640000Y-56931928D01*
X96940000Y-56931928D01*
X96815518Y-56944188D01*
X96695820Y-56980498D01*
X96585506Y-57039463D01*
X96488815Y-57118815D01*
X96409463Y-57215506D01*
X96350498Y-57325820D01*
X96314188Y-57445518D01*
X96306360Y-57525000D01*
X85768956Y-57525000D01*
X85725000Y-57520671D01*
X85681043Y-57525000D01*
X85681036Y-57525000D01*
X85549549Y-57537950D01*
X85380841Y-57589127D01*
X85225359Y-57672234D01*
X85089078Y-57784078D01*
X85061054Y-57818225D01*
X83218226Y-59661054D01*
X83184079Y-59689078D01*
X83156055Y-59723225D01*
X83156053Y-59723227D01*
X83072234Y-59825360D01*
X82989127Y-59980842D01*
X82937951Y-60149550D01*
X82920671Y-60325000D01*
X82925001Y-60368964D01*
X82925000Y-65547160D01*
X82905241Y-65560363D01*
X82705363Y-65760241D01*
X82548320Y-65995273D01*
X82440147Y-66256426D01*
X82385000Y-66533665D01*
X82385000Y-66816335D01*
X82440147Y-67093574D01*
X82548320Y-67354727D01*
X82608638Y-67445000D01*
X74871362Y-67445000D01*
X74931680Y-67354727D01*
X75039853Y-67093574D01*
X75095000Y-66816335D01*
X75095000Y-66533665D01*
X75039853Y-66256426D01*
X74931680Y-65995273D01*
X74774637Y-65760241D01*
X74574759Y-65560363D01*
X74555000Y-65547160D01*
X74555000Y-59903640D01*
X74634482Y-59895812D01*
X74754180Y-59859502D01*
X74864494Y-59800537D01*
X74961185Y-59721185D01*
X75040537Y-59624494D01*
X75099502Y-59514180D01*
X75123966Y-59433534D01*
X75199731Y-59517588D01*
X75433080Y-59691641D01*
X75695901Y-59816825D01*
X75843110Y-59861476D01*
X76073000Y-59740155D01*
X76073000Y-58547000D01*
X76053000Y-58547000D01*
X76053000Y-58293000D01*
X76073000Y-58293000D01*
X76073000Y-57099845D01*
X76327000Y-57099845D01*
X76327000Y-58293000D01*
X76347000Y-58293000D01*
X76347000Y-58547000D01*
X76327000Y-58547000D01*
X76327000Y-59740155D01*
X76556890Y-59861476D01*
X76704099Y-59816825D01*
X76966920Y-59691641D01*
X77200269Y-59517588D01*
X77395178Y-59301355D01*
X77464805Y-59184466D01*
X77586525Y-59366632D01*
X77605001Y-59385108D01*
X77605000Y-61416447D01*
X77570256Y-61439662D01*
X77314662Y-61695256D01*
X77113844Y-61995801D01*
X76975518Y-62329750D01*
X76905000Y-62684268D01*
X76905000Y-63045732D01*
X76975518Y-63400250D01*
X77113844Y-63734199D01*
X77314662Y-64034744D01*
X77570256Y-64290338D01*
X77870801Y-64491156D01*
X78204750Y-64629482D01*
X78559268Y-64700000D01*
X78920732Y-64700000D01*
X79275250Y-64629482D01*
X79609199Y-64491156D01*
X79909744Y-64290338D01*
X80165338Y-64034744D01*
X80366156Y-63734199D01*
X80504482Y-63400250D01*
X80575000Y-63045732D01*
X80575000Y-62684268D01*
X80504482Y-62329750D01*
X80366156Y-61995801D01*
X80165338Y-61695256D01*
X79909744Y-61439662D01*
X79875000Y-61416447D01*
X79875000Y-59385107D01*
X79893475Y-59366632D01*
X80055990Y-59123411D01*
X80167932Y-58853158D01*
X80225000Y-58566260D01*
X80225000Y-58273740D01*
X80167932Y-57986842D01*
X80055990Y-57716589D01*
X79893475Y-57473368D01*
X79686632Y-57266525D01*
X79443411Y-57104010D01*
X79173158Y-56992068D01*
X78886260Y-56935000D01*
X78593740Y-56935000D01*
X78306842Y-56992068D01*
X78036589Y-57104010D01*
X77793368Y-57266525D01*
X77586525Y-57473368D01*
X77464805Y-57655534D01*
X77395178Y-57538645D01*
X77200269Y-57322412D01*
X76966920Y-57148359D01*
X76704099Y-57023175D01*
X76556890Y-56978524D01*
X76327000Y-57099845D01*
X76073000Y-57099845D01*
X75843110Y-56978524D01*
X75695901Y-57023175D01*
X75433080Y-57148359D01*
X75199731Y-57322412D01*
X75123966Y-57406466D01*
X75099502Y-57325820D01*
X75040537Y-57215506D01*
X74961185Y-57118815D01*
X74864494Y-57039463D01*
X74754180Y-56980498D01*
X74634482Y-56944188D01*
X74510000Y-56931928D01*
X72810000Y-56931928D01*
X72685518Y-56944188D01*
X72565820Y-56980498D01*
X72455506Y-57039463D01*
X72358815Y-57118815D01*
X72279463Y-57215506D01*
X72220498Y-57325820D01*
X72184188Y-57445518D01*
X72171928Y-57570000D01*
X72171928Y-59270000D01*
X72184188Y-59394482D01*
X72220498Y-59514180D01*
X72279463Y-59624494D01*
X72358815Y-59721185D01*
X72455506Y-59800537D01*
X72565820Y-59859502D01*
X72685518Y-59895812D01*
X72765001Y-59903640D01*
X72765000Y-65547160D01*
X72745241Y-65560363D01*
X72545363Y-65760241D01*
X72388320Y-65995273D01*
X72280147Y-66256426D01*
X72225000Y-66533665D01*
X72225000Y-66816335D01*
X72280147Y-67093574D01*
X72388320Y-67354727D01*
X72448638Y-67445000D01*
X67380957Y-67445000D01*
X67370537Y-67425506D01*
X67291185Y-67328815D01*
X67194494Y-67249463D01*
X67175000Y-67239043D01*
X67175000Y-64703072D01*
X67240000Y-64703072D01*
X67364482Y-64690812D01*
X67484180Y-64654502D01*
X67594494Y-64595537D01*
X67691185Y-64516185D01*
X67770537Y-64419494D01*
X67829502Y-64309180D01*
X67865812Y-64189482D01*
X67878072Y-64065000D01*
X67878072Y-61665000D01*
X67865812Y-61540518D01*
X67829502Y-61420820D01*
X67770537Y-61310506D01*
X67691185Y-61213815D01*
X67594494Y-61134463D01*
X67484180Y-61075498D01*
X67364482Y-61039188D01*
X67240000Y-61026928D01*
X64840000Y-61026928D01*
X64715518Y-61039188D01*
X64595820Y-61075498D01*
X64485506Y-61134463D01*
X64388815Y-61213815D01*
X64309463Y-61310506D01*
X64250498Y-61420820D01*
X64214188Y-61540518D01*
X64201928Y-61665000D01*
X64201928Y-64065000D01*
X64214188Y-64189482D01*
X64250498Y-64309180D01*
X64309463Y-64419494D01*
X64388815Y-64516185D01*
X64485506Y-64595537D01*
X64595820Y-64654502D01*
X64715518Y-64690812D01*
X64840000Y-64703072D01*
X64905000Y-64703072D01*
X64905000Y-67239043D01*
X64885506Y-67249463D01*
X64788815Y-67328815D01*
X64709463Y-67425506D01*
X64650498Y-67535820D01*
X64614188Y-67655518D01*
X64601928Y-67780000D01*
X64601928Y-67787215D01*
X64532702Y-67766903D01*
X63719605Y-68580000D01*
X63360395Y-68580000D01*
X62547298Y-67766903D01*
X62303329Y-67838486D01*
X62182429Y-68093996D01*
X62113700Y-68368184D01*
X62099783Y-68650512D01*
X61087000Y-68650512D01*
X61087000Y-67587298D01*
X62726903Y-67587298D01*
X63540000Y-68400395D01*
X64353097Y-67587298D01*
X64281514Y-67343329D01*
X64026004Y-67222429D01*
X63751816Y-67153700D01*
X63469488Y-67139783D01*
X63189870Y-67181213D01*
X62923708Y-67276397D01*
X62798486Y-67343329D01*
X62726903Y-67587298D01*
X61087000Y-67587298D01*
X61087000Y-56350000D01*
X63152419Y-56350000D01*
X63186138Y-56346679D01*
X63208839Y-56346679D01*
X63218003Y-56345716D01*
X63557414Y-56307645D01*
X63615917Y-56295209D01*
X63674605Y-56283589D01*
X63683408Y-56280864D01*
X64008961Y-56177593D01*
X64063908Y-56154042D01*
X64119249Y-56131233D01*
X64127355Y-56126850D01*
X64426649Y-55962312D01*
X64476005Y-55928517D01*
X64525832Y-55895412D01*
X64532932Y-55889538D01*
X64794567Y-55670000D01*
X64836411Y-55627270D01*
X64878865Y-55585112D01*
X64884689Y-55577970D01*
X65098700Y-55311796D01*
X65131450Y-55261749D01*
X65164906Y-55212148D01*
X65169232Y-55204011D01*
X65327466Y-54901337D01*
X65349862Y-54845905D01*
X65373056Y-54790729D01*
X65375719Y-54781907D01*
X65472150Y-54454262D01*
X65483349Y-54395554D01*
X65495388Y-54336905D01*
X65496287Y-54327733D01*
X65527241Y-53987599D01*
X65526823Y-53927783D01*
X65527241Y-53867967D01*
X65526342Y-53858796D01*
X65490642Y-53519126D01*
X65478610Y-53460514D01*
X65467405Y-53401769D01*
X65464741Y-53392947D01*
X65363745Y-53066681D01*
X65340565Y-53011538D01*
X65318156Y-52956073D01*
X65313829Y-52947936D01*
X65151384Y-52647500D01*
X65117939Y-52597916D01*
X65085179Y-52547853D01*
X65079354Y-52540712D01*
X64861648Y-52277551D01*
X64819212Y-52235410D01*
X64777349Y-52192661D01*
X64770248Y-52186787D01*
X64505574Y-51970924D01*
X64455716Y-51937799D01*
X64406393Y-51904026D01*
X64398287Y-51899643D01*
X64096725Y-51739299D01*
X64041433Y-51716510D01*
X63986437Y-51692938D01*
X63977634Y-51690213D01*
X63650671Y-51591497D01*
X63592000Y-51579880D01*
X63533479Y-51567441D01*
X63524314Y-51566478D01*
X63184404Y-51533150D01*
X63184402Y-51533150D01*
X63152419Y-51530000D01*
X61087000Y-51530000D01*
X61087000Y-50300000D01*
X125603000Y-50300000D01*
X125603000Y-51530000D01*
G37*
X125603000Y-51530000D02*
X123187581Y-51530000D01*
X123153862Y-51533321D01*
X123131161Y-51533321D01*
X123121996Y-51534284D01*
X122782586Y-51572355D01*
X122724089Y-51584789D01*
X122665395Y-51596411D01*
X122656592Y-51599136D01*
X122331039Y-51702407D01*
X122276092Y-51725958D01*
X122220751Y-51748767D01*
X122212645Y-51753150D01*
X121913351Y-51917688D01*
X121863979Y-51951494D01*
X121814168Y-51984588D01*
X121807068Y-51990462D01*
X121545433Y-52210000D01*
X121503589Y-52252730D01*
X121461135Y-52294888D01*
X121455310Y-52302030D01*
X121241300Y-52568205D01*
X121208547Y-52618257D01*
X121175094Y-52667852D01*
X121170771Y-52675984D01*
X121170768Y-52675988D01*
X121170768Y-52675989D01*
X121012534Y-52978663D01*
X120990138Y-53034095D01*
X120966944Y-53089271D01*
X120964281Y-53098093D01*
X120867850Y-53425738D01*
X120856652Y-53484439D01*
X120844612Y-53543095D01*
X120843713Y-53552266D01*
X120812759Y-53892401D01*
X120813177Y-53952217D01*
X120812759Y-54012033D01*
X120813658Y-54021205D01*
X120849358Y-54360874D01*
X120861390Y-54419486D01*
X120872595Y-54478231D01*
X120875259Y-54487053D01*
X120976255Y-54813319D01*
X120999435Y-54868462D01*
X121021844Y-54923927D01*
X121026171Y-54932064D01*
X121188616Y-55232500D01*
X121222061Y-55282084D01*
X121254821Y-55332147D01*
X121260646Y-55339288D01*
X121478351Y-55602449D01*
X121520823Y-55644626D01*
X121562651Y-55687339D01*
X121569751Y-55693213D01*
X121834426Y-55909076D01*
X121884250Y-55942179D01*
X121933606Y-55975974D01*
X121941713Y-55980357D01*
X122243274Y-56140701D01*
X122298580Y-56163496D01*
X122353563Y-56187062D01*
X122362366Y-56189787D01*
X122689329Y-56288503D01*
X122748000Y-56300120D01*
X122806521Y-56312559D01*
X122815686Y-56313522D01*
X123155596Y-56346850D01*
X123155598Y-56346850D01*
X123187581Y-56350000D01*
X125603000Y-56350000D01*
X125603000Y-103378000D01*
X71664558Y-103378000D01*
X71736083Y-103306475D01*
X71620415Y-103190807D01*
X71884814Y-103095044D01*
X72025704Y-102805429D01*
X72107384Y-102493892D01*
X72126718Y-102172405D01*
X72082961Y-101853325D01*
X71977795Y-101548912D01*
X71884814Y-101374956D01*
X71620413Y-101279192D01*
X70664605Y-102235000D01*
X70678748Y-102249143D01*
X70499143Y-102428748D01*
X70485000Y-102414605D01*
X70470858Y-102428748D01*
X70291253Y-102249143D01*
X70305395Y-102235000D01*
X69349587Y-101279192D01*
X69085186Y-101374956D01*
X68944296Y-101664571D01*
X68862616Y-101976108D01*
X68843282Y-102297595D01*
X68887039Y-102616675D01*
X68992205Y-102921088D01*
X69085186Y-103095044D01*
X69349585Y-103190807D01*
X69233917Y-103306475D01*
X69305442Y-103378000D01*
X61087000Y-103378000D01*
X61087000Y-93067702D01*
X62726903Y-93067702D01*
X62798486Y-93311671D01*
X63053996Y-93432571D01*
X63328184Y-93501300D01*
X63610512Y-93515217D01*
X63890130Y-93473787D01*
X64156292Y-93378603D01*
X64281514Y-93311671D01*
X64353097Y-93067702D01*
X63540000Y-92254605D01*
X62726903Y-93067702D01*
X61087000Y-93067702D01*
X61087000Y-92145512D01*
X62099783Y-92145512D01*
X62141213Y-92425130D01*
X62236397Y-92691292D01*
X62303329Y-92816514D01*
X62547298Y-92888097D01*
X63360395Y-92075000D01*
X62547298Y-91261903D01*
X62303329Y-91333486D01*
X62182429Y-91588996D01*
X62113700Y-91863184D01*
X62099783Y-92145512D01*
X61087000Y-92145512D01*
X61087000Y-91082298D01*
X62726903Y-91082298D01*
X63540000Y-91895395D01*
X64353097Y-91082298D01*
X64281514Y-90838329D01*
X64026004Y-90717429D01*
X63751816Y-90648700D01*
X63469488Y-90634783D01*
X63189870Y-90676213D01*
X62923708Y-90771397D01*
X62798486Y-90838329D01*
X62726903Y-91082298D01*
X61087000Y-91082298D01*
X61087000Y-87987702D01*
X62726903Y-87987702D01*
X62798486Y-88231671D01*
X63053996Y-88352571D01*
X63328184Y-88421300D01*
X63610512Y-88435217D01*
X63890130Y-88393787D01*
X64156292Y-88298603D01*
X64281514Y-88231671D01*
X64353097Y-87987702D01*
X63540000Y-87174605D01*
X62726903Y-87987702D01*
X61087000Y-87987702D01*
X61087000Y-87065512D01*
X62099783Y-87065512D01*
X62141213Y-87345130D01*
X62236397Y-87611292D01*
X62303329Y-87736514D01*
X62547298Y-87808097D01*
X63360395Y-86995000D01*
X63719605Y-86995000D01*
X64532702Y-87808097D01*
X64776671Y-87736514D01*
X64790324Y-87707659D01*
X64905001Y-87879285D01*
X64905001Y-90114239D01*
X64899509Y-90170000D01*
X64905000Y-90225752D01*
X64905000Y-90734043D01*
X64885506Y-90744463D01*
X64788815Y-90823815D01*
X64709463Y-90920506D01*
X64650498Y-91030820D01*
X64614188Y-91150518D01*
X64601928Y-91275000D01*
X64601928Y-91282215D01*
X64532702Y-91261903D01*
X63719605Y-92075000D01*
X64532702Y-92888097D01*
X64601928Y-92867785D01*
X64601928Y-92875000D01*
X64614188Y-92999482D01*
X64650498Y-93119180D01*
X64709463Y-93229494D01*
X64788815Y-93326185D01*
X64885506Y-93405537D01*
X64905000Y-93415957D01*
X64905001Y-97734239D01*
X64899509Y-97790000D01*
X64921423Y-98012498D01*
X64986324Y-98226446D01*
X65035384Y-98318230D01*
X65091717Y-98423623D01*
X65233552Y-98596449D01*
X65276860Y-98631991D01*
X67103009Y-100458141D01*
X67138551Y-100501449D01*
X67311377Y-100643284D01*
X67508553Y-100748676D01*
X67722501Y-100813577D01*
X67945000Y-100835491D01*
X68000752Y-100830000D01*
X69307761Y-100830000D01*
X69442748Y-100964987D01*
X69551600Y-101037720D01*
X69529192Y-101099587D01*
X70485000Y-102055395D01*
X71440808Y-101099587D01*
X71418400Y-101037720D01*
X71527252Y-100964987D01*
X71662239Y-100830000D01*
X90969869Y-100830000D01*
X91282150Y-101142282D01*
X91330147Y-101383574D01*
X91438320Y-101644727D01*
X91595363Y-101879759D01*
X91795241Y-102079637D01*
X92030273Y-102236680D01*
X92291426Y-102344853D01*
X92568665Y-102400000D01*
X92851335Y-102400000D01*
X93128574Y-102344853D01*
X93389727Y-102236680D01*
X93594284Y-102100000D01*
X106080736Y-102100000D01*
X106116068Y-102166101D01*
X106295393Y-102384608D01*
X106513900Y-102563932D01*
X106763193Y-102697182D01*
X107033692Y-102779236D01*
X107315000Y-102806943D01*
X107596309Y-102779236D01*
X107866808Y-102697182D01*
X108116101Y-102563932D01*
X108334608Y-102384608D01*
X108513932Y-102166101D01*
X108585000Y-102033142D01*
X108656068Y-102166101D01*
X108835393Y-102384608D01*
X109053900Y-102563932D01*
X109303193Y-102697182D01*
X109573692Y-102779236D01*
X109855000Y-102806943D01*
X110136309Y-102779236D01*
X110406808Y-102697182D01*
X110656101Y-102563932D01*
X110874608Y-102384608D01*
X111053932Y-102166101D01*
X111125000Y-102033142D01*
X111196068Y-102166101D01*
X111375393Y-102384608D01*
X111593900Y-102563932D01*
X111843193Y-102697182D01*
X112113692Y-102779236D01*
X112395000Y-102806943D01*
X112676309Y-102779236D01*
X112946808Y-102697182D01*
X113196101Y-102563932D01*
X113414608Y-102384608D01*
X113593932Y-102166101D01*
X113662265Y-102038259D01*
X113812399Y-102267839D01*
X114010105Y-102469500D01*
X114243354Y-102628715D01*
X114503182Y-102739367D01*
X114585961Y-102756904D01*
X114808000Y-102634915D01*
X114808000Y-101092000D01*
X115062000Y-101092000D01*
X115062000Y-102634915D01*
X115284039Y-102756904D01*
X115366818Y-102739367D01*
X115626646Y-102628715D01*
X115859895Y-102469500D01*
X116057601Y-102267839D01*
X116212166Y-102031483D01*
X116317650Y-101769514D01*
X116370000Y-101492000D01*
X116370000Y-101092000D01*
X115062000Y-101092000D01*
X114808000Y-101092000D01*
X114788000Y-101092000D01*
X114788000Y-100838000D01*
X114808000Y-100838000D01*
X114808000Y-99295085D01*
X115062000Y-99295085D01*
X115062000Y-100838000D01*
X116370000Y-100838000D01*
X116370000Y-100438000D01*
X116317650Y-100160486D01*
X116212166Y-99898517D01*
X116057601Y-99662161D01*
X115887915Y-99489080D01*
X120400525Y-99489080D01*
X120484208Y-99743261D01*
X120756775Y-99874158D01*
X121049642Y-99949365D01*
X121351553Y-99965991D01*
X121650907Y-99923397D01*
X121936199Y-99823222D01*
X122085792Y-99743261D01*
X122169475Y-99489080D01*
X121285000Y-98604605D01*
X120400525Y-99489080D01*
X115887915Y-99489080D01*
X115859895Y-99460500D01*
X115626646Y-99301285D01*
X115366818Y-99190633D01*
X115284039Y-99173096D01*
X115062000Y-99295085D01*
X114808000Y-99295085D01*
X114585961Y-99173096D01*
X114503182Y-99190633D01*
X114243354Y-99301285D01*
X114010105Y-99460500D01*
X113812399Y-99662161D01*
X113662265Y-99891741D01*
X113593932Y-99763899D01*
X113414607Y-99545392D01*
X113290000Y-99443130D01*
X113290000Y-98160720D01*
X115536775Y-95913946D01*
X115570922Y-95885922D01*
X115621215Y-95824641D01*
X115642246Y-95799015D01*
X115682766Y-95749641D01*
X115765873Y-95594159D01*
X115817050Y-95425451D01*
X115830000Y-95293964D01*
X115830000Y-95293955D01*
X115834329Y-95250001D01*
X115830000Y-95206047D01*
X115830000Y-93837840D01*
X115849759Y-93824637D01*
X116049637Y-93624759D01*
X116206680Y-93389727D01*
X116314853Y-93128574D01*
X116370000Y-92851335D01*
X116370000Y-92568665D01*
X116314853Y-92291426D01*
X116206680Y-92030273D01*
X116049637Y-91795241D01*
X115849759Y-91595363D01*
X115614727Y-91438320D01*
X115353574Y-91330147D01*
X115076335Y-91275000D01*
X114793665Y-91275000D01*
X114516426Y-91330147D01*
X114255273Y-91438320D01*
X114020241Y-91595363D01*
X113820363Y-91795241D01*
X113663320Y-92030273D01*
X113555147Y-92291426D01*
X113500000Y-92568665D01*
X113500000Y-92851335D01*
X113555147Y-93128574D01*
X113663320Y-93389727D01*
X113820363Y-93624759D01*
X114020241Y-93824637D01*
X114040000Y-93837840D01*
X114040001Y-94879278D01*
X111793226Y-97126054D01*
X111759079Y-97154078D01*
X111731055Y-97188225D01*
X111731053Y-97188227D01*
X111647234Y-97290360D01*
X111564127Y-97445842D01*
X111547954Y-97499158D01*
X111512951Y-97614549D01*
X111509002Y-97654641D01*
X111495671Y-97790000D01*
X111500001Y-97833964D01*
X111500000Y-99443129D01*
X111375392Y-99545393D01*
X111196068Y-99763900D01*
X111125000Y-99896858D01*
X111053932Y-99763899D01*
X110874607Y-99545392D01*
X110656100Y-99366068D01*
X110406807Y-99232818D01*
X110136308Y-99150764D01*
X109855000Y-99123057D01*
X109573691Y-99150764D01*
X109303192Y-99232818D01*
X109053899Y-99366068D01*
X108835392Y-99545393D01*
X108656068Y-99763900D01*
X108585000Y-99896858D01*
X108513932Y-99763899D01*
X108450000Y-99685998D01*
X108450000Y-99235131D01*
X109234089Y-98451042D01*
X109436426Y-98534853D01*
X109713665Y-98590000D01*
X109996335Y-98590000D01*
X110273574Y-98534853D01*
X110534727Y-98426680D01*
X110769759Y-98269637D01*
X110969637Y-98069759D01*
X111126680Y-97834727D01*
X111234853Y-97573574D01*
X111290000Y-97296335D01*
X111290000Y-97013665D01*
X111234853Y-96736426D01*
X111126680Y-96475273D01*
X110969637Y-96240241D01*
X110769759Y-96040363D01*
X110534727Y-95883320D01*
X110273574Y-95775147D01*
X109996335Y-95720000D01*
X109713665Y-95720000D01*
X109436426Y-95775147D01*
X109175273Y-95883320D01*
X108972006Y-96019139D01*
X108925000Y-96014509D01*
X108869248Y-96020000D01*
X108702501Y-96036423D01*
X108488553Y-96101324D01*
X108291377Y-96206716D01*
X108118551Y-96348551D01*
X108083009Y-96391860D01*
X106551860Y-97923009D01*
X106508552Y-97958551D01*
X106366717Y-98131377D01*
X106365231Y-98134158D01*
X106261324Y-98328554D01*
X106196423Y-98542502D01*
X106174509Y-98765000D01*
X106180001Y-98820761D01*
X106180001Y-99685998D01*
X106116068Y-99763900D01*
X106080737Y-99830000D01*
X93594284Y-99830000D01*
X93389727Y-99693320D01*
X93128574Y-99585147D01*
X92887282Y-99537150D01*
X92281996Y-98931865D01*
X92246449Y-98888551D01*
X92073623Y-98746716D01*
X91876447Y-98641324D01*
X91662499Y-98576423D01*
X91495752Y-98560000D01*
X91495751Y-98560000D01*
X91440000Y-98554509D01*
X91384249Y-98560000D01*
X71662239Y-98560000D01*
X71527252Y-98425013D01*
X71259463Y-98246082D01*
X70961912Y-98122832D01*
X70646033Y-98060000D01*
X70323967Y-98060000D01*
X70008088Y-98122832D01*
X69710537Y-98246082D01*
X69442748Y-98425013D01*
X69307761Y-98560000D01*
X68415132Y-98560000D01*
X67175000Y-97319869D01*
X67175000Y-93415957D01*
X67194494Y-93405537D01*
X67291185Y-93326185D01*
X67370537Y-93229494D01*
X67429502Y-93119180D01*
X67465812Y-92999482D01*
X67478072Y-92875000D01*
X67478072Y-91275000D01*
X67477087Y-91265000D01*
X68330716Y-91265000D01*
X68535273Y-91401680D01*
X68796426Y-91509853D01*
X69073665Y-91565000D01*
X69356335Y-91565000D01*
X69633574Y-91509853D01*
X69894727Y-91401680D01*
X70039419Y-91305000D01*
X71110998Y-91305000D01*
X71188899Y-91368932D01*
X71438192Y-91502182D01*
X71708691Y-91584236D01*
X71919508Y-91605000D01*
X72860492Y-91605000D01*
X73071309Y-91584236D01*
X73341808Y-91502182D01*
X73591101Y-91368932D01*
X73809608Y-91189608D01*
X73988932Y-90971101D01*
X74035001Y-90884913D01*
X74035001Y-92339278D01*
X73289280Y-93085000D01*
X72882840Y-93085000D01*
X72869637Y-93065241D01*
X72669759Y-92865363D01*
X72434727Y-92708320D01*
X72173574Y-92600147D01*
X71896335Y-92545000D01*
X71613665Y-92545000D01*
X71336426Y-92600147D01*
X71075273Y-92708320D01*
X70840241Y-92865363D01*
X70640363Y-93065241D01*
X70483320Y-93300273D01*
X70375147Y-93561426D01*
X70320000Y-93838665D01*
X70320000Y-94121335D01*
X70375147Y-94398574D01*
X70483320Y-94659727D01*
X70640363Y-94894759D01*
X70840241Y-95094637D01*
X71075273Y-95251680D01*
X71336426Y-95359853D01*
X71613665Y-95415000D01*
X71896335Y-95415000D01*
X72173574Y-95359853D01*
X72434727Y-95251680D01*
X72669759Y-95094637D01*
X72869637Y-94894759D01*
X72882840Y-94875000D01*
X73616046Y-94875000D01*
X73660000Y-94879329D01*
X73703954Y-94875000D01*
X73703964Y-94875000D01*
X73835451Y-94862050D01*
X74004159Y-94810873D01*
X74159641Y-94727766D01*
X74295922Y-94615922D01*
X74323950Y-94581770D01*
X75067055Y-93838665D01*
X83020000Y-93838665D01*
X83020000Y-94121335D01*
X83075147Y-94398574D01*
X83183320Y-94659727D01*
X83340363Y-94894759D01*
X83540241Y-95094637D01*
X83775273Y-95251680D01*
X84036426Y-95359853D01*
X84313665Y-95415000D01*
X84596335Y-95415000D01*
X84873574Y-95359853D01*
X85134727Y-95251680D01*
X85369759Y-95094637D01*
X85569637Y-94894759D01*
X85580344Y-94878735D01*
X85586370Y-94879329D01*
X85630324Y-94875000D01*
X85630334Y-94875000D01*
X85761821Y-94862050D01*
X85930529Y-94810873D01*
X86086011Y-94727766D01*
X86222292Y-94615922D01*
X86250320Y-94581770D01*
X86494388Y-94337702D01*
X89396903Y-94337702D01*
X89468486Y-94581671D01*
X89723996Y-94702571D01*
X89998184Y-94771300D01*
X90280512Y-94785217D01*
X90560130Y-94743787D01*
X90826292Y-94648603D01*
X90951514Y-94581671D01*
X91023097Y-94337702D01*
X90210000Y-93524605D01*
X89396903Y-94337702D01*
X86494388Y-94337702D01*
X87416578Y-93415512D01*
X88769783Y-93415512D01*
X88811213Y-93695130D01*
X88906397Y-93961292D01*
X88973329Y-94086514D01*
X89217298Y-94158097D01*
X90030395Y-93345000D01*
X89217298Y-92531903D01*
X88973329Y-92603486D01*
X88852429Y-92858996D01*
X88783700Y-93133184D01*
X88769783Y-93415512D01*
X87416578Y-93415512D01*
X88231776Y-92600315D01*
X88265922Y-92572292D01*
X88296897Y-92534550D01*
X88377765Y-92436012D01*
X88377766Y-92436011D01*
X88422511Y-92352298D01*
X89396903Y-92352298D01*
X90210000Y-93165395D01*
X91023097Y-92352298D01*
X90951514Y-92108329D01*
X90696004Y-91987429D01*
X90421816Y-91918700D01*
X90139488Y-91904783D01*
X89859870Y-91946213D01*
X89593708Y-92041397D01*
X89468486Y-92108329D01*
X89396903Y-92352298D01*
X88422511Y-92352298D01*
X88460873Y-92280529D01*
X88512050Y-92111821D01*
X88525000Y-91980334D01*
X88525000Y-91980325D01*
X88529329Y-91936371D01*
X88525000Y-91892417D01*
X88525000Y-89067202D01*
X89356903Y-89067202D01*
X89428486Y-89311171D01*
X89683996Y-89432071D01*
X89958184Y-89500800D01*
X90240512Y-89514717D01*
X90520130Y-89473287D01*
X90786292Y-89378103D01*
X90911514Y-89311171D01*
X90983097Y-89067202D01*
X90170000Y-88254105D01*
X89356903Y-89067202D01*
X88525000Y-89067202D01*
X88525000Y-88145012D01*
X88729783Y-88145012D01*
X88771213Y-88424630D01*
X88866397Y-88690792D01*
X88933329Y-88816014D01*
X89177298Y-88887597D01*
X89990395Y-88074500D01*
X89177298Y-87261403D01*
X88933329Y-87332986D01*
X88812429Y-87588496D01*
X88743700Y-87862684D01*
X88729783Y-88145012D01*
X88525000Y-88145012D01*
X88525000Y-87081798D01*
X89356903Y-87081798D01*
X90170000Y-87894895D01*
X90983097Y-87081798D01*
X90911514Y-86837829D01*
X90656004Y-86716929D01*
X90381816Y-86648200D01*
X90099488Y-86634283D01*
X89819870Y-86675713D01*
X89553708Y-86770897D01*
X89428486Y-86837829D01*
X89356903Y-87081798D01*
X88525000Y-87081798D01*
X88525000Y-84177702D01*
X89356903Y-84177702D01*
X89428486Y-84421671D01*
X89683996Y-84542571D01*
X89958184Y-84611300D01*
X90240512Y-84625217D01*
X90520130Y-84583787D01*
X90786292Y-84488603D01*
X90911514Y-84421671D01*
X90983097Y-84177702D01*
X90170000Y-83364605D01*
X89356903Y-84177702D01*
X88525000Y-84177702D01*
X88525000Y-83255512D01*
X88729783Y-83255512D01*
X88771213Y-83535130D01*
X88866397Y-83801292D01*
X88933329Y-83926514D01*
X89177298Y-83998097D01*
X89990395Y-83185000D01*
X89177298Y-82371903D01*
X88933329Y-82443486D01*
X88812429Y-82698996D01*
X88743700Y-82973184D01*
X88729783Y-83255512D01*
X88525000Y-83255512D01*
X88525000Y-82192298D01*
X89356903Y-82192298D01*
X90170000Y-83005395D01*
X90983097Y-82192298D01*
X90911514Y-81948329D01*
X90656004Y-81827429D01*
X90381816Y-81758700D01*
X90099488Y-81744783D01*
X89819870Y-81786213D01*
X89553708Y-81881397D01*
X89428486Y-81948329D01*
X89356903Y-82192298D01*
X88525000Y-82192298D01*
X88525000Y-77205720D01*
X89270721Y-76460000D01*
X93921719Y-76460000D01*
X93634229Y-76699418D01*
X93486335Y-76670000D01*
X93203665Y-76670000D01*
X92926426Y-76725147D01*
X92665273Y-76833320D01*
X92430241Y-76990363D01*
X92230363Y-77190241D01*
X92073320Y-77425273D01*
X91965147Y-77686426D01*
X91910000Y-77963665D01*
X91910000Y-78246335D01*
X91965147Y-78523574D01*
X92073320Y-78784727D01*
X92230363Y-79019759D01*
X92430241Y-79219637D01*
X92665273Y-79376680D01*
X92926426Y-79484853D01*
X93203665Y-79540000D01*
X93486335Y-79540000D01*
X93763574Y-79484853D01*
X94024727Y-79376680D01*
X94259759Y-79219637D01*
X94459637Y-79019759D01*
X94616680Y-78784727D01*
X94724853Y-78523574D01*
X94780000Y-78246335D01*
X94780000Y-78074667D01*
X95193871Y-77730000D01*
X95500604Y-77730000D01*
X95405363Y-77825241D01*
X95248320Y-78060273D01*
X95140147Y-78321426D01*
X95085000Y-78598665D01*
X95085000Y-78881335D01*
X95140147Y-79158574D01*
X95248320Y-79419727D01*
X95405363Y-79654759D01*
X95605241Y-79854637D01*
X95840273Y-80011680D01*
X96101426Y-80119853D01*
X96378665Y-80175000D01*
X96661335Y-80175000D01*
X96938574Y-80119853D01*
X97199727Y-80011680D01*
X97434759Y-79854637D01*
X97530000Y-79759396D01*
X97530000Y-79966046D01*
X97525671Y-80010000D01*
X97530000Y-80053954D01*
X97530000Y-80053963D01*
X97542950Y-80185450D01*
X97594127Y-80354158D01*
X97677234Y-80509640D01*
X97789078Y-80645922D01*
X97823230Y-80673950D01*
X98396058Y-81246780D01*
X98424078Y-81280922D01*
X98458219Y-81308941D01*
X98458226Y-81308948D01*
X98509550Y-81351068D01*
X98560359Y-81392766D01*
X98715841Y-81475873D01*
X98884549Y-81527050D01*
X99016036Y-81540000D01*
X99016043Y-81540000D01*
X99060000Y-81544329D01*
X99103957Y-81540000D01*
X99104315Y-81540000D01*
X99096928Y-81615000D01*
X99096928Y-82215000D01*
X99104315Y-82290000D01*
X97583685Y-82290000D01*
X97402886Y-82109201D01*
X97176043Y-81957629D01*
X96923989Y-81853225D01*
X96656411Y-81800000D01*
X96383589Y-81800000D01*
X96116011Y-81853225D01*
X95863957Y-81957629D01*
X95637114Y-82109201D01*
X95456315Y-82290000D01*
X93797840Y-82290000D01*
X93784637Y-82270241D01*
X93584759Y-82070363D01*
X93349727Y-81913320D01*
X93088574Y-81805147D01*
X92811335Y-81750000D01*
X92528665Y-81750000D01*
X92251426Y-81805147D01*
X91990273Y-81913320D01*
X91755241Y-82070363D01*
X91555363Y-82270241D01*
X91421308Y-82470869D01*
X91406671Y-82443486D01*
X91162702Y-82371903D01*
X90349605Y-83185000D01*
X91162702Y-83998097D01*
X91406671Y-83926514D01*
X91420324Y-83897659D01*
X91555363Y-84099759D01*
X91755241Y-84299637D01*
X91990273Y-84456680D01*
X92251426Y-84564853D01*
X92528665Y-84620000D01*
X92811335Y-84620000D01*
X93088574Y-84564853D01*
X93349727Y-84456680D01*
X93584759Y-84299637D01*
X93784637Y-84099759D01*
X93797840Y-84080000D01*
X95456315Y-84080000D01*
X95637114Y-84260799D01*
X95863957Y-84412371D01*
X96116011Y-84516775D01*
X96383589Y-84570000D01*
X96656411Y-84570000D01*
X96923989Y-84516775D01*
X97176043Y-84412371D01*
X97253993Y-84360286D01*
X95918230Y-85696050D01*
X95884078Y-85724078D01*
X95772234Y-85860360D01*
X95689127Y-86015842D01*
X95637950Y-86184550D01*
X95625000Y-86316037D01*
X95625000Y-86316046D01*
X95620671Y-86360000D01*
X95625000Y-86403954D01*
X95625000Y-87001315D01*
X95456315Y-87170000D01*
X93791492Y-87170000D01*
X93784637Y-87159741D01*
X93584759Y-86959863D01*
X93349727Y-86802820D01*
X93088574Y-86694647D01*
X92811335Y-86639500D01*
X92528665Y-86639500D01*
X92251426Y-86694647D01*
X91990273Y-86802820D01*
X91755241Y-86959863D01*
X91555363Y-87159741D01*
X91421308Y-87360369D01*
X91406671Y-87332986D01*
X91162702Y-87261403D01*
X90349605Y-88074500D01*
X91162702Y-88887597D01*
X91406671Y-88816014D01*
X91420324Y-88787159D01*
X91555363Y-88989259D01*
X91755241Y-89189137D01*
X91990273Y-89346180D01*
X92251426Y-89454353D01*
X92528665Y-89509500D01*
X92811335Y-89509500D01*
X93088574Y-89454353D01*
X93349727Y-89346180D01*
X93584759Y-89189137D01*
X93784637Y-88989259D01*
X93804187Y-88960000D01*
X95456315Y-88960000D01*
X95637114Y-89140799D01*
X95863957Y-89292371D01*
X96116011Y-89396775D01*
X96383589Y-89450000D01*
X96656411Y-89450000D01*
X96743576Y-89432662D01*
X93966239Y-92210000D01*
X93594284Y-92210000D01*
X93389727Y-92073320D01*
X93128574Y-91965147D01*
X92851335Y-91910000D01*
X92568665Y-91910000D01*
X92291426Y-91965147D01*
X92030273Y-92073320D01*
X91795241Y-92230363D01*
X91595363Y-92430241D01*
X91461308Y-92630869D01*
X91446671Y-92603486D01*
X91202702Y-92531903D01*
X90389605Y-93345000D01*
X91202702Y-94158097D01*
X91446671Y-94086514D01*
X91460324Y-94057659D01*
X91575000Y-94229284D01*
X91575001Y-95000715D01*
X91438320Y-95205273D01*
X91330147Y-95466426D01*
X91275000Y-95743665D01*
X91275000Y-96026335D01*
X91330147Y-96303574D01*
X91438320Y-96564727D01*
X91595363Y-96799759D01*
X91795241Y-96999637D01*
X92030273Y-97156680D01*
X92291426Y-97264853D01*
X92568665Y-97320000D01*
X92851335Y-97320000D01*
X93128574Y-97264853D01*
X93389727Y-97156680D01*
X93624759Y-96999637D01*
X93824637Y-96799759D01*
X93981680Y-96564727D01*
X94089853Y-96303574D01*
X94145000Y-96026335D01*
X94145000Y-95743665D01*
X94089853Y-95466426D01*
X93981680Y-95205273D01*
X93845000Y-95000716D01*
X93845000Y-94480000D01*
X94380619Y-94480000D01*
X94436370Y-94485491D01*
X94492121Y-94480000D01*
X94492122Y-94480000D01*
X94658869Y-94463577D01*
X94872817Y-94398676D01*
X95069993Y-94293284D01*
X95242819Y-94151449D01*
X95278366Y-94108135D01*
X96260001Y-93126500D01*
X96260000Y-96027160D01*
X96240241Y-96040363D01*
X96040363Y-96240241D01*
X95883320Y-96475273D01*
X95775147Y-96736426D01*
X95720000Y-97013665D01*
X95720000Y-97296335D01*
X95775147Y-97573574D01*
X95883320Y-97834727D01*
X96040363Y-98069759D01*
X96240241Y-98269637D01*
X96475273Y-98426680D01*
X96736426Y-98534853D01*
X97013665Y-98590000D01*
X97296335Y-98590000D01*
X97573574Y-98534853D01*
X97834727Y-98426680D01*
X98069759Y-98269637D01*
X98269637Y-98069759D01*
X98426680Y-97834727D01*
X98534853Y-97573574D01*
X98590000Y-97296335D01*
X98590000Y-97013665D01*
X98534853Y-96736426D01*
X98426680Y-96475273D01*
X98269637Y-96240241D01*
X98069759Y-96040363D01*
X98050000Y-96027160D01*
X98050000Y-93080720D01*
X98063829Y-93066891D01*
X100158519Y-93066891D01*
X100255843Y-93341252D01*
X100404822Y-93591355D01*
X100599731Y-93807588D01*
X100833080Y-93981641D01*
X101095901Y-94106825D01*
X101243110Y-94151476D01*
X101473000Y-94030155D01*
X101473000Y-92837000D01*
X100279186Y-92837000D01*
X100158519Y-93066891D01*
X98063829Y-93066891D01*
X100065721Y-91065000D01*
X100412026Y-91065000D01*
X100446525Y-91116632D01*
X100653368Y-91323475D01*
X100829406Y-91441100D01*
X100599731Y-91612412D01*
X100404822Y-91828645D01*
X100255843Y-92078748D01*
X100158519Y-92353109D01*
X100279186Y-92583000D01*
X101473000Y-92583000D01*
X101473000Y-92563000D01*
X101727000Y-92563000D01*
X101727000Y-92583000D01*
X101747000Y-92583000D01*
X101747000Y-92837000D01*
X101727000Y-92837000D01*
X101727000Y-94030155D01*
X101956890Y-94151476D01*
X102104099Y-94106825D01*
X102366920Y-93981641D01*
X102600269Y-93807588D01*
X102795178Y-93591355D01*
X102864805Y-93474466D01*
X102986525Y-93656632D01*
X103193368Y-93863475D01*
X103245001Y-93897975D01*
X103245001Y-93936037D01*
X103240671Y-93980000D01*
X103245001Y-94023963D01*
X103245001Y-94023964D01*
X103254003Y-94115360D01*
X103257951Y-94155450D01*
X103309127Y-94324158D01*
X103392234Y-94479640D01*
X103475970Y-94581671D01*
X103504079Y-94615922D01*
X103538225Y-94643945D01*
X104111058Y-95216780D01*
X104139078Y-95250922D01*
X104173219Y-95278941D01*
X104173226Y-95278948D01*
X104275359Y-95362766D01*
X104430841Y-95445873D01*
X104599549Y-95497050D01*
X104731036Y-95510000D01*
X104731043Y-95510000D01*
X104775000Y-95514329D01*
X104818957Y-95510000D01*
X107906046Y-95510000D01*
X107950000Y-95514329D01*
X107993954Y-95510000D01*
X107993964Y-95510000D01*
X108125451Y-95497050D01*
X108294159Y-95445873D01*
X108449641Y-95362766D01*
X108585922Y-95250922D01*
X108613950Y-95216770D01*
X109186781Y-94643941D01*
X109220922Y-94615922D01*
X109248941Y-94581781D01*
X109248948Y-94581774D01*
X109332766Y-94479641D01*
X109415873Y-94324159D01*
X109467050Y-94155451D01*
X109470410Y-94121335D01*
X109472798Y-94097088D01*
X109713665Y-94145000D01*
X109996335Y-94145000D01*
X110273574Y-94089853D01*
X110534727Y-93981680D01*
X110769759Y-93824637D01*
X110969637Y-93624759D01*
X111126680Y-93389727D01*
X111164087Y-93299418D01*
X111237766Y-93209641D01*
X111320873Y-93054159D01*
X111372050Y-92885451D01*
X111389330Y-92710000D01*
X111372050Y-92534549D01*
X111320873Y-92365841D01*
X111237766Y-92210359D01*
X111164087Y-92120582D01*
X111126680Y-92030273D01*
X110969637Y-91795241D01*
X110769759Y-91595363D01*
X110534727Y-91438320D01*
X110273574Y-91330147D01*
X109996335Y-91275000D01*
X109713665Y-91275000D01*
X109480000Y-91321479D01*
X109480000Y-87673956D01*
X109484329Y-87630000D01*
X109480000Y-87586043D01*
X109480000Y-87586036D01*
X109467050Y-87454549D01*
X109415873Y-87285841D01*
X109332766Y-87130359D01*
X109283600Y-87070451D01*
X109248947Y-87028226D01*
X109248946Y-87028225D01*
X109220922Y-86994078D01*
X109186774Y-86966053D01*
X108756816Y-86536095D01*
X108780506Y-86555537D01*
X108890820Y-86614502D01*
X109010518Y-86650812D01*
X109135000Y-86663072D01*
X109824250Y-86660000D01*
X109983000Y-86501250D01*
X109983000Y-85852000D01*
X110237000Y-85852000D01*
X110237000Y-86501250D01*
X110395750Y-86660000D01*
X111085000Y-86663072D01*
X111209482Y-86650812D01*
X111329180Y-86614502D01*
X111439494Y-86555537D01*
X111536185Y-86476185D01*
X111615537Y-86379494D01*
X111674502Y-86269180D01*
X111710812Y-86149482D01*
X111723072Y-86025000D01*
X111720000Y-86010750D01*
X111561250Y-85852000D01*
X110237000Y-85852000D01*
X109983000Y-85852000D01*
X108658750Y-85852000D01*
X108500000Y-86010750D01*
X108496928Y-86025000D01*
X108509188Y-86149482D01*
X108545498Y-86269180D01*
X108604463Y-86379494D01*
X108623905Y-86403185D01*
X107575000Y-85354280D01*
X107575000Y-78148957D01*
X107579329Y-78105000D01*
X107575000Y-78061043D01*
X107575000Y-78061036D01*
X107562050Y-77929549D01*
X107510873Y-77760841D01*
X107427766Y-77605359D01*
X107409224Y-77582766D01*
X107343948Y-77503226D01*
X107343941Y-77503219D01*
X107315922Y-77469078D01*
X107281782Y-77441060D01*
X103533950Y-73693230D01*
X103505922Y-73659078D01*
X103369641Y-73547234D01*
X103214159Y-73464127D01*
X103045451Y-73412950D01*
X102913964Y-73400000D01*
X102913954Y-73400000D01*
X102870000Y-73395671D01*
X102826046Y-73400000D01*
X101911056Y-73400000D01*
X101809482Y-73369188D01*
X101685000Y-73356928D01*
X99735000Y-73356928D01*
X99610518Y-73369188D01*
X99490820Y-73405498D01*
X99380506Y-73464463D01*
X99283815Y-73543815D01*
X99204463Y-73640506D01*
X99145498Y-73750820D01*
X99109188Y-73870518D01*
X99096928Y-73995000D01*
X99096928Y-74595000D01*
X99104315Y-74670000D01*
X88943953Y-74670000D01*
X88899999Y-74665671D01*
X88856045Y-74670000D01*
X88856036Y-74670000D01*
X88724549Y-74682950D01*
X88555841Y-74734127D01*
X88400359Y-74817234D01*
X88264078Y-74929078D01*
X88236054Y-74963225D01*
X87028227Y-76171053D01*
X86994079Y-76199078D01*
X86966055Y-76233225D01*
X86966053Y-76233227D01*
X86882234Y-76335360D01*
X86799127Y-76490842D01*
X86747951Y-76659550D01*
X86730671Y-76835000D01*
X86735001Y-76878964D01*
X86735000Y-91565649D01*
X85402523Y-92898127D01*
X85369759Y-92865363D01*
X85134727Y-92708320D01*
X84873574Y-92600147D01*
X84596335Y-92545000D01*
X84313665Y-92545000D01*
X84036426Y-92600147D01*
X83775273Y-92708320D01*
X83540241Y-92865363D01*
X83340363Y-93065241D01*
X83183320Y-93300273D01*
X83075147Y-93561426D01*
X83020000Y-93838665D01*
X75067055Y-93838665D01*
X75531775Y-93373946D01*
X75565922Y-93345922D01*
X75594032Y-93311671D01*
X75677765Y-93209642D01*
X75677766Y-93209641D01*
X75760873Y-93054159D01*
X75812050Y-92885451D01*
X75825000Y-92753964D01*
X75825000Y-92753955D01*
X75829329Y-92710001D01*
X75825000Y-92666047D01*
X75825000Y-88943953D01*
X75829329Y-88899999D01*
X75825000Y-88856045D01*
X75825000Y-88856036D01*
X75812050Y-88724549D01*
X75760873Y-88555841D01*
X75677766Y-88400359D01*
X75637246Y-88350985D01*
X75593947Y-88298226D01*
X75593946Y-88298225D01*
X75565922Y-88264078D01*
X75531776Y-88236055D01*
X74323950Y-87028230D01*
X74295922Y-86994078D01*
X74159641Y-86882234D01*
X74004159Y-86799127D01*
X73951353Y-86783108D01*
X73809608Y-86610392D01*
X73591101Y-86431068D01*
X73458142Y-86360000D01*
X73591101Y-86288932D01*
X73809608Y-86109608D01*
X73988932Y-85891101D01*
X74122182Y-85641808D01*
X74204236Y-85371309D01*
X74231943Y-85090000D01*
X74204236Y-84808691D01*
X74175815Y-84715000D01*
X74251046Y-84715000D01*
X74295000Y-84719329D01*
X74338954Y-84715000D01*
X74338964Y-84715000D01*
X74470451Y-84702050D01*
X74639159Y-84650873D01*
X74794641Y-84567766D01*
X74930922Y-84455922D01*
X74958950Y-84421770D01*
X75531780Y-83848942D01*
X75565922Y-83820922D01*
X75593941Y-83786781D01*
X75593948Y-83786774D01*
X75677766Y-83684641D01*
X75760873Y-83529159D01*
X75812050Y-83360451D01*
X75815895Y-83321411D01*
X75825000Y-83228964D01*
X75825000Y-83228957D01*
X75829329Y-83185000D01*
X75825000Y-83141043D01*
X75825000Y-80645000D01*
X76570671Y-80645000D01*
X76575001Y-80688964D01*
X76575000Y-85681046D01*
X76570671Y-85725000D01*
X76575000Y-85768954D01*
X76575000Y-85768963D01*
X76587950Y-85900450D01*
X76639127Y-86069158D01*
X76722234Y-86224640D01*
X76834078Y-86360922D01*
X76868230Y-86388950D01*
X77441058Y-86961780D01*
X77469078Y-86995922D01*
X77503219Y-87023941D01*
X77503226Y-87023948D01*
X77569323Y-87078192D01*
X77605359Y-87107766D01*
X77760841Y-87190873D01*
X77929549Y-87242050D01*
X78061036Y-87255000D01*
X78061043Y-87255000D01*
X78105000Y-87259329D01*
X78148957Y-87255000D01*
X78224185Y-87255000D01*
X78195764Y-87348691D01*
X78168057Y-87630000D01*
X78195764Y-87911309D01*
X78277818Y-88181808D01*
X78411068Y-88431101D01*
X78590392Y-88649608D01*
X78703482Y-88742419D01*
X78685518Y-88744188D01*
X78565820Y-88780498D01*
X78455506Y-88839463D01*
X78358815Y-88918815D01*
X78279463Y-89015506D01*
X78220498Y-89125820D01*
X78184188Y-89245518D01*
X78171928Y-89370000D01*
X78171928Y-90970000D01*
X78184188Y-91094482D01*
X78220498Y-91214180D01*
X78279463Y-91324494D01*
X78358815Y-91421185D01*
X78455506Y-91500537D01*
X78565820Y-91559502D01*
X78685518Y-91595812D01*
X78810000Y-91608072D01*
X81210000Y-91608072D01*
X81334482Y-91595812D01*
X81454180Y-91559502D01*
X81564494Y-91500537D01*
X81661185Y-91421185D01*
X81740537Y-91324494D01*
X81799502Y-91214180D01*
X81835812Y-91094482D01*
X81838716Y-91065000D01*
X82506046Y-91065000D01*
X82550000Y-91069329D01*
X82593954Y-91065000D01*
X82593964Y-91065000D01*
X82725451Y-91052050D01*
X82894159Y-91000873D01*
X83049641Y-90917766D01*
X83185922Y-90805922D01*
X83213950Y-90771770D01*
X84290357Y-89695364D01*
X84313665Y-89700000D01*
X84596335Y-89700000D01*
X84873574Y-89644853D01*
X85134727Y-89536680D01*
X85369759Y-89379637D01*
X85569637Y-89179759D01*
X85726680Y-88944727D01*
X85834853Y-88683574D01*
X85890000Y-88406335D01*
X85890000Y-88123665D01*
X85834853Y-87846426D01*
X85726680Y-87585273D01*
X85569637Y-87350241D01*
X85369759Y-87150363D01*
X85134727Y-86993320D01*
X84873574Y-86885147D01*
X84596335Y-86830000D01*
X84313665Y-86830000D01*
X84036426Y-86885147D01*
X83775273Y-86993320D01*
X83540241Y-87150363D01*
X83340363Y-87350241D01*
X83183320Y-87585273D01*
X83075147Y-87846426D01*
X83020000Y-88123665D01*
X83020000Y-88406335D01*
X83024636Y-88429643D01*
X82179280Y-89275000D01*
X81838716Y-89275000D01*
X81835812Y-89245518D01*
X81799502Y-89125820D01*
X81740537Y-89015506D01*
X81661185Y-88918815D01*
X81564494Y-88839463D01*
X81454180Y-88780498D01*
X81334482Y-88744188D01*
X81316518Y-88742419D01*
X81429608Y-88649608D01*
X81608932Y-88431101D01*
X81742182Y-88181808D01*
X81824236Y-87911309D01*
X81851943Y-87630000D01*
X81824236Y-87348691D01*
X81742182Y-87078192D01*
X81608932Y-86828899D01*
X81429608Y-86610392D01*
X81211101Y-86431068D01*
X81078142Y-86360000D01*
X81211101Y-86288932D01*
X81429608Y-86109608D01*
X81608932Y-85891101D01*
X81742182Y-85641808D01*
X81824236Y-85371309D01*
X81851943Y-85090000D01*
X81824236Y-84808691D01*
X81742182Y-84538192D01*
X81608932Y-84288899D01*
X81429608Y-84070392D01*
X81211101Y-83891068D01*
X81078142Y-83820000D01*
X81211101Y-83748932D01*
X81429608Y-83569608D01*
X81531871Y-83445000D01*
X81871046Y-83445000D01*
X81915000Y-83449329D01*
X81958954Y-83445000D01*
X81958964Y-83445000D01*
X82090451Y-83432050D01*
X82259159Y-83380873D01*
X82414641Y-83297766D01*
X82550922Y-83185922D01*
X82578950Y-83151770D01*
X83151781Y-82578941D01*
X83185922Y-82550922D01*
X83213941Y-82516781D01*
X83213948Y-82516774D01*
X83297766Y-82414641D01*
X83380873Y-82259159D01*
X83432050Y-82090451D01*
X83434028Y-82070363D01*
X83445000Y-81958964D01*
X83445000Y-81958957D01*
X83449329Y-81915000D01*
X83445000Y-81871043D01*
X83445000Y-77513963D01*
X83449330Y-77470000D01*
X83445000Y-77426036D01*
X83445000Y-76584396D01*
X83540241Y-76679637D01*
X83775273Y-76836680D01*
X84036426Y-76944853D01*
X84313665Y-77000000D01*
X84596335Y-77000000D01*
X84873574Y-76944853D01*
X85134727Y-76836680D01*
X85369759Y-76679637D01*
X85569637Y-76479759D01*
X85726680Y-76244727D01*
X85834853Y-75983574D01*
X85890000Y-75706335D01*
X85890000Y-75423665D01*
X85834853Y-75146426D01*
X85726680Y-74885273D01*
X85569637Y-74650241D01*
X85369759Y-74450363D01*
X85350000Y-74437160D01*
X85350000Y-74030720D01*
X86950721Y-72430000D01*
X107544280Y-72430000D01*
X108672221Y-73557942D01*
X108604463Y-73640506D01*
X108545498Y-73750820D01*
X108509188Y-73870518D01*
X108496928Y-73995000D01*
X108496928Y-74595000D01*
X108509188Y-74719482D01*
X108545498Y-74839180D01*
X108594043Y-74930000D01*
X108545498Y-75020820D01*
X108509188Y-75140518D01*
X108496928Y-75265000D01*
X108496928Y-75865000D01*
X108509188Y-75989482D01*
X108545498Y-76109180D01*
X108594043Y-76200000D01*
X108545498Y-76290820D01*
X108509188Y-76410518D01*
X108496928Y-76535000D01*
X108496928Y-77135000D01*
X108509188Y-77259482D01*
X108545498Y-77379180D01*
X108594043Y-77470000D01*
X108545498Y-77560820D01*
X108509188Y-77680518D01*
X108496928Y-77805000D01*
X108496928Y-78405000D01*
X108509188Y-78529482D01*
X108545498Y-78649180D01*
X108594043Y-78740000D01*
X108545498Y-78830820D01*
X108509188Y-78950518D01*
X108496928Y-79075000D01*
X108496928Y-79675000D01*
X108509188Y-79799482D01*
X108545498Y-79919180D01*
X108594043Y-80010000D01*
X108545498Y-80100820D01*
X108509188Y-80220518D01*
X108496928Y-80345000D01*
X108496928Y-80945000D01*
X108509188Y-81069482D01*
X108545498Y-81189180D01*
X108594043Y-81280000D01*
X108545498Y-81370820D01*
X108509188Y-81490518D01*
X108496928Y-81615000D01*
X108496928Y-82215000D01*
X108509188Y-82339482D01*
X108545498Y-82459180D01*
X108594043Y-82550000D01*
X108545498Y-82640820D01*
X108509188Y-82760518D01*
X108496928Y-82885000D01*
X108496928Y-83485000D01*
X108509188Y-83609482D01*
X108545498Y-83729180D01*
X108594043Y-83820000D01*
X108545498Y-83910820D01*
X108509188Y-84030518D01*
X108496928Y-84155000D01*
X108496928Y-84755000D01*
X108509188Y-84879482D01*
X108545498Y-84999180D01*
X108594043Y-85090000D01*
X108545498Y-85180820D01*
X108509188Y-85300518D01*
X108496928Y-85425000D01*
X108500000Y-85439250D01*
X108658750Y-85598000D01*
X109983000Y-85598000D01*
X109983000Y-85578000D01*
X110237000Y-85578000D01*
X110237000Y-85598000D01*
X111561250Y-85598000D01*
X111599265Y-85559985D01*
X116176054Y-90136775D01*
X116204078Y-90170922D01*
X116340359Y-90282766D01*
X116495841Y-90365873D01*
X116664549Y-90417050D01*
X116796036Y-90430000D01*
X116796043Y-90430000D01*
X116840000Y-90434329D01*
X116883956Y-90430000D01*
X117359772Y-90430000D01*
X117393498Y-90541180D01*
X117452463Y-90651494D01*
X117531815Y-90748185D01*
X117628506Y-90827537D01*
X117738820Y-90886502D01*
X117858518Y-90922812D01*
X117983000Y-90935072D01*
X119507000Y-90935072D01*
X119631482Y-90922812D01*
X119751180Y-90886502D01*
X119861494Y-90827537D01*
X119958185Y-90748185D01*
X120037537Y-90651494D01*
X120096502Y-90541180D01*
X120108822Y-90500565D01*
X120499040Y-90500565D01*
X120566020Y-90740656D01*
X120815048Y-90857756D01*
X121082135Y-90924023D01*
X121357017Y-90936910D01*
X121629133Y-90895922D01*
X121888023Y-90802636D01*
X122003980Y-90740656D01*
X122070960Y-90500565D01*
X121285000Y-89714605D01*
X120499040Y-90500565D01*
X120108822Y-90500565D01*
X120132812Y-90421482D01*
X120145072Y-90297000D01*
X120145072Y-90272317D01*
X120319435Y-90320960D01*
X121105395Y-89535000D01*
X120319435Y-88749040D01*
X120145072Y-88797683D01*
X120145072Y-88773000D01*
X120132812Y-88648518D01*
X120096502Y-88528820D01*
X120037537Y-88418506D01*
X119958185Y-88321815D01*
X119861494Y-88242463D01*
X119751180Y-88183498D01*
X119631482Y-88147188D01*
X119547535Y-88138920D01*
X119635535Y-88080120D01*
X119755090Y-87960565D01*
X120499040Y-87960565D01*
X120566020Y-88200656D01*
X120696644Y-88262079D01*
X120681977Y-88267364D01*
X120566020Y-88329344D01*
X120499040Y-88569435D01*
X121285000Y-89355395D01*
X122070960Y-88569435D01*
X122003980Y-88329344D01*
X121873356Y-88267921D01*
X121888023Y-88262636D01*
X122003980Y-88200656D01*
X122070960Y-87960565D01*
X121285000Y-87174605D01*
X120499040Y-87960565D01*
X119755090Y-87960565D01*
X119830120Y-87885535D01*
X119983005Y-87656727D01*
X120012692Y-87585057D01*
X120017364Y-87598023D01*
X120079344Y-87713980D01*
X120319435Y-87780960D01*
X121105395Y-86995000D01*
X120319435Y-86209040D01*
X120079344Y-86276020D01*
X120015515Y-86411760D01*
X119983005Y-86333273D01*
X119830120Y-86104465D01*
X119635535Y-85909880D01*
X119406727Y-85756995D01*
X119329485Y-85725000D01*
X119406727Y-85693005D01*
X119635535Y-85540120D01*
X119755090Y-85420565D01*
X120499040Y-85420565D01*
X120566020Y-85660656D01*
X120696644Y-85722079D01*
X120681977Y-85727364D01*
X120566020Y-85789344D01*
X120499040Y-86029435D01*
X121285000Y-86815395D01*
X122070960Y-86029435D01*
X122003980Y-85789344D01*
X121873356Y-85727921D01*
X121888023Y-85722636D01*
X122003980Y-85660656D01*
X122070960Y-85420565D01*
X121285000Y-84634605D01*
X120499040Y-85420565D01*
X119755090Y-85420565D01*
X119830120Y-85345535D01*
X119983005Y-85116727D01*
X120012692Y-85045057D01*
X120017364Y-85058023D01*
X120079344Y-85173980D01*
X120319435Y-85240960D01*
X121105395Y-84455000D01*
X120319435Y-83669040D01*
X120079344Y-83736020D01*
X120015515Y-83871760D01*
X119983005Y-83793273D01*
X119830120Y-83564465D01*
X119635535Y-83369880D01*
X119406727Y-83216995D01*
X119329485Y-83185000D01*
X119406727Y-83153005D01*
X119635535Y-83000120D01*
X119755090Y-82880565D01*
X120499040Y-82880565D01*
X120566020Y-83120656D01*
X120696644Y-83182079D01*
X120681977Y-83187364D01*
X120566020Y-83249344D01*
X120499040Y-83489435D01*
X121285000Y-84275395D01*
X122070960Y-83489435D01*
X122003980Y-83249344D01*
X121873356Y-83187921D01*
X121888023Y-83182636D01*
X122003980Y-83120656D01*
X122070960Y-82880565D01*
X121285000Y-82094605D01*
X120499040Y-82880565D01*
X119755090Y-82880565D01*
X119830120Y-82805535D01*
X119981216Y-82579405D01*
X120015922Y-82550922D01*
X120027444Y-82536882D01*
X120079344Y-82633980D01*
X120319435Y-82700960D01*
X121105395Y-81915000D01*
X120319435Y-81129040D01*
X120079344Y-81196020D01*
X120031412Y-81297953D01*
X120015922Y-81279078D01*
X119981216Y-81250595D01*
X119830120Y-81024465D01*
X119635535Y-80829880D01*
X119406727Y-80676995D01*
X119329485Y-80645000D01*
X119406727Y-80613005D01*
X119635535Y-80460120D01*
X119755090Y-80340565D01*
X120499040Y-80340565D01*
X120566020Y-80580656D01*
X120696644Y-80642079D01*
X120681977Y-80647364D01*
X120566020Y-80709344D01*
X120499040Y-80949435D01*
X121285000Y-81735395D01*
X122070960Y-80949435D01*
X122003980Y-80709344D01*
X121873356Y-80647921D01*
X121888023Y-80642636D01*
X122003980Y-80580656D01*
X122070960Y-80340565D01*
X121285000Y-79554605D01*
X120499040Y-80340565D01*
X119755090Y-80340565D01*
X119830120Y-80265535D01*
X119983005Y-80036727D01*
X120012692Y-79965057D01*
X120017364Y-79978023D01*
X120079344Y-80093980D01*
X120319435Y-80160960D01*
X121105395Y-79375000D01*
X120319435Y-78589040D01*
X120079344Y-78656020D01*
X120015515Y-78791760D01*
X119983005Y-78713273D01*
X119830120Y-78484465D01*
X119635535Y-78289880D01*
X119406727Y-78136995D01*
X119329485Y-78105000D01*
X119406727Y-78073005D01*
X119635535Y-77920120D01*
X119755090Y-77800565D01*
X120499040Y-77800565D01*
X120566020Y-78040656D01*
X120696644Y-78102079D01*
X120681977Y-78107364D01*
X120566020Y-78169344D01*
X120499040Y-78409435D01*
X121285000Y-79195395D01*
X122070960Y-78409435D01*
X122003980Y-78169344D01*
X121873356Y-78107921D01*
X121888023Y-78102636D01*
X122003980Y-78040656D01*
X122070960Y-77800565D01*
X121285000Y-77014605D01*
X120499040Y-77800565D01*
X119755090Y-77800565D01*
X119830120Y-77725535D01*
X119983005Y-77496727D01*
X120012692Y-77425057D01*
X120017364Y-77438023D01*
X120079344Y-77553980D01*
X120319435Y-77620960D01*
X121105395Y-76835000D01*
X120319435Y-76049040D01*
X120079344Y-76116020D01*
X120015515Y-76251760D01*
X119983005Y-76173273D01*
X119830120Y-75944465D01*
X119635535Y-75749880D01*
X119406727Y-75596995D01*
X119329485Y-75565000D01*
X119406727Y-75533005D01*
X119635535Y-75380120D01*
X119755090Y-75260565D01*
X120499040Y-75260565D01*
X120566020Y-75500656D01*
X120696644Y-75562079D01*
X120681977Y-75567364D01*
X120566020Y-75629344D01*
X120499040Y-75869435D01*
X121285000Y-76655395D01*
X122070960Y-75869435D01*
X122003980Y-75629344D01*
X121873356Y-75567921D01*
X121888023Y-75562636D01*
X122003980Y-75500656D01*
X122070960Y-75260565D01*
X121285000Y-74474605D01*
X120499040Y-75260565D01*
X119755090Y-75260565D01*
X119830120Y-75185535D01*
X119983005Y-74956727D01*
X120012692Y-74885057D01*
X120017364Y-74898023D01*
X120079344Y-75013980D01*
X120319435Y-75080960D01*
X121105395Y-74295000D01*
X120319435Y-73509040D01*
X120079344Y-73576020D01*
X120015515Y-73711760D01*
X119983005Y-73633273D01*
X119830120Y-73404465D01*
X119635535Y-73209880D01*
X119406727Y-73056995D01*
X119329485Y-73025000D01*
X119406727Y-72993005D01*
X119635535Y-72840120D01*
X119755090Y-72720565D01*
X120499040Y-72720565D01*
X120566020Y-72960656D01*
X120696644Y-73022079D01*
X120681977Y-73027364D01*
X120566020Y-73089344D01*
X120499040Y-73329435D01*
X121285000Y-74115395D01*
X122070960Y-73329435D01*
X122003980Y-73089344D01*
X121873356Y-73027921D01*
X121888023Y-73022636D01*
X122003980Y-72960656D01*
X122070960Y-72720565D01*
X121285000Y-71934605D01*
X120499040Y-72720565D01*
X119755090Y-72720565D01*
X119830120Y-72645535D01*
X119983005Y-72416727D01*
X120012692Y-72345057D01*
X120017364Y-72358023D01*
X120079344Y-72473980D01*
X120319435Y-72540960D01*
X121105395Y-71755000D01*
X120319435Y-70969040D01*
X120079344Y-71036020D01*
X120015515Y-71171760D01*
X119983005Y-71093273D01*
X119830120Y-70864465D01*
X119635535Y-70669880D01*
X119406727Y-70516995D01*
X119329485Y-70485000D01*
X119406727Y-70453005D01*
X119635535Y-70300120D01*
X119755090Y-70180565D01*
X120499040Y-70180565D01*
X120566020Y-70420656D01*
X120696644Y-70482079D01*
X120681977Y-70487364D01*
X120566020Y-70549344D01*
X120499040Y-70789435D01*
X121285000Y-71575395D01*
X122070960Y-70789435D01*
X122003980Y-70549344D01*
X121873356Y-70487921D01*
X121888023Y-70482636D01*
X122003980Y-70420656D01*
X122070960Y-70180565D01*
X121285000Y-69394605D01*
X120499040Y-70180565D01*
X119755090Y-70180565D01*
X119830120Y-70105535D01*
X119983005Y-69876727D01*
X120012692Y-69805057D01*
X120017364Y-69818023D01*
X120079344Y-69933980D01*
X120319435Y-70000960D01*
X121105395Y-69215000D01*
X120319435Y-68429040D01*
X120079344Y-68496020D01*
X120015515Y-68631760D01*
X119983005Y-68553273D01*
X119830120Y-68324465D01*
X119755090Y-68249435D01*
X120499040Y-68249435D01*
X121285000Y-69035395D01*
X122070960Y-68249435D01*
X122003980Y-68009344D01*
X121754952Y-67892244D01*
X121487865Y-67825977D01*
X121212983Y-67813090D01*
X120940867Y-67854078D01*
X120681977Y-67947364D01*
X120566020Y-68009344D01*
X120499040Y-68249435D01*
X119755090Y-68249435D01*
X119635535Y-68129880D01*
X119406727Y-67976995D01*
X119152490Y-67871686D01*
X118882592Y-67818000D01*
X118607408Y-67818000D01*
X118337510Y-67871686D01*
X118083273Y-67976995D01*
X117854465Y-68129880D01*
X117664345Y-68320000D01*
X95482091Y-68320000D01*
X95140320Y-67978230D01*
X95112292Y-67944078D01*
X94976011Y-67832234D01*
X94820529Y-67749127D01*
X94651821Y-67697950D01*
X94520334Y-67685000D01*
X94520324Y-67685000D01*
X94476370Y-67680671D01*
X94470344Y-67681265D01*
X94459637Y-67665241D01*
X94259759Y-67465363D01*
X94024727Y-67308320D01*
X93763574Y-67200147D01*
X93486335Y-67145000D01*
X93203665Y-67145000D01*
X92926426Y-67200147D01*
X92665273Y-67308320D01*
X92430241Y-67465363D01*
X92230363Y-67665241D01*
X92073320Y-67900273D01*
X91965147Y-68161426D01*
X91910000Y-68438665D01*
X91910000Y-68721335D01*
X91965147Y-68998574D01*
X92073320Y-69259727D01*
X92230363Y-69494759D01*
X92430241Y-69694637D01*
X92665273Y-69851680D01*
X92926426Y-69959853D01*
X93203665Y-70015000D01*
X93486335Y-70015000D01*
X93763574Y-69959853D01*
X94024727Y-69851680D01*
X94259759Y-69694637D01*
X94292522Y-69661874D01*
X94447428Y-69816780D01*
X94475448Y-69850922D01*
X94509589Y-69878941D01*
X94509596Y-69878948D01*
X94611729Y-69962766D01*
X94767211Y-70045873D01*
X94935919Y-70097050D01*
X95067406Y-70110000D01*
X95067413Y-70110000D01*
X95111370Y-70114329D01*
X95155327Y-70110000D01*
X117664345Y-70110000D01*
X117854465Y-70300120D01*
X118083273Y-70453005D01*
X118160515Y-70485000D01*
X118083273Y-70516995D01*
X117854465Y-70669880D01*
X117664345Y-70860000D01*
X116248957Y-70860000D01*
X116205000Y-70855671D01*
X116161043Y-70860000D01*
X116161036Y-70860000D01*
X116029549Y-70872950D01*
X115860841Y-70924127D01*
X115705359Y-71007234D01*
X115603226Y-71091052D01*
X115603219Y-71091059D01*
X115569078Y-71119078D01*
X115541058Y-71153220D01*
X112024280Y-74670000D01*
X111715685Y-74670000D01*
X111723072Y-74595000D01*
X111723072Y-73995000D01*
X111710812Y-73870518D01*
X111674502Y-73750820D01*
X111615537Y-73640506D01*
X111536185Y-73543815D01*
X111439494Y-73464463D01*
X111329180Y-73405498D01*
X111209482Y-73369188D01*
X111085000Y-73356928D01*
X110742701Y-73356928D01*
X110737050Y-73299549D01*
X110685873Y-73130841D01*
X110602766Y-72975359D01*
X110545825Y-72905977D01*
X110518947Y-72873226D01*
X110518946Y-72873225D01*
X110490922Y-72839078D01*
X110456776Y-72811055D01*
X108716927Y-71071207D01*
X108697766Y-71035359D01*
X108585922Y-70899078D01*
X108449641Y-70787234D01*
X108294159Y-70704127D01*
X108125451Y-70652950D01*
X107993964Y-70640000D01*
X107958954Y-70640000D01*
X107915000Y-70635671D01*
X107871046Y-70640000D01*
X86623956Y-70640000D01*
X86580000Y-70635671D01*
X86536043Y-70640000D01*
X86536036Y-70640000D01*
X86404549Y-70652950D01*
X86235841Y-70704127D01*
X86080359Y-70787234D01*
X85986254Y-70864465D01*
X85944078Y-70899078D01*
X85916054Y-70933225D01*
X83853230Y-72996050D01*
X83819078Y-73024078D01*
X83707234Y-73160360D01*
X83624127Y-73315842D01*
X83572950Y-73484550D01*
X83560000Y-73616037D01*
X83560000Y-73616046D01*
X83555671Y-73660000D01*
X83560000Y-73703954D01*
X83560000Y-74437160D01*
X83540241Y-74450363D01*
X83445000Y-74545604D01*
X83445000Y-73068953D01*
X83449329Y-73024999D01*
X83445000Y-72981045D01*
X83445000Y-72931037D01*
X83432050Y-72799550D01*
X83430006Y-72792813D01*
X83434759Y-72789637D01*
X83634637Y-72589759D01*
X83791680Y-72354727D01*
X83899853Y-72093574D01*
X83955000Y-71816335D01*
X83955000Y-71533665D01*
X83899853Y-71256426D01*
X83791680Y-70995273D01*
X83634637Y-70760241D01*
X83434759Y-70560363D01*
X83199727Y-70403320D01*
X82938574Y-70295147D01*
X82661335Y-70240000D01*
X82378665Y-70240000D01*
X82101426Y-70295147D01*
X81840273Y-70403320D01*
X81605241Y-70560363D01*
X81405363Y-70760241D01*
X81248320Y-70995273D01*
X81140147Y-71256426D01*
X81085000Y-71533665D01*
X81085000Y-71816335D01*
X81140147Y-72093574D01*
X81248320Y-72354727D01*
X81405363Y-72589759D01*
X81605241Y-72789637D01*
X81625001Y-72802840D01*
X81625001Y-72951037D01*
X81620671Y-72995000D01*
X81625001Y-73038964D01*
X81637951Y-73170451D01*
X81649912Y-73209880D01*
X81655001Y-73226657D01*
X81655001Y-74210938D01*
X81514500Y-74005105D01*
X81312839Y-73807399D01*
X81076483Y-73652834D01*
X80814514Y-73547350D01*
X80537000Y-73495000D01*
X80137000Y-73495000D01*
X80137000Y-74803000D01*
X80157000Y-74803000D01*
X80157000Y-75057000D01*
X80137000Y-75057000D01*
X80137000Y-75077000D01*
X79883000Y-75077000D01*
X79883000Y-75057000D01*
X78340085Y-75057000D01*
X78218096Y-75279039D01*
X78235633Y-75361818D01*
X78346285Y-75621646D01*
X78505500Y-75854895D01*
X78707161Y-76052601D01*
X78936741Y-76202735D01*
X78808899Y-76271068D01*
X78590392Y-76450392D01*
X78411068Y-76668899D01*
X78277818Y-76918192D01*
X78195764Y-77188691D01*
X78168057Y-77470000D01*
X78195764Y-77751309D01*
X78277818Y-78021808D01*
X78411068Y-78271101D01*
X78590392Y-78489608D01*
X78808899Y-78668932D01*
X78941858Y-78740000D01*
X78808899Y-78811068D01*
X78590392Y-78990392D01*
X78488129Y-79115000D01*
X78148957Y-79115000D01*
X78105000Y-79110671D01*
X78061043Y-79115000D01*
X78061036Y-79115000D01*
X77929549Y-79127950D01*
X77760841Y-79179127D01*
X77605359Y-79262234D01*
X77503226Y-79346052D01*
X77503219Y-79346059D01*
X77469078Y-79374078D01*
X77441058Y-79408220D01*
X76868227Y-79981053D01*
X76834079Y-80009078D01*
X76806055Y-80043225D01*
X76806053Y-80043227D01*
X76722234Y-80145360D01*
X76639127Y-80300842D01*
X76625097Y-80347094D01*
X76587951Y-80469549D01*
X76581777Y-80532234D01*
X76570671Y-80645000D01*
X75825000Y-80645000D01*
X75825000Y-78148957D01*
X75829329Y-78105000D01*
X75825000Y-78061043D01*
X75825000Y-78061036D01*
X75812050Y-77929549D01*
X75760873Y-77760841D01*
X75677766Y-77605359D01*
X75659224Y-77582766D01*
X75593948Y-77503226D01*
X75593941Y-77503219D01*
X75565922Y-77469078D01*
X75531781Y-77441059D01*
X74958950Y-76868230D01*
X74930922Y-76834078D01*
X74794641Y-76722234D01*
X74639159Y-76639127D01*
X74470451Y-76587950D01*
X74338964Y-76575000D01*
X74338954Y-76575000D01*
X74295000Y-76570671D01*
X74251046Y-76575000D01*
X73911871Y-76575000D01*
X73809608Y-76450392D01*
X73591101Y-76271068D01*
X73458142Y-76200000D01*
X73591101Y-76128932D01*
X73809608Y-75949608D01*
X73988932Y-75731101D01*
X74122182Y-75481808D01*
X74204236Y-75211309D01*
X74231943Y-74930000D01*
X74204236Y-74648691D01*
X74183691Y-74580961D01*
X78218096Y-74580961D01*
X78340085Y-74803000D01*
X79883000Y-74803000D01*
X79883000Y-73495000D01*
X79483000Y-73495000D01*
X79205486Y-73547350D01*
X78943517Y-73652834D01*
X78707161Y-73807399D01*
X78505500Y-74005105D01*
X78346285Y-74238354D01*
X78235633Y-74498182D01*
X78218096Y-74580961D01*
X74183691Y-74580961D01*
X74122182Y-74378192D01*
X73988932Y-74128899D01*
X73809608Y-73910392D01*
X73591101Y-73731068D01*
X73341808Y-73597818D01*
X73285000Y-73580586D01*
X73285000Y-72779396D01*
X73474637Y-72589759D01*
X73631680Y-72354727D01*
X73739853Y-72093574D01*
X73795000Y-71816335D01*
X73795000Y-71533665D01*
X73739853Y-71256426D01*
X73631680Y-70995273D01*
X73474637Y-70760241D01*
X73274759Y-70560363D01*
X73039727Y-70403320D01*
X72778574Y-70295147D01*
X72501335Y-70240000D01*
X72218665Y-70240000D01*
X71941426Y-70295147D01*
X71680273Y-70403320D01*
X71445241Y-70560363D01*
X71245363Y-70760241D01*
X71088320Y-70995273D01*
X70980147Y-71256426D01*
X70925000Y-71533665D01*
X70925000Y-71816335D01*
X70980147Y-72093574D01*
X71088320Y-72354727D01*
X71245363Y-72589759D01*
X71445241Y-72789637D01*
X71495001Y-72822885D01*
X71495000Y-73580586D01*
X71438192Y-73597818D01*
X71188899Y-73731068D01*
X70970392Y-73910392D01*
X70868129Y-74035000D01*
X70713953Y-74035000D01*
X70669999Y-74030671D01*
X70626045Y-74035000D01*
X70626036Y-74035000D01*
X70494549Y-74047950D01*
X70348891Y-74092135D01*
X70325841Y-74099127D01*
X70170358Y-74182234D01*
X70101977Y-74238354D01*
X70034078Y-74294078D01*
X70006054Y-74328225D01*
X69248230Y-75086050D01*
X69214078Y-75114078D01*
X69102234Y-75250360D01*
X69019127Y-75405842D01*
X68967950Y-75574550D01*
X68955000Y-75706037D01*
X68955000Y-75706046D01*
X68950671Y-75750000D01*
X68955000Y-75793954D01*
X68955001Y-79331036D01*
X68950671Y-79375000D01*
X68955001Y-79418964D01*
X68964003Y-79510360D01*
X68967951Y-79550450D01*
X69019127Y-79719158D01*
X69102234Y-79874640D01*
X69138788Y-79919180D01*
X69214079Y-80010922D01*
X69248225Y-80038945D01*
X69821058Y-80611780D01*
X69849078Y-80645922D01*
X69883219Y-80673941D01*
X69883226Y-80673948D01*
X69958742Y-80735922D01*
X69985359Y-80757766D01*
X70140841Y-80840873D01*
X70309549Y-80892050D01*
X70441036Y-80905000D01*
X70441043Y-80905000D01*
X70485000Y-80909329D01*
X70528957Y-80905000D01*
X70868129Y-80905000D01*
X70970392Y-81029608D01*
X71188899Y-81208932D01*
X71321858Y-81280000D01*
X71188899Y-81351068D01*
X70970392Y-81530392D01*
X70791068Y-81748899D01*
X70657818Y-81998192D01*
X70575764Y-82268691D01*
X70548057Y-82550000D01*
X70575764Y-82831309D01*
X70657818Y-83101808D01*
X70791068Y-83351101D01*
X70970392Y-83569608D01*
X71188899Y-83748932D01*
X71321858Y-83820000D01*
X71188899Y-83891068D01*
X70970392Y-84070392D01*
X70791068Y-84288899D01*
X70657818Y-84538192D01*
X70575764Y-84808691D01*
X70548057Y-85090000D01*
X70575764Y-85371309D01*
X70657818Y-85641808D01*
X70791068Y-85891101D01*
X70970392Y-86109608D01*
X71188899Y-86288932D01*
X71321858Y-86360000D01*
X71188899Y-86431068D01*
X70970392Y-86610392D01*
X70791068Y-86828899D01*
X70657818Y-87078192D01*
X70604510Y-87253928D01*
X70518603Y-87013708D01*
X70451671Y-86888486D01*
X70207702Y-86816903D01*
X69394605Y-87630000D01*
X70207702Y-88443097D01*
X70451671Y-88371514D01*
X70572571Y-88116004D01*
X70602110Y-87998161D01*
X70657818Y-88181808D01*
X70791068Y-88431101D01*
X70970392Y-88649608D01*
X71188899Y-88828932D01*
X71321858Y-88900000D01*
X71188899Y-88971068D01*
X71110998Y-89035000D01*
X70149396Y-89035000D01*
X70129759Y-89015363D01*
X69929131Y-88881308D01*
X69956514Y-88866671D01*
X70028097Y-88622702D01*
X69215000Y-87809605D01*
X68401903Y-88622702D01*
X68473486Y-88866671D01*
X68502341Y-88880324D01*
X68330716Y-88995000D01*
X67175000Y-88995000D01*
X67175000Y-87879284D01*
X67294451Y-87700512D01*
X67774783Y-87700512D01*
X67816213Y-87980130D01*
X67911397Y-88246292D01*
X67978329Y-88371514D01*
X68222298Y-88443097D01*
X69035395Y-87630000D01*
X68222298Y-86816903D01*
X67978329Y-86888486D01*
X67857429Y-87143996D01*
X67788700Y-87418184D01*
X67774783Y-87700512D01*
X67294451Y-87700512D01*
X67311680Y-87674727D01*
X67419853Y-87413574D01*
X67475000Y-87136335D01*
X67475000Y-86853665D01*
X67431962Y-86637298D01*
X68401903Y-86637298D01*
X69215000Y-87450395D01*
X70028097Y-86637298D01*
X69956514Y-86393329D01*
X69701004Y-86272429D01*
X69426816Y-86203700D01*
X69144488Y-86189783D01*
X68864870Y-86231213D01*
X68598708Y-86326397D01*
X68473486Y-86393329D01*
X68401903Y-86637298D01*
X67431962Y-86637298D01*
X67419853Y-86576426D01*
X67311680Y-86315273D01*
X67175000Y-86110716D01*
X67175000Y-83457170D01*
X67215463Y-83423963D01*
X67413845Y-83182235D01*
X67561255Y-82906449D01*
X67652030Y-82607204D01*
X67682681Y-82296000D01*
X67652030Y-81984796D01*
X67561255Y-81685551D01*
X67413845Y-81409765D01*
X67215463Y-81168037D01*
X67036101Y-81020837D01*
X67221315Y-80865437D01*
X67415969Y-80622923D01*
X67559571Y-80347094D01*
X67630563Y-80128980D01*
X67510594Y-79883000D01*
X66167000Y-79883000D01*
X66167000Y-79903000D01*
X65913000Y-79903000D01*
X65913000Y-79883000D01*
X64569406Y-79883000D01*
X64449437Y-80128980D01*
X64520429Y-80347094D01*
X64664031Y-80622923D01*
X64858685Y-80865437D01*
X65043899Y-81020837D01*
X64864537Y-81168037D01*
X64666155Y-81409765D01*
X64518745Y-81685551D01*
X64427970Y-81984796D01*
X64397319Y-82296000D01*
X64427970Y-82607204D01*
X64518745Y-82906449D01*
X64666155Y-83182235D01*
X64864537Y-83423963D01*
X64905000Y-83457170D01*
X64905001Y-86110716D01*
X64791308Y-86280869D01*
X64776671Y-86253486D01*
X64532702Y-86181903D01*
X63719605Y-86995000D01*
X63360395Y-86995000D01*
X62547298Y-86181903D01*
X62303329Y-86253486D01*
X62182429Y-86508996D01*
X62113700Y-86783184D01*
X62099783Y-87065512D01*
X61087000Y-87065512D01*
X61087000Y-86002298D01*
X62726903Y-86002298D01*
X63540000Y-86815395D01*
X64353097Y-86002298D01*
X64281514Y-85758329D01*
X64026004Y-85637429D01*
X63751816Y-85568700D01*
X63469488Y-85554783D01*
X63189870Y-85596213D01*
X62923708Y-85691397D01*
X62798486Y-85758329D01*
X62726903Y-86002298D01*
X61087000Y-86002298D01*
X61087000Y-73890702D01*
X62726903Y-73890702D01*
X62798486Y-74134671D01*
X63053996Y-74255571D01*
X63328184Y-74324300D01*
X63610512Y-74338217D01*
X63890130Y-74296787D01*
X64156292Y-74201603D01*
X64281514Y-74134671D01*
X64353097Y-73890702D01*
X63540000Y-73077605D01*
X62726903Y-73890702D01*
X61087000Y-73890702D01*
X61087000Y-72968512D01*
X62099783Y-72968512D01*
X62141213Y-73248130D01*
X62236397Y-73514292D01*
X62303329Y-73639514D01*
X62547298Y-73711097D01*
X63360395Y-72898000D01*
X62547298Y-72084903D01*
X62303329Y-72156486D01*
X62182429Y-72411996D01*
X62113700Y-72686184D01*
X62099783Y-72968512D01*
X61087000Y-72968512D01*
X61087000Y-71905298D01*
X62726903Y-71905298D01*
X63540000Y-72718395D01*
X64353097Y-71905298D01*
X64281514Y-71661329D01*
X64026004Y-71540429D01*
X63751816Y-71471700D01*
X63469488Y-71457783D01*
X63189870Y-71499213D01*
X62923708Y-71594397D01*
X62798486Y-71661329D01*
X62726903Y-71905298D01*
X61087000Y-71905298D01*
X61087000Y-69572702D01*
X62726903Y-69572702D01*
X62798486Y-69816671D01*
X63053996Y-69937571D01*
X63328184Y-70006300D01*
X63610512Y-70020217D01*
X63890130Y-69978787D01*
X64156292Y-69883603D01*
X64281514Y-69816671D01*
X64353097Y-69572702D01*
X63540000Y-68759605D01*
X62726903Y-69572702D01*
X61087000Y-69572702D01*
X61087000Y-68650512D01*
X62099783Y-68650512D01*
X62141213Y-68930130D01*
X62236397Y-69196292D01*
X62303329Y-69321514D01*
X62547298Y-69393097D01*
X63360395Y-68580000D01*
X63719605Y-68580000D01*
X64532702Y-69393097D01*
X64601928Y-69372785D01*
X64601928Y-69380000D01*
X64614188Y-69504482D01*
X64650498Y-69624180D01*
X64709463Y-69734494D01*
X64788815Y-69831185D01*
X64885506Y-69910537D01*
X64905001Y-69920957D01*
X64905001Y-72013715D01*
X64791308Y-72183869D01*
X64776671Y-72156486D01*
X64532702Y-72084903D01*
X63719605Y-72898000D01*
X64532702Y-73711097D01*
X64776671Y-73639514D01*
X64790324Y-73610659D01*
X64905001Y-73782285D01*
X64905001Y-75640878D01*
X64795820Y-75673998D01*
X64685506Y-75732963D01*
X64588815Y-75812315D01*
X64509463Y-75909006D01*
X64450498Y-76019320D01*
X64414188Y-76139018D01*
X64401928Y-76263500D01*
X64401928Y-78168500D01*
X64414188Y-78292982D01*
X64450498Y-78412680D01*
X64509463Y-78522994D01*
X64588815Y-78619685D01*
X64685506Y-78699037D01*
X64777219Y-78748059D01*
X64664031Y-78889077D01*
X64520429Y-79164906D01*
X64449437Y-79383020D01*
X64569406Y-79629000D01*
X65913000Y-79629000D01*
X65913000Y-79609000D01*
X66167000Y-79609000D01*
X66167000Y-79629000D01*
X67510594Y-79629000D01*
X67630563Y-79383020D01*
X67559571Y-79164906D01*
X67415969Y-78889077D01*
X67302781Y-78748059D01*
X67394494Y-78699037D01*
X67491185Y-78619685D01*
X67570537Y-78522994D01*
X67629502Y-78412680D01*
X67665812Y-78292982D01*
X67678072Y-78168500D01*
X67678072Y-76263500D01*
X67665812Y-76139018D01*
X67629502Y-76019320D01*
X67570537Y-75909006D01*
X67491185Y-75812315D01*
X67394494Y-75732963D01*
X67284180Y-75673998D01*
X67175000Y-75640879D01*
X67175000Y-73782284D01*
X67311680Y-73577727D01*
X67419853Y-73316574D01*
X67475000Y-73039335D01*
X67475000Y-72756665D01*
X67419853Y-72479426D01*
X67311680Y-72218273D01*
X67175000Y-72013716D01*
X67175000Y-69920957D01*
X67194494Y-69910537D01*
X67291185Y-69831185D01*
X67370537Y-69734494D01*
X67380957Y-69715000D01*
X86939249Y-69715000D01*
X86995000Y-69720491D01*
X87050751Y-69715000D01*
X87050752Y-69715000D01*
X87217499Y-69698577D01*
X87431447Y-69633676D01*
X87628623Y-69528284D01*
X87801449Y-69386449D01*
X87836996Y-69343135D01*
X90933141Y-66246991D01*
X90976449Y-66211449D01*
X91118284Y-66038623D01*
X91193092Y-65898665D01*
X95085000Y-65898665D01*
X95085000Y-66181335D01*
X95140147Y-66458574D01*
X95248320Y-66719727D01*
X95405363Y-66954759D01*
X95605241Y-67154637D01*
X95840273Y-67311680D01*
X96101426Y-67419853D01*
X96378665Y-67475000D01*
X96661335Y-67475000D01*
X96938574Y-67419853D01*
X97199727Y-67311680D01*
X97434759Y-67154637D01*
X97634637Y-66954759D01*
X97647840Y-66935000D01*
X121549280Y-66935000D01*
X122370000Y-67755721D01*
X122370000Y-68462360D01*
X122250565Y-68429040D01*
X121464605Y-69215000D01*
X122250565Y-70000960D01*
X122370000Y-69967640D01*
X122370000Y-71002360D01*
X122250565Y-70969040D01*
X121464605Y-71755000D01*
X122250565Y-72540960D01*
X122370000Y-72507640D01*
X122370000Y-73542360D01*
X122250565Y-73509040D01*
X121464605Y-74295000D01*
X122250565Y-75080960D01*
X122370000Y-75047640D01*
X122370000Y-76082360D01*
X122250565Y-76049040D01*
X121464605Y-76835000D01*
X122250565Y-77620960D01*
X122370000Y-77587640D01*
X122370000Y-78622360D01*
X122250565Y-78589040D01*
X121464605Y-79375000D01*
X122250565Y-80160960D01*
X122370000Y-80127640D01*
X122370000Y-81162360D01*
X122250565Y-81129040D01*
X121464605Y-81915000D01*
X122250565Y-82700960D01*
X122370001Y-82667640D01*
X122370001Y-83702360D01*
X122250565Y-83669040D01*
X121464605Y-84455000D01*
X122250565Y-85240960D01*
X122370001Y-85207640D01*
X122370001Y-86242360D01*
X122250565Y-86209040D01*
X121464605Y-86995000D01*
X122250565Y-87780960D01*
X122370001Y-87747640D01*
X122370001Y-88782360D01*
X122250565Y-88749040D01*
X121464605Y-89535000D01*
X122250565Y-90320960D01*
X122370001Y-90287640D01*
X122370001Y-94377546D01*
X122309482Y-94359188D01*
X122185000Y-94346928D01*
X120385000Y-94346928D01*
X120260518Y-94359188D01*
X120140820Y-94395498D01*
X120030506Y-94454463D01*
X119933815Y-94533815D01*
X119854463Y-94630506D01*
X119795498Y-94740820D01*
X119759188Y-94860518D01*
X119746928Y-94985000D01*
X119746928Y-96785000D01*
X119759188Y-96909482D01*
X119795498Y-97029180D01*
X119854463Y-97139494D01*
X119933815Y-97236185D01*
X120030506Y-97315537D01*
X120140820Y-97374502D01*
X120151735Y-97377813D01*
X120104970Y-97424578D01*
X120220918Y-97540526D01*
X119966739Y-97624208D01*
X119835842Y-97896775D01*
X119760635Y-98189642D01*
X119744009Y-98491553D01*
X119786603Y-98790907D01*
X119886778Y-99076199D01*
X119966739Y-99225792D01*
X120220920Y-99309475D01*
X121105395Y-98425000D01*
X121091253Y-98410858D01*
X121270858Y-98231253D01*
X121285000Y-98245395D01*
X121299143Y-98231253D01*
X121478748Y-98410858D01*
X121464605Y-98425000D01*
X122349080Y-99309475D01*
X122603261Y-99225792D01*
X122734158Y-98953225D01*
X122809365Y-98660358D01*
X122825991Y-98358447D01*
X122783397Y-98059093D01*
X122683222Y-97773801D01*
X122603261Y-97624208D01*
X122349082Y-97540526D01*
X122465030Y-97424578D01*
X122418265Y-97377813D01*
X122429180Y-97374502D01*
X122539494Y-97315537D01*
X122636185Y-97236185D01*
X122715537Y-97139494D01*
X122774502Y-97029180D01*
X122810812Y-96909482D01*
X122823072Y-96785000D01*
X122823072Y-96772701D01*
X122880451Y-96767050D01*
X123049159Y-96715873D01*
X123204641Y-96632766D01*
X123340922Y-96520922D01*
X123368950Y-96486770D01*
X123866775Y-95988946D01*
X123900922Y-95960922D01*
X124012766Y-95824641D01*
X124095873Y-95669159D01*
X124147050Y-95500451D01*
X124160000Y-95368964D01*
X124160000Y-95368957D01*
X124164329Y-95325000D01*
X124160000Y-95281043D01*
X124160000Y-67428953D01*
X124164329Y-67384999D01*
X124160000Y-67341045D01*
X124160000Y-67341036D01*
X124147050Y-67209549D01*
X124095873Y-67040841D01*
X124012766Y-66885359D01*
X123900922Y-66749078D01*
X123866776Y-66721055D01*
X122583950Y-65438230D01*
X122555922Y-65404078D01*
X122419641Y-65292234D01*
X122264159Y-65209127D01*
X122095451Y-65157950D01*
X121963964Y-65145000D01*
X121963954Y-65145000D01*
X121920000Y-65140671D01*
X121876046Y-65145000D01*
X97647840Y-65145000D01*
X97634637Y-65125241D01*
X97434759Y-64925363D01*
X97199727Y-64768320D01*
X96938574Y-64660147D01*
X96661335Y-64605000D01*
X96378665Y-64605000D01*
X96101426Y-64660147D01*
X95840273Y-64768320D01*
X95605241Y-64925363D01*
X95405363Y-65125241D01*
X95248320Y-65360273D01*
X95140147Y-65621426D01*
X95085000Y-65898665D01*
X91193092Y-65898665D01*
X91223676Y-65841447D01*
X91288577Y-65627499D01*
X91305000Y-65460752D01*
X91305000Y-65460751D01*
X91310491Y-65405001D01*
X91305000Y-65349249D01*
X91305000Y-64703072D01*
X91370000Y-64703072D01*
X91494482Y-64690812D01*
X91614180Y-64654502D01*
X91724494Y-64595537D01*
X91821185Y-64516185D01*
X91900537Y-64419494D01*
X91959502Y-64309180D01*
X91995812Y-64189482D01*
X92008072Y-64065000D01*
X92008072Y-61665000D01*
X91995812Y-61540518D01*
X91959502Y-61420820D01*
X91900537Y-61310506D01*
X91821185Y-61213815D01*
X91724494Y-61134463D01*
X91614180Y-61075498D01*
X91494482Y-61039188D01*
X91370000Y-61026928D01*
X88970000Y-61026928D01*
X88845518Y-61039188D01*
X88725820Y-61075498D01*
X88615506Y-61134463D01*
X88518815Y-61213815D01*
X88439463Y-61310506D01*
X88380498Y-61420820D01*
X88344188Y-61540518D01*
X88331928Y-61665000D01*
X88331928Y-64065000D01*
X88344188Y-64189482D01*
X88380498Y-64309180D01*
X88439463Y-64419494D01*
X88518815Y-64516185D01*
X88615506Y-64595537D01*
X88725820Y-64654502D01*
X88845518Y-64690812D01*
X88970000Y-64703072D01*
X89035000Y-64703072D01*
X89035000Y-64934868D01*
X86524869Y-67445000D01*
X85031362Y-67445000D01*
X85091680Y-67354727D01*
X85199853Y-67093574D01*
X85255000Y-66816335D01*
X85255000Y-66533665D01*
X85199853Y-66256426D01*
X85091680Y-65995273D01*
X84934637Y-65760241D01*
X84734759Y-65560363D01*
X84715000Y-65547160D01*
X84715000Y-60695720D01*
X86095721Y-59315000D01*
X96306360Y-59315000D01*
X96314188Y-59394482D01*
X96350498Y-59514180D01*
X96409463Y-59624494D01*
X96488815Y-59721185D01*
X96585506Y-59800537D01*
X96695820Y-59859502D01*
X96815518Y-59895812D01*
X96940000Y-59908072D01*
X98640000Y-59908072D01*
X98764482Y-59895812D01*
X98884180Y-59859502D01*
X98994494Y-59800537D01*
X99091185Y-59721185D01*
X99170537Y-59624494D01*
X99229502Y-59514180D01*
X99253966Y-59433534D01*
X99329731Y-59517588D01*
X99563080Y-59691641D01*
X99825901Y-59816825D01*
X99973110Y-59861476D01*
X100203000Y-59740155D01*
X100203000Y-58547000D01*
X100183000Y-58547000D01*
X100183000Y-58293000D01*
X100203000Y-58293000D01*
X100203000Y-57099845D01*
X100457000Y-57099845D01*
X100457000Y-58293000D01*
X100477000Y-58293000D01*
X100477000Y-58547000D01*
X100457000Y-58547000D01*
X100457000Y-59740155D01*
X100686890Y-59861476D01*
X100834099Y-59816825D01*
X101096920Y-59691641D01*
X101330269Y-59517588D01*
X101525178Y-59301355D01*
X101594805Y-59184466D01*
X101716525Y-59366632D01*
X101735000Y-59385107D01*
X101735001Y-61416446D01*
X101700256Y-61439662D01*
X101444662Y-61695256D01*
X101243844Y-61995801D01*
X101105518Y-62329750D01*
X101035000Y-62684268D01*
X101035000Y-63045732D01*
X101105518Y-63400250D01*
X101243844Y-63734199D01*
X101444662Y-64034744D01*
X101700256Y-64290338D01*
X102000801Y-64491156D01*
X102334750Y-64629482D01*
X102689268Y-64700000D01*
X103050732Y-64700000D01*
X103405250Y-64629482D01*
X103739199Y-64491156D01*
X104039744Y-64290338D01*
X104295338Y-64034744D01*
X104496156Y-63734199D01*
X104634482Y-63400250D01*
X104705000Y-63045732D01*
X104705000Y-62684268D01*
X104634482Y-62329750D01*
X104496156Y-61995801D01*
X104295338Y-61695256D01*
X104039744Y-61439662D01*
X104005000Y-61416447D01*
X104005000Y-59385107D01*
X104023475Y-59366632D01*
X104185990Y-59123411D01*
X104297932Y-58853158D01*
X104355000Y-58566260D01*
X104355000Y-58273740D01*
X104297932Y-57986842D01*
X104185990Y-57716589D01*
X104023475Y-57473368D01*
X103816632Y-57266525D01*
X103573411Y-57104010D01*
X103303158Y-56992068D01*
X103016260Y-56935000D01*
X102723740Y-56935000D01*
X102436842Y-56992068D01*
X102166589Y-57104010D01*
X101923368Y-57266525D01*
X101716525Y-57473368D01*
X101594805Y-57655534D01*
X101525178Y-57538645D01*
X101330269Y-57322412D01*
X101096920Y-57148359D01*
X100834099Y-57023175D01*
X100686890Y-56978524D01*
X100457000Y-57099845D01*
X100203000Y-57099845D01*
X99973110Y-56978524D01*
X99825901Y-57023175D01*
X99563080Y-57148359D01*
X99329731Y-57322412D01*
X99253966Y-57406466D01*
X99229502Y-57325820D01*
X99170537Y-57215506D01*
X99091185Y-57118815D01*
X98994494Y-57039463D01*
X98884180Y-56980498D01*
X98764482Y-56944188D01*
X98640000Y-56931928D01*
X96940000Y-56931928D01*
X96815518Y-56944188D01*
X96695820Y-56980498D01*
X96585506Y-57039463D01*
X96488815Y-57118815D01*
X96409463Y-57215506D01*
X96350498Y-57325820D01*
X96314188Y-57445518D01*
X96306360Y-57525000D01*
X85768956Y-57525000D01*
X85725000Y-57520671D01*
X85681043Y-57525000D01*
X85681036Y-57525000D01*
X85549549Y-57537950D01*
X85380841Y-57589127D01*
X85225359Y-57672234D01*
X85089078Y-57784078D01*
X85061054Y-57818225D01*
X83218226Y-59661054D01*
X83184079Y-59689078D01*
X83156055Y-59723225D01*
X83156053Y-59723227D01*
X83072234Y-59825360D01*
X82989127Y-59980842D01*
X82937951Y-60149550D01*
X82920671Y-60325000D01*
X82925001Y-60368964D01*
X82925000Y-65547160D01*
X82905241Y-65560363D01*
X82705363Y-65760241D01*
X82548320Y-65995273D01*
X82440147Y-66256426D01*
X82385000Y-66533665D01*
X82385000Y-66816335D01*
X82440147Y-67093574D01*
X82548320Y-67354727D01*
X82608638Y-67445000D01*
X74871362Y-67445000D01*
X74931680Y-67354727D01*
X75039853Y-67093574D01*
X75095000Y-66816335D01*
X75095000Y-66533665D01*
X75039853Y-66256426D01*
X74931680Y-65995273D01*
X74774637Y-65760241D01*
X74574759Y-65560363D01*
X74555000Y-65547160D01*
X74555000Y-59903640D01*
X74634482Y-59895812D01*
X74754180Y-59859502D01*
X74864494Y-59800537D01*
X74961185Y-59721185D01*
X75040537Y-59624494D01*
X75099502Y-59514180D01*
X75123966Y-59433534D01*
X75199731Y-59517588D01*
X75433080Y-59691641D01*
X75695901Y-59816825D01*
X75843110Y-59861476D01*
X76073000Y-59740155D01*
X76073000Y-58547000D01*
X76053000Y-58547000D01*
X76053000Y-58293000D01*
X76073000Y-58293000D01*
X76073000Y-57099845D01*
X76327000Y-57099845D01*
X76327000Y-58293000D01*
X76347000Y-58293000D01*
X76347000Y-58547000D01*
X76327000Y-58547000D01*
X76327000Y-59740155D01*
X76556890Y-59861476D01*
X76704099Y-59816825D01*
X76966920Y-59691641D01*
X77200269Y-59517588D01*
X77395178Y-59301355D01*
X77464805Y-59184466D01*
X77586525Y-59366632D01*
X77605001Y-59385108D01*
X77605000Y-61416447D01*
X77570256Y-61439662D01*
X77314662Y-61695256D01*
X77113844Y-61995801D01*
X76975518Y-62329750D01*
X76905000Y-62684268D01*
X76905000Y-63045732D01*
X76975518Y-63400250D01*
X77113844Y-63734199D01*
X77314662Y-64034744D01*
X77570256Y-64290338D01*
X77870801Y-64491156D01*
X78204750Y-64629482D01*
X78559268Y-64700000D01*
X78920732Y-64700000D01*
X79275250Y-64629482D01*
X79609199Y-64491156D01*
X79909744Y-64290338D01*
X80165338Y-64034744D01*
X80366156Y-63734199D01*
X80504482Y-63400250D01*
X80575000Y-63045732D01*
X80575000Y-62684268D01*
X80504482Y-62329750D01*
X80366156Y-61995801D01*
X80165338Y-61695256D01*
X79909744Y-61439662D01*
X79875000Y-61416447D01*
X79875000Y-59385107D01*
X79893475Y-59366632D01*
X80055990Y-59123411D01*
X80167932Y-58853158D01*
X80225000Y-58566260D01*
X80225000Y-58273740D01*
X80167932Y-57986842D01*
X80055990Y-57716589D01*
X79893475Y-57473368D01*
X79686632Y-57266525D01*
X79443411Y-57104010D01*
X79173158Y-56992068D01*
X78886260Y-56935000D01*
X78593740Y-56935000D01*
X78306842Y-56992068D01*
X78036589Y-57104010D01*
X77793368Y-57266525D01*
X77586525Y-57473368D01*
X77464805Y-57655534D01*
X77395178Y-57538645D01*
X77200269Y-57322412D01*
X76966920Y-57148359D01*
X76704099Y-57023175D01*
X76556890Y-56978524D01*
X76327000Y-57099845D01*
X76073000Y-57099845D01*
X75843110Y-56978524D01*
X75695901Y-57023175D01*
X75433080Y-57148359D01*
X75199731Y-57322412D01*
X75123966Y-57406466D01*
X75099502Y-57325820D01*
X75040537Y-57215506D01*
X74961185Y-57118815D01*
X74864494Y-57039463D01*
X74754180Y-56980498D01*
X74634482Y-56944188D01*
X74510000Y-56931928D01*
X72810000Y-56931928D01*
X72685518Y-56944188D01*
X72565820Y-56980498D01*
X72455506Y-57039463D01*
X72358815Y-57118815D01*
X72279463Y-57215506D01*
X72220498Y-57325820D01*
X72184188Y-57445518D01*
X72171928Y-57570000D01*
X72171928Y-59270000D01*
X72184188Y-59394482D01*
X72220498Y-59514180D01*
X72279463Y-59624494D01*
X72358815Y-59721185D01*
X72455506Y-59800537D01*
X72565820Y-59859502D01*
X72685518Y-59895812D01*
X72765001Y-59903640D01*
X72765000Y-65547160D01*
X72745241Y-65560363D01*
X72545363Y-65760241D01*
X72388320Y-65995273D01*
X72280147Y-66256426D01*
X72225000Y-66533665D01*
X72225000Y-66816335D01*
X72280147Y-67093574D01*
X72388320Y-67354727D01*
X72448638Y-67445000D01*
X67380957Y-67445000D01*
X67370537Y-67425506D01*
X67291185Y-67328815D01*
X67194494Y-67249463D01*
X67175000Y-67239043D01*
X67175000Y-64703072D01*
X67240000Y-64703072D01*
X67364482Y-64690812D01*
X67484180Y-64654502D01*
X67594494Y-64595537D01*
X67691185Y-64516185D01*
X67770537Y-64419494D01*
X67829502Y-64309180D01*
X67865812Y-64189482D01*
X67878072Y-64065000D01*
X67878072Y-61665000D01*
X67865812Y-61540518D01*
X67829502Y-61420820D01*
X67770537Y-61310506D01*
X67691185Y-61213815D01*
X67594494Y-61134463D01*
X67484180Y-61075498D01*
X67364482Y-61039188D01*
X67240000Y-61026928D01*
X64840000Y-61026928D01*
X64715518Y-61039188D01*
X64595820Y-61075498D01*
X64485506Y-61134463D01*
X64388815Y-61213815D01*
X64309463Y-61310506D01*
X64250498Y-61420820D01*
X64214188Y-61540518D01*
X64201928Y-61665000D01*
X64201928Y-64065000D01*
X64214188Y-64189482D01*
X64250498Y-64309180D01*
X64309463Y-64419494D01*
X64388815Y-64516185D01*
X64485506Y-64595537D01*
X64595820Y-64654502D01*
X64715518Y-64690812D01*
X64840000Y-64703072D01*
X64905000Y-64703072D01*
X64905000Y-67239043D01*
X64885506Y-67249463D01*
X64788815Y-67328815D01*
X64709463Y-67425506D01*
X64650498Y-67535820D01*
X64614188Y-67655518D01*
X64601928Y-67780000D01*
X64601928Y-67787215D01*
X64532702Y-67766903D01*
X63719605Y-68580000D01*
X63360395Y-68580000D01*
X62547298Y-67766903D01*
X62303329Y-67838486D01*
X62182429Y-68093996D01*
X62113700Y-68368184D01*
X62099783Y-68650512D01*
X61087000Y-68650512D01*
X61087000Y-67587298D01*
X62726903Y-67587298D01*
X63540000Y-68400395D01*
X64353097Y-67587298D01*
X64281514Y-67343329D01*
X64026004Y-67222429D01*
X63751816Y-67153700D01*
X63469488Y-67139783D01*
X63189870Y-67181213D01*
X62923708Y-67276397D01*
X62798486Y-67343329D01*
X62726903Y-67587298D01*
X61087000Y-67587298D01*
X61087000Y-56350000D01*
X63152419Y-56350000D01*
X63186138Y-56346679D01*
X63208839Y-56346679D01*
X63218003Y-56345716D01*
X63557414Y-56307645D01*
X63615917Y-56295209D01*
X63674605Y-56283589D01*
X63683408Y-56280864D01*
X64008961Y-56177593D01*
X64063908Y-56154042D01*
X64119249Y-56131233D01*
X64127355Y-56126850D01*
X64426649Y-55962312D01*
X64476005Y-55928517D01*
X64525832Y-55895412D01*
X64532932Y-55889538D01*
X64794567Y-55670000D01*
X64836411Y-55627270D01*
X64878865Y-55585112D01*
X64884689Y-55577970D01*
X65098700Y-55311796D01*
X65131450Y-55261749D01*
X65164906Y-55212148D01*
X65169232Y-55204011D01*
X65327466Y-54901337D01*
X65349862Y-54845905D01*
X65373056Y-54790729D01*
X65375719Y-54781907D01*
X65472150Y-54454262D01*
X65483349Y-54395554D01*
X65495388Y-54336905D01*
X65496287Y-54327733D01*
X65527241Y-53987599D01*
X65526823Y-53927783D01*
X65527241Y-53867967D01*
X65526342Y-53858796D01*
X65490642Y-53519126D01*
X65478610Y-53460514D01*
X65467405Y-53401769D01*
X65464741Y-53392947D01*
X65363745Y-53066681D01*
X65340565Y-53011538D01*
X65318156Y-52956073D01*
X65313829Y-52947936D01*
X65151384Y-52647500D01*
X65117939Y-52597916D01*
X65085179Y-52547853D01*
X65079354Y-52540712D01*
X64861648Y-52277551D01*
X64819212Y-52235410D01*
X64777349Y-52192661D01*
X64770248Y-52186787D01*
X64505574Y-51970924D01*
X64455716Y-51937799D01*
X64406393Y-51904026D01*
X64398287Y-51899643D01*
X64096725Y-51739299D01*
X64041433Y-51716510D01*
X63986437Y-51692938D01*
X63977634Y-51690213D01*
X63650671Y-51591497D01*
X63592000Y-51579880D01*
X63533479Y-51567441D01*
X63524314Y-51566478D01*
X63184404Y-51533150D01*
X63184402Y-51533150D01*
X63152419Y-51530000D01*
X61087000Y-51530000D01*
X61087000Y-50300000D01*
X125603000Y-50300000D01*
X125603000Y-51530000D01*
M02*
